<svg width="70" height="80" viewBox="0 0 70 80" fill="none" xmlns="http://www.w3.org/2000/svg">
<g clip-path="url(#clip0_100_720)">
<path d="M27.0618 4.53613C30.9376 2.32138 32.8755 1.21401 35 1.21401C37.1245 1.21401 39.0624 2.32138 42.9382 4.53613L61.9382 15.3933C65.8718 17.641 67.8386 18.7649 68.9193 20.6272C70 22.4894 70 24.7547 70 29.2852V50.7148C70 55.2453 70 57.5106 68.9193 59.3728C67.8386 61.2351 65.8718 62.359 61.9382 64.6067L42.9382 75.4639C39.0624 77.6786 37.1245 78.786 35 78.786C32.8755 78.786 30.9376 77.6786 27.0618 75.4639L8.06178 64.6067C4.12822 62.359 2.16144 61.2351 1.08072 59.3728C0 57.5106 0 55.2453 0 50.7148V29.2852C0 24.7547 0 22.4894 1.08072 20.6272C2.16144 18.7649 4.12822 17.641 8.06178 15.3933L27.0618 4.53613Z" fill="white"/>
<g clip-path="url(#clip1_100_720)">
<path d="M52.1912 37.4393C52.0381 33.0762 50.2712 28.9962 47.1687 25.8937C43.9169 22.6412 39.595 20.8506 35 20.8506C25.7194 20.8506 18.1362 28.2375 17.8094 37.4393C16.3931 38.0687 15.4019 39.4862 15.4019 41.1337V45.6725C15.4019 47.9012 17.215 49.715 19.4444 49.715C20.8869 49.715 22.06 48.5418 22.06 47.0993V39.7062C22.06 38.3518 21.0212 37.2475 19.7006 37.1162C20.1881 29.0993 26.8619 22.7256 35 22.7256C39.095 22.7256 42.9456 24.3218 45.8437 27.22C48.505 29.8812 50.0625 33.35 50.2969 37.1168C48.9775 37.2493 47.9406 38.3531 47.9406 39.7062V47.0987C47.9406 48.4643 48.9956 49.5756 50.3319 49.6912V51.5593C50.3319 53.6631 48.62 55.3743 46.5162 55.3743H43.6906C43.5519 54.9781 43.3344 54.6118 43.0294 54.3081C42.495 53.7712 41.7825 53.4756 41.0237 53.4756H38.1112C37.6931 53.4756 37.2919 53.5643 36.9244 53.7356C35.9219 54.1962 35.2744 55.2075 35.2744 56.3118C35.2744 57.0706 35.57 57.7831 36.1056 58.3162C36.6412 58.8531 37.3537 59.1487 38.1112 59.1487H41.0237C42.2312 59.1487 43.2956 58.3681 43.6925 57.2493H46.5162C49.6544 57.2493 52.2069 54.6968 52.2069 51.5593V49.3575C53.6144 48.7243 54.5981 47.3118 54.5981 45.6712V41.1325C54.5981 39.4862 53.6069 38.0687 52.1912 37.4393ZM20.1844 39.7062V47.0987C20.1844 47.5068 19.8525 47.8393 19.4437 47.8393C18.2487 47.8393 17.2762 46.8668 17.2762 45.6718V41.1331C17.2762 39.9375 18.2487 38.9656 19.4437 38.9656C19.8525 38.9656 20.1844 39.2981 20.1844 39.7062ZM41.9644 56.5131C41.8712 56.9543 41.475 57.275 41.0231 57.275H38.1106C37.8544 57.275 37.6137 57.175 37.43 56.9912C37.2487 56.8106 37.1487 56.5693 37.1487 56.3131C37.1487 55.9387 37.3681 55.5968 37.7119 55.4387C37.8344 55.3812 37.9687 55.3518 38.1106 55.3518H41.0231C41.2794 55.3518 41.52 55.4512 41.7031 55.635C41.8844 55.8156 41.9844 56.0568 41.9844 56.3131C41.985 56.3818 41.9775 56.4506 41.9644 56.5131ZM52.7231 45.6718C52.7231 46.8668 51.7506 47.8393 50.5556 47.8393C50.1475 47.8393 49.815 47.5075 49.815 47.0987V39.7062C49.815 39.2981 50.1469 38.9656 50.5556 38.9656C51.7506 38.9656 52.7231 39.9381 52.7231 41.1331V45.6718Z" fill="#1B3A57"/>
<path d="M41.0708 45.9949C43.2614 45.9949 45.0433 44.2124 45.0433 42.0224V33.9281C45.0433 32.8693 44.6295 31.8718 43.8783 31.1206C43.127 30.3693 42.1302 29.9556 41.0708 29.9556H28.9295C26.7389 29.9556 24.957 31.7374 24.957 33.9281V42.0224C24.957 44.2131 26.7389 45.9949 28.9295 45.9949H29.0039V48.0924C29.0039 48.8924 29.4808 49.6024 30.2183 49.9018C30.4564 49.9974 30.7039 50.0449 30.9489 50.0449C31.4595 50.0449 31.957 49.8424 32.3214 49.4656L35.8108 45.9949H41.0708ZM34.7639 44.3924L30.9877 48.1481C30.9708 48.1656 30.9583 48.1787 30.9227 48.1631C30.8795 48.1456 30.8795 48.1174 30.8795 48.0924V45.0574C30.8795 44.5399 30.4602 44.1199 29.942 44.1199H28.9302C27.7733 44.1199 26.8327 43.1787 26.8327 42.0224V33.9281C26.8327 32.7712 27.7733 31.8306 28.9302 31.8306H41.0714C41.6302 31.8306 42.1558 32.0493 42.5533 32.4462C42.9508 32.8437 43.1689 33.3699 43.1689 33.9281V42.0224C43.1689 43.1793 42.2277 44.1199 41.0714 44.1199H35.4252C35.177 44.1199 34.9395 44.2181 34.7639 44.3924Z" fill="#1B3A57"/>
<path d="M30.4456 36.7417C29.6831 36.7417 29.0625 37.3629 29.0625 38.1248C29.0625 38.8867 29.6837 39.5079 30.4456 39.5079C31.2087 39.5079 31.83 38.8867 31.83 38.1248C31.83 37.3629 31.2094 36.7417 30.4456 36.7417Z" fill="#1B3A57"/>
<path d="M34.9993 36.7417C34.2368 36.7417 33.6162 37.3629 33.6162 38.1248C33.6162 38.8867 34.2375 39.5079 34.9993 39.5079C35.7631 39.5079 36.3837 38.8867 36.3837 38.1248C36.3837 37.3629 35.7631 36.7417 34.9993 36.7417Z" fill="#1B3A57"/>
<path d="M39.553 36.7417C38.7905 36.7417 38.1699 37.3629 38.1699 38.1248C38.1699 38.8867 38.7912 39.5079 39.553 39.5079C40.3162 39.5079 40.9374 38.8867 40.9374 38.1248C40.9374 37.3629 40.3162 36.7417 39.553 36.7417Z" fill="#1B3A57"/>
</g>
</g>
<defs>
<clipPath id="clip0_100_720">
<rect width="70" height="80" fill="white"/>
</clipPath>
<clipPath id="clip1_100_720">
<rect width="40" height="40" fill="white" transform="translate(15 20)"/>
</clipPath>
</defs>
</svg>
