<svg width="70" height="80" viewBox="0 0 70 80" fill="none" xmlns="http://www.w3.org/2000/svg">
<g clip-path="url(#clip0_100_712)">
<path d="M27.0618 4.53613C30.9376 2.32138 32.8755 1.21401 35 1.21401C37.1245 1.21401 39.0624 2.32138 42.9382 4.53613L61.9382 15.3933C65.8718 17.641 67.8386 18.7649 68.9193 20.6272C70 22.4894 70 24.7547 70 29.2852V50.7148C70 55.2453 70 57.5106 68.9193 59.3728C67.8386 61.2351 65.8718 62.359 61.9382 64.6067L42.9382 75.4639C39.0624 77.6786 37.1245 78.786 35 78.786C32.8755 78.786 30.9376 77.6786 27.0618 75.4639L8.06178 64.6067C4.12822 62.359 2.16144 61.2351 1.08072 59.3728C0 57.5106 0 55.2453 0 50.7148V29.2852C0 24.7547 0 22.4894 1.08072 20.6272C2.16144 18.7649 4.12822 17.641 8.06178 15.3933L27.0618 4.53613Z" fill="white"/>
<g clip-path="url(#clip1_100_712)">
<path d="M35.625 30.6248C36.3356 30.6293 37.0388 30.4813 37.6873 30.1909C38.3359 29.9004 38.9145 29.4742 39.3843 28.9411C39.8541 28.408 40.2041 27.7803 40.4106 27.1004C40.6171 26.4205 40.6754 25.7042 40.5816 24.9998H43.75C43.9158 24.9998 44.0747 24.934 44.1919 24.8168C44.3092 24.6995 44.375 24.5406 44.375 24.3748C44.375 24.2091 44.3092 24.0501 44.1919 23.9329C44.0747 23.8157 43.9158 23.7498 43.75 23.7498H40.2569C39.9164 22.9092 39.3537 22.177 38.629 21.6318C37.9043 21.0865 37.0449 20.7487 36.1428 20.6545C35.2408 20.5603 34.3301 20.7133 33.5084 21.0971C32.6867 21.4809 31.9848 22.081 31.4781 22.8331C30.9713 23.5853 30.6788 24.4611 30.6317 25.3669C30.5847 26.2726 30.785 27.174 31.2111 27.9746C31.6372 28.7752 32.273 29.4448 33.0506 29.9117C33.8281 30.3785 34.7181 30.6251 35.625 30.6248ZM35.625 21.8748C36.2824 21.8756 36.9281 22.0492 37.4973 22.3783C38.0664 22.7074 38.539 23.1804 38.8676 23.7498H32.3824C32.711 23.1804 33.1836 22.7074 33.7527 22.3783C34.3219 22.0492 34.9676 21.8756 35.625 21.8748ZM31.9312 24.9998H39.3188C39.4132 25.5388 39.3885 26.092 39.2464 26.6205C39.1043 27.149 38.8483 27.6399 38.4963 28.0589C38.1443 28.478 37.7049 28.8149 37.2089 29.046C36.7128 29.2771 36.1722 29.3969 35.625 29.3969C35.0778 29.3969 34.5372 29.2771 34.0411 29.046C33.5451 28.8149 33.1057 28.478 32.7537 28.0589C32.4017 27.6399 32.1457 27.149 32.0036 26.6205C31.8615 26.092 31.8368 25.5388 31.9312 24.9998ZM25.625 41.2498H29.375C29.5408 41.2498 29.6997 41.3157 29.8169 41.4329C29.9342 41.5501 30 41.7091 30 41.8748C30 42.0406 29.9342 42.1995 29.8169 42.3168C29.6997 42.434 29.5408 42.4998 29.375 42.4998H25.625C25.4592 42.4998 25.3003 42.434 25.1831 42.3168C25.0658 42.1995 25 42.0406 25 41.8748C25 41.7091 25.0658 41.5501 25.1831 41.4329C25.3003 41.3157 25.4592 41.2498 25.625 41.2498ZM16.25 42.4998C16.0842 42.4998 15.9253 42.434 15.8081 42.3168C15.6908 42.1995 15.625 42.0406 15.625 41.8748C15.625 41.7091 15.6908 41.5501 15.8081 41.4329C15.9253 41.3157 16.0842 41.2498 16.25 41.2498H23.125C23.2908 41.2498 23.4497 41.3157 23.5669 41.4329C23.6842 41.5501 23.75 41.7091 23.75 41.8748C23.75 42.0406 23.6842 42.1995 23.5669 42.3168C23.4497 42.434 23.2908 42.4998 23.125 42.4998H16.25ZM27.5 38.7498C27.3342 38.7498 27.1753 38.684 27.0581 38.5668C26.9408 38.4495 26.875 38.2906 26.875 38.1248C26.875 37.9591 26.9408 37.8001 27.0581 37.6829C27.1753 37.5657 27.3342 37.4998 27.5 37.4998H29.375C29.5408 37.4998 29.6997 37.5657 29.8169 37.6829C29.9342 37.8001 30 37.9591 30 38.1248C30 38.2906 29.9342 38.4495 29.8169 38.5668C29.6997 38.684 29.5408 38.7498 29.375 38.7498H27.5ZM16.25 38.1248C16.25 37.9591 16.3158 37.8001 16.4331 37.6829C16.5503 37.5657 16.7092 37.4998 16.875 37.4998H25C25.1658 37.4998 25.3247 37.5657 25.4419 37.6829C25.5592 37.8001 25.625 37.9591 25.625 38.1248C25.625 38.2906 25.5592 38.4495 25.4419 38.5668C25.3247 38.684 25.1658 38.7498 25 38.7498H16.875C16.7092 38.7498 16.5503 38.684 16.4331 38.5668C16.3158 38.4495 16.25 38.2906 16.25 38.1248ZM16.875 34.3748C16.875 34.2091 16.9408 34.0501 17.0581 33.9329C17.1753 33.8157 17.3342 33.7498 17.5 33.7498H21.875C22.0408 33.7498 22.1997 33.8157 22.3169 33.9329C22.4342 34.0501 22.5 34.2091 22.5 34.3748C22.5 34.5406 22.4342 34.6995 22.3169 34.8168C22.1997 34.934 22.0408 34.9998 21.875 34.9998H17.5C17.3342 34.9998 17.1753 34.934 17.0581 34.8168C16.9408 34.6995 16.875 34.5406 16.875 34.3748ZM23.75 44.3748C23.9158 44.3748 24.0747 44.4407 24.1919 44.5579C24.3092 44.6751 24.375 44.8341 24.375 44.9998C24.375 45.1656 24.3092 45.3245 24.1919 45.4418C24.0747 45.559 23.9158 45.6248 23.75 45.6248H18.125C17.9592 45.6248 17.8003 45.559 17.6831 45.4418C17.5658 45.3245 17.5 45.1656 17.5 44.9998C17.5 44.8341 17.5658 44.6751 17.6831 44.5579C17.8003 44.4407 17.9592 44.3748 18.125 44.3748H23.75ZM52.5 26.2498H43.75C43.2529 26.2504 42.7763 26.4481 42.4248 26.7996C42.0733 27.1511 41.8755 27.6277 41.875 28.1248V36.8748C41.8771 37.0882 41.9161 37.2997 41.9902 37.4998H41.4422L37.301 32.9924C36.8096 32.4587 36.1482 32.112 35.4297 32.0116L32.2314 31.5672C31.4963 31.4624 30.7481 31.6251 30.1229 32.0257C29.4977 32.4263 29.0372 33.0382 28.8253 33.7498H24.375C24.2092 33.7498 24.0503 33.8157 23.9331 33.9329C23.8158 34.0501 23.75 34.2091 23.75 34.3748C23.75 34.5406 23.8158 34.6995 23.9331 34.8168C24.0503 34.934 24.2092 34.9998 24.375 34.9998H30C30.1658 34.9998 30.3247 34.934 30.4419 34.8168C30.5592 34.6995 30.625 34.5406 30.625 34.3748C30.6239 34.2373 30.5769 34.1041 30.4913 33.9965C30.4058 33.8888 30.2867 33.8128 30.153 33.7807C30.3316 33.4415 30.6106 33.1657 30.9519 32.9911C31.2932 32.8164 31.68 32.7515 32.0596 32.805L35.2576 33.2493C35.6888 33.3097 36.0857 33.5179 36.3806 33.8383L40.7074 38.5478C40.7659 38.6115 40.8371 38.6623 40.9163 38.6971C40.9955 38.7319 41.0811 38.7498 41.1676 38.7498H46.5066C46.764 38.7497 47.0114 38.8495 47.1967 39.0282C47.3819 39.2069 47.4906 39.4505 47.4998 39.7078C47.5089 39.965 47.4179 40.2157 47.2459 40.4072C47.0738 40.5986 46.8342 40.7158 46.5774 40.7341L40.1068 41.1961C39.9581 41.2073 39.8088 41.1846 39.6702 41.1297C39.5315 41.0748 39.4071 40.9892 39.3063 40.8793L38.5764 40.0883L38.5761 40.0877L34.216 35.2086C34.162 35.1452 34.0958 35.0933 34.0214 35.0558C33.947 35.0184 33.8659 34.9962 33.7828 34.9906C33.6997 34.9849 33.6163 34.996 33.5376 35.023C33.4588 35.05 33.3862 35.0925 33.3241 35.148C33.262 35.2035 33.2116 35.2708 33.1759 35.3461C33.1402 35.4213 33.1198 35.5029 33.1161 35.5861C33.1124 35.6693 33.1253 35.7524 33.1541 35.8305C33.183 35.9087 33.2271 35.9802 33.284 36.0411L34.2031 37.0696C33.7135 39.1775 33.3459 41.312 33.1021 43.4623C33.0874 43.5823 33.1077 43.704 33.1607 43.8127C33.2137 43.9214 33.297 44.0125 33.4006 44.0748L39.6588 47.8379C39.7695 47.9045 39.8656 47.9928 39.9412 48.0975C40.0168 48.2023 40.0703 48.3213 40.0986 48.4473C40.1269 48.5734 40.1293 48.7038 40.1057 48.8308C40.0821 48.9578 40.0329 49.0787 39.9613 49.1862L34.6264 57.1886C34.4897 57.3942 34.2786 57.5389 34.0375 57.5923C33.7964 57.6457 33.544 57.6036 33.3332 57.4748C33.1224 57.3461 32.9697 57.1408 32.9071 56.9019C32.8445 56.663 32.8769 56.4091 32.9974 56.1936L36.6461 49.6488C36.7258 49.5057 36.7462 49.3371 36.703 49.1792C36.6598 49.0212 36.5563 48.8865 36.4149 48.804L31.1961 45.7644C31.1216 45.7211 31.039 45.6936 30.9534 45.6837C30.8678 45.6739 30.7811 45.6818 30.6987 45.707C30.6163 45.7323 30.54 45.7743 30.4746 45.8304C30.4092 45.8865 30.3562 45.9556 30.3188 46.0332L27.3971 52.0836L18.2504 53.4648C18.007 53.5012 17.7588 53.4423 17.5577 53.3004C17.3565 53.1586 17.2177 52.9447 17.1701 52.7031L17.1576 52.6391C17.1087 52.3947 17.1577 52.1409 17.2941 51.9324C17.4305 51.7238 17.6433 51.5771 17.8868 51.5239L25.445 49.832C25.537 49.8115 25.6232 49.7705 25.697 49.7119C25.7708 49.6533 25.8304 49.5788 25.8713 49.4939C25.8713 49.4939 27.4921 46.1376 27.7401 45.6251H28.125C28.2908 45.6251 28.4497 45.5593 28.5669 45.4421C28.6842 45.3249 28.75 45.1659 28.75 45.0001C28.75 44.8344 28.6842 44.6754 28.5669 44.5582C28.4497 44.441 28.2908 44.3751 28.125 44.3751H26.25C26.0842 44.3751 25.9253 44.441 25.8081 44.5582C25.6908 44.6754 25.625 44.8344 25.625 45.0001C25.625 45.1659 25.6908 45.3249 25.8081 45.4421C25.9253 45.5593 26.0842 45.6251 26.25 45.6251H26.375C26.0688 46.2129 25.6116 47.1571 24.8767 48.6787L17.6138 50.3044C17.0517 50.4269 16.5603 50.7654 16.2455 51.2468C15.9307 51.7283 15.8177 52.3142 15.9308 52.8783L15.9433 52.9423C16.0521 53.5005 16.3722 53.9952 16.837 54.323C17.3017 54.6507 17.8752 54.7863 18.4375 54.7014L27.9102 53.2707C28.0107 53.2554 28.106 53.2158 28.1877 53.1554C28.2695 53.095 28.3353 53.0156 28.3795 52.924L31.1511 47.1849L35.2561 49.5756L31.9061 55.5845C31.6857 55.986 31.5954 56.4459 31.6475 56.9009C31.6996 57.3559 31.8915 57.7835 32.1969 58.1248H28.75C28.5842 58.1248 28.4253 58.1907 28.3081 58.3079C28.1908 58.4251 28.125 58.5841 28.125 58.7498C28.125 58.9156 28.1908 59.0745 28.3081 59.1918C28.4253 59.309 28.5842 59.3748 28.75 59.3748H39.375C39.5408 59.3748 39.6997 59.309 39.8169 59.1918C39.9342 59.0745 40 58.9156 40 58.7498C40 58.5841 39.9342 58.4251 39.8169 58.3079C39.6997 58.1907 39.5408 58.1248 39.375 58.1248H35.4557C35.532 58.0492 35.6024 57.968 35.6665 57.8819L41.0013 49.8796C41.1667 49.6314 41.28 49.3522 41.3345 49.059C41.3889 48.7657 41.3833 48.4645 41.318 48.1734C41.2527 47.8824 41.1291 47.6077 40.9546 47.3658C40.7801 47.1239 40.5583 46.9199 40.3028 46.7662L34.393 43.2127C34.6341 41.3151 34.8981 39.7123 35.2072 38.2798L38.3875 41.7271C38.6145 41.9763 38.8955 42.1703 39.2089 42.2943C39.5223 42.4182 39.86 42.4689 40.196 42.4424L46.6663 41.9804C47.2315 41.9383 47.7601 41.6845 48.1464 41.2697C48.5326 40.8549 48.7482 40.3097 48.75 39.7429C48.7478 39.3975 48.6648 39.0574 48.5077 38.7498H52.5C52.9971 38.7493 53.4737 38.5516 53.8252 38.2C54.1767 37.8485 54.3745 37.3719 54.375 36.8748V28.1248C54.3745 27.6277 54.1767 27.1511 53.8252 26.7996C53.4737 26.4481 52.9971 26.2504 52.5 26.2498ZM46.875 27.4998H49.375V30.366L48.5669 29.5579C48.5089 29.4999 48.44 29.4538 48.3642 29.4224C48.2883 29.391 48.2071 29.3748 48.125 29.3748C48.0429 29.3748 47.9617 29.391 47.8858 29.4224C47.81 29.4538 47.7411 29.4999 47.6831 29.5579L46.875 30.366V27.4998ZM53.125 36.8748C53.1249 37.0405 53.059 37.1994 52.9418 37.3166C52.8246 37.4338 52.6657 37.4997 52.5 37.4998H43.75C43.5843 37.4997 43.4254 37.4338 43.3082 37.3166C43.191 37.1994 43.1251 37.0405 43.125 36.8748V28.1248C43.1251 27.9591 43.191 27.8002 43.3082 27.683C43.4254 27.5659 43.5843 27.5 43.75 27.4998H45.625V31.8748C45.625 31.9984 45.6617 32.1192 45.7304 32.222C45.7991 32.3247 45.8967 32.4048 46.0108 32.4521C46.125 32.4994 46.2507 32.5118 46.3719 32.4877C46.4931 32.4636 46.6045 32.4041 46.6919 32.3167L48.125 30.8836L49.5581 32.3167C49.6455 32.4041 49.7569 32.4636 49.8781 32.4877C49.9993 32.5118 50.125 32.4994 50.2392 32.4521C50.3533 32.4048 50.4509 32.3247 50.5196 32.222C50.5883 32.1192 50.625 31.9984 50.625 31.8748V27.4998H52.5C52.6657 27.5 52.8246 27.5659 52.9418 27.683C53.059 27.8002 53.1249 27.9591 53.125 28.1248V36.8748ZM47.5 34.3748C47.5 34.5406 47.4342 34.6995 47.3169 34.8168C47.1997 34.934 47.0408 34.9998 46.875 34.9998H44.375C44.2092 34.9998 44.0503 34.934 43.9331 34.8168C43.8158 34.6995 43.75 34.5406 43.75 34.3748C43.75 34.2091 43.8158 34.0501 43.9331 33.9329C44.0503 33.8157 44.2092 33.7498 44.375 33.7498H46.875C47.0408 33.7498 47.1997 33.8157 47.3169 33.9329C47.4342 34.0501 47.5 34.2091 47.5 34.3748ZM47.5 36.2498C47.5 36.4156 47.4342 36.5745 47.3169 36.6918C47.1997 36.809 47.0408 36.8748 46.875 36.8748H44.375C44.2092 36.8748 44.0503 36.809 43.9331 36.6918C43.8158 36.5745 43.75 36.4156 43.75 36.2498C43.75 36.0841 43.8158 35.9251 43.9331 35.8079C44.0503 35.6907 44.2092 35.6248 44.375 35.6248H46.875C47.0408 35.6248 47.1997 35.6907 47.3169 35.8079C47.4342 35.9251 47.5 36.0841 47.5 36.2498Z" fill="#1B3A57"/>
</g>
</g>
<defs>
<clipPath id="clip0_100_712">
<rect width="70" height="80" fill="white"/>
</clipPath>
<clipPath id="clip1_100_712">
<rect width="40" height="40" fill="white" transform="translate(15 20)"/>
</clipPath>
</defs>
</svg>
