<svg width="70" height="80" viewBox="0 0 70 80" fill="none" xmlns="http://www.w3.org/2000/svg">
<g clip-path="url(#clip0_100_698)">
<path d="M27.0618 4.53613C30.9376 2.32138 32.8755 1.21401 35 1.21401C37.1245 1.21401 39.0624 2.32138 42.9382 4.53613L61.9382 15.3933C65.8718 17.641 67.8386 18.7649 68.9193 20.6272C70 22.4894 70 24.7547 70 29.2852V50.7148C70 55.2453 70 57.5106 68.9193 59.3728C67.8386 61.2351 65.8718 62.359 61.9382 64.6067L42.9382 75.4639C39.0624 77.6786 37.1245 78.786 35 78.786C32.8755 78.786 30.9376 77.6786 27.0618 75.4639L8.06178 64.6067C4.12822 62.359 2.16144 61.2351 1.08072 59.3728C0 57.5106 0 55.2453 0 50.7148V29.2852C0 24.7547 0 22.4894 1.08072 20.6272C2.16144 18.7649 4.12822 17.641 8.06178 15.3933L27.0618 4.53613Z" fill="white"/>
<g clip-path="url(#clip1_100_698)">
<path d="M25.0002 59.9998C21.3235 59.9998 18.3335 57.0098 18.3335 53.3331C18.3335 51.5531 19.0268 49.8781 20.2852 48.6181L38.6185 30.2848C38.9435 29.9598 39.4718 29.9598 39.7968 30.2848C40.1218 30.6098 40.1218 31.1381 39.7968 31.4631L21.4635 49.7964C20.5202 50.7414 20.0002 51.9981 20.0002 53.3331C20.0002 56.0898 22.2435 58.3331 25.0002 58.3331C26.3352 58.3331 27.5918 57.8131 28.5368 56.8698L46.8702 38.5364C47.1952 38.2114 47.7235 38.2114 48.0485 38.5364C48.3735 38.8614 48.3735 39.3898 48.0485 39.7148L29.7152 58.0481C28.4552 59.3064 26.7802 59.9998 25.0002 59.9998Z" fill="#1B3A57"/>
<path d="M49.1664 41.6666C48.9531 41.6666 48.7398 41.5849 48.5764 41.4232L36.9098 29.7566C36.5848 29.4316 36.5848 28.9032 36.9098 28.5782C37.2348 28.2532 37.7631 28.2532 38.0881 28.5782L49.7548 40.2449C50.0798 40.5699 50.0798 41.0982 49.7548 41.4232C49.5931 41.5849 49.3798 41.6666 49.1664 41.6666Z" fill="#1B3A57"/>
<path d="M48.3333 33.3332C46.495 33.3332 45 31.8382 45 29.9998C45 28.1615 46.495 26.6665 48.3333 26.6665C50.1717 26.6665 51.6667 28.1615 51.6667 29.9998C51.6667 31.8382 50.1717 33.3332 48.3333 33.3332ZM48.3333 28.3332C47.415 28.3332 46.6667 29.0815 46.6667 29.9998C46.6667 30.9182 47.415 31.6665 48.3333 31.6665C49.2517 31.6665 50 30.9182 50 29.9998C50 29.0815 49.2517 28.3332 48.3333 28.3332Z" fill="#1B3A57"/>
<path d="M42.5 25C41.1217 25 40 23.8783 40 22.5C40 21.1217 41.1217 20 42.5 20C43.8783 20 45 21.1217 45 22.5C45 23.8783 43.8783 25 42.5 25ZM42.5 21.6667C42.04 21.6667 41.6667 22.04 41.6667 22.5C41.6667 22.96 42.04 23.3333 42.5 23.3333C42.96 23.3333 43.3333 22.96 43.3333 22.5C43.3333 22.04 42.96 21.6667 42.5 21.6667Z" fill="#1B3A57"/>
<path d="M25.0002 54.9998C24.0818 54.9998 23.3335 54.2515 23.3335 53.3332C23.3335 52.4148 24.0818 51.6665 25.0002 51.6665C25.9185 51.6665 26.6668 52.4148 26.6668 53.3332C26.6668 54.2515 25.9185 54.9998 25.0002 54.9998Z" fill="#1B3A57"/>
<path d="M30.0002 51.6668C29.0818 51.6668 28.3335 50.9185 28.3335 50.0002C28.3335 49.0818 29.0818 48.3335 30.0002 48.3335C30.9185 48.3335 31.6668 49.0818 31.6668 50.0002C31.6668 50.9185 30.9185 51.6668 30.0002 51.6668Z" fill="#1B3A57"/>
<path d="M35.8336 40.0002C35.6202 40.0002 35.4069 39.9185 35.2436 39.7568L32.7936 37.3068C32.4686 36.9818 32.4686 36.4535 32.7936 36.1285C33.1186 35.8035 33.6469 35.8035 33.9719 36.1285L36.4219 38.5785C36.7469 38.9035 36.7469 39.4318 36.4219 39.7568C36.2602 39.9185 36.0469 40.0002 35.8336 40.0002Z" fill="#1B3A57"/>
<path d="M38.7483 46.6634C37.965 46.6634 37.1816 46.475 36.4966 46.0984L35.19 45.36C34.33 44.885 33.1683 44.8867 32.3033 45.3634L31.01 46.0934C29.635 46.8517 27.8666 46.8517 26.4983 46.0967L25.1066 45.3084C24.7066 45.0817 24.565 44.5734 24.7933 44.1717C25.02 43.7734 25.5266 43.63 25.93 43.8584L27.3133 44.6417C28.1683 45.1134 29.3316 45.115 30.1983 44.6367L31.4916 43.9067C32.8666 43.1484 34.6333 43.1467 36.0033 43.9034L37.31 44.6417C38.1683 45.1167 39.33 45.1134 40.1966 44.6384L41.5583 43.875C41.9566 43.65 42.4666 43.7934 42.6933 44.1934C42.92 44.5934 42.775 45.1017 42.375 45.3284L41.0083 46.095C40.32 46.4734 39.5333 46.6634 38.7483 46.6634Z" fill="#1B3A57"/>
</g>
</g>
<defs>
<clipPath id="clip0_100_698">
<rect width="70" height="80" fill="white"/>
</clipPath>
<clipPath id="clip1_100_698">
<rect width="40" height="40" fill="white" transform="translate(15 20)"/>
</clipPath>
</defs>
</svg>
