<svg width="36" height="36" viewBox="0 0 36 36" fill="none" xmlns="http://www.w3.org/2000/svg">
<g clip-path="url(#clip0_69_641)">
<g clip-path="url(#clip1_69_641)">
<path d="M17.5843 1.51927L1.82986 10.5555C1.70273 10.6307 1.59736 10.7376 1.52417 10.8659C1.45097 10.9942 1.41248 11.1393 1.41248 11.2869C1.41248 11.4347 1.45097 11.5798 1.52417 11.7081C1.59736 11.8363 1.70273 11.9433 1.82986 12.0185L17.5843 21.0547C17.7133 21.1266 17.8585 21.1644 18.0063 21.1644C18.1539 21.1644 18.2993 21.1266 18.4282 21.0547L34.1826 12.0185C34.3106 11.9438 34.4168 11.8371 34.4909 11.7089C34.5649 11.5805 34.6041 11.4351 34.6046 11.2869C35.4148 10.8874 17.5955 0.720289 17.5843 1.51927Z" fill="white"/>
<path d="M33.3378 17.2735L18.0055 26.0678L2.67307 17.2735C2.47907 17.1616 2.24856 17.1314 2.03225 17.1894C1.81594 17.2474 1.63154 17.389 1.51962 17.583C1.4077 17.7769 1.37743 18.0075 1.43546 18.2238C1.4935 18.4401 1.63509 18.6245 1.82908 18.7364L17.5835 27.7727C17.7116 27.8473 17.8571 27.8866 18.0055 27.8866C18.1537 27.8866 18.2994 27.8473 18.4274 27.7727L34.1818 18.7364C34.3758 18.6245 34.5174 18.4401 34.5754 18.2238C34.6335 18.0075 34.6032 17.7769 34.4913 17.583C34.3793 17.389 34.195 17.2474 33.9786 17.1894C33.7624 17.1314 33.5318 17.1616 33.3378 17.2735Z" fill="white"/>
<path d="M33.3378 23.9917L18.0055 32.786L2.67307 23.9917C2.47907 23.8798 2.24856 23.8495 2.03225 23.9075C1.81594 23.9656 1.63154 24.1072 1.51962 24.3012C1.4077 24.4952 1.37743 24.7257 1.43546 24.942C1.4935 25.1583 1.63509 25.3427 1.82908 25.4546L17.5835 34.4909C17.7116 34.5655 17.8571 34.6048 18.0055 34.6048C18.1537 34.6048 18.2994 34.5655 18.4274 34.4909L34.1818 25.4546C34.3758 25.3427 34.5174 25.1583 34.5754 24.942C34.6335 24.7257 34.6032 24.4952 34.4913 24.3012C34.3793 24.1072 34.195 23.9656 33.9786 23.9075C33.7624 23.8495 33.5318 23.8798 33.3378 23.9917Z" fill="white"/>
</g>
</g>
<defs>
<clipPath id="clip0_69_641">
<rect width="36.01" height="36.01" fill="white"/>
</clipPath>
<clipPath id="clip1_69_641">
<rect width="36.01" height="36.01" fill="white"/>
</clipPath>
</defs>
</svg>
