<svg width="44" height="52" viewBox="0 0 44 52" fill="none" xmlns="http://www.w3.org/2000/svg">
<path d="M35.1384 5.39014L32.4787 41.8605C32.4787 41.8605 19.6908 37.8325 4.74219 45.0566C4.74219 45.0566 19.6908 40.5178 35.1384 45.8943L38.8471 7.07135L35.1384 5.39014Z" fill="#1F6BFF"/>
<path d="M40.2919 8.91943L36.8042 47.9661C36.8042 47.9661 23.5399 43.3356 8.28516 45.8947C8.28516 45.8947 24.3395 44.5693 39.4639 51.9999L44.0007 10.5949L40.2919 8.91943Z" fill="#1F6BFF"/>
<path d="M0 3.23868V26.5864C4.72955 22.26 8.89769 19.6549 10.3494 18.8C10.4912 14.9326 13.6783 11.8571 17.5515 11.9546C21.2149 12.0464 24.2262 15.0244 24.3963 18.7311C24.5835 22.8166 21.3681 26.1847 17.3701 26.1847C15.561 26.1847 13.9051 25.4904 12.6632 24.3543C12.6121 24.3715 12.5668 24.3888 12.5214 24.4117C4.96774 27.3266 0 34.6941 0 42.8764V45.0511C1.34401 44.3052 2.67101 43.6396 3.96965 43.0428C18.8275 36.2261 30.657 38.4984 30.657 38.4984L33.328 3.7551C14.7898 -4.38131 0 3.23868 0 3.23868ZM24.3793 10.2447H19.2074V5.01171H24.3793V10.2447ZM29.727 15.0244H25.7687V11.0193H29.727V15.0244ZM30.2714 7.26098H27.7535V4.71334H30.2714V7.26098ZM17.3757 15.2769C15.3058 15.2769 13.6272 16.9753 13.6272 19.0697C13.6272 21.164 15.3058 22.8625 17.3757 22.8625C19.4456 22.8625 21.1242 21.164 21.1242 19.0697C21.1242 16.9753 19.4456 15.2769 17.3757 15.2769Z" fill="#1F6BFF"/>
<path d="M3.96965 43.0426C2.66534 43.6394 1.34401 44.305 0 45.0509V42.8762C0 34.6939 4.96774 27.3264 12.5214 24.4058C12.3796 24.5033 3.07931 31.1536 3.96965 43.0426Z" fill="#1F6BFF"/>
</svg>
