<svg width="40" height="40" viewBox="0 0 40 40" fill="none" xmlns="http://www.w3.org/2000/svg">
<g clip-path="url(#clip0_69_601)">
<g clip-path="url(#clip1_69_601)">
<path d="M38.75 34.9439H36.3114C36.3972 34.6295 36.3574 34.2941 36.2004 34.0086L31.9603 25.796C30.7662 23.4771 30.1085 20.9196 30.0355 18.3124C30.2004 18.3012 30.3614 18.2575 30.5094 18.1839C30.6573 18.1102 30.7892 18.0081 30.8975 17.8832C31.0058 17.7584 31.0884 17.6134 31.1404 17.4566C31.1925 17.2998 31.213 17.1342 31.2009 16.9694C31.1717 16.6505 31.0237 16.3543 30.786 16.1396C30.5484 15.9249 30.2387 15.8076 29.9185 15.8109H28.4477L28.3884 7.34793C28.3795 6.0923 27.6384 5.01066 26.4538 4.52496C25.2535 4.03277 23.9482 4.28574 23.0456 5.18512L19.598 8.47207L18.618 7.41137C18.4055 7.18143 18.1103 7.04531 17.7975 7.03293C17.4847 7.02055 17.1797 7.13293 16.9497 7.34535L16.8827 7.40723C16.7688 7.51245 16.6768 7.63908 16.6118 7.77989C16.5468 7.9207 16.5102 8.07293 16.5041 8.22788C16.498 8.38283 16.5225 8.53747 16.5761 8.68296C16.6298 8.82846 16.7116 8.96195 16.8169 9.07582L16.8351 9.09551L15.6007 10.2375V1.65137C15.6007 1.52705 15.5513 1.40782 15.4634 1.31991C15.3755 1.232 15.2563 1.18262 15.132 1.18262H12.5632C12.4389 1.18262 12.3197 1.232 12.2317 1.31991C12.1438 1.40782 12.0945 1.52705 12.0945 1.65137V13.0342L12.0393 12.9746C11.9549 12.8833 11.8377 12.8293 11.7135 12.8244C11.5893 12.8195 11.4683 12.8641 11.377 12.9485L8.4125 15.6878C8.32122 15.7722 8.26719 15.8893 8.26229 16.0135C8.2574 16.1378 8.30204 16.2588 8.38641 16.3501L8.66477 16.6514L4.6418 20.3689C4.08248 20.8905 3.75255 21.6125 3.72417 22.3768C3.69579 23.1411 3.97127 23.8856 4.49036 24.4473C5.00944 25.009 5.72987 25.3423 6.49404 25.3742C7.25822 25.4061 8.00393 25.1341 8.56805 24.6176L12.0946 21.3589V34.9439H1.25C1.12568 34.9439 1.00645 34.9933 0.918544 35.0812C0.830636 35.1691 0.78125 35.2883 0.78125 35.4126V38.3484C0.78125 38.4727 0.830636 38.5919 0.918544 38.6799C1.00645 38.7678 1.12568 38.8171 1.25 38.8171H38.75C38.8743 38.8171 38.9935 38.7678 39.0815 38.6799C39.1694 38.5919 39.2188 38.4727 39.2188 38.3484V35.4126C39.2188 35.2883 39.1694 35.1691 39.0815 35.0812C38.9935 34.9933 38.8743 34.9439 38.75 34.9439ZM35.37 34.4439C35.372 34.4475 35.3739 34.4513 35.3759 34.4549C35.4036 34.5051 35.4177 34.5617 35.4168 34.619C35.4159 34.6764 35.4001 34.7325 35.371 34.7819C35.3418 34.8313 35.3002 34.8722 35.2504 34.9006C35.2006 34.929 35.1442 34.944 35.0869 34.9439H19.2861C19.2287 34.944 19.1724 34.929 19.1226 34.9006C19.0727 34.8722 19.0312 34.8313 19.002 34.7819C18.9728 34.7325 18.957 34.6764 18.9562 34.619C18.9553 34.5617 18.9694 34.5051 18.997 34.4549C18.999 34.4513 19.001 34.4475 19.0029 34.4439L21.4945 29.6178H32.8784L35.37 34.4439ZM31.1273 26.2264L32.3943 28.6805H21.9787L22.3964 27.8714C22.4506 27.7613 22.4595 27.6342 22.421 27.5176C22.3826 27.401 22.2999 27.3041 22.1907 27.2478C22.0816 27.1915 21.9547 27.1803 21.8374 27.2166C21.7201 27.2528 21.6217 27.3337 21.5634 27.4418L18.1727 34.0093C18.0158 34.2949 17.976 34.6302 18.0618 34.9446H15.6009V19.3155L16.4963 18.4879C16.5876 18.4036 16.6416 18.2864 16.6465 18.1622C16.6514 18.038 16.6068 17.9169 16.5224 17.8256L16.244 17.5243L20.7613 13.3446L20.7854 13.3706C20.8903 13.4848 21.0168 13.577 21.1576 13.642C21.2984 13.7069 21.4507 13.7433 21.6057 13.749C21.6216 13.7498 21.6375 13.7501 21.6534 13.75C21.9501 13.7506 22.236 13.6385 22.4534 13.4365L22.5204 13.3746C22.75 13.1619 22.8859 12.8668 22.8983 12.554C22.9106 12.2412 22.7984 11.9363 22.5862 11.7062L21.2936 10.3078L24.493 7.26207C24.4958 7.25941 24.4985 7.25668 24.5012 7.25426C24.6155 7.13061 24.7649 7.04488 24.9293 7.00857C25.0938 6.97226 25.2654 6.98711 25.4211 7.05113C25.5842 7.12105 25.7224 7.23859 25.8175 7.38836C25.9127 7.53813 25.9604 7.71316 25.9545 7.89051V15.8107H24.4545C24.1342 15.8074 23.8244 15.9247 23.5868 16.1394C23.3491 16.354 23.201 16.6503 23.1719 16.9693C23.1597 17.1341 23.1802 17.2997 23.2323 17.4566C23.2844 17.6134 23.367 17.7585 23.4753 17.8833C23.5836 18.0081 23.7156 18.1103 23.8635 18.1839C24.0115 18.2576 24.1726 18.3012 24.3375 18.3124C24.2866 20.114 23.9564 21.8968 23.3585 23.5971C23.3375 23.6556 23.3283 23.7176 23.3315 23.7796C23.3346 23.8416 23.3501 23.9024 23.3769 23.9584C23.4038 24.0144 23.4415 24.0645 23.4878 24.1058C23.5342 24.1471 23.5883 24.1787 23.647 24.199C23.7057 24.2192 23.7678 24.2275 23.8298 24.2235C23.8918 24.2195 23.9523 24.2033 24.0079 24.1757C24.0635 24.1481 24.1131 24.1097 24.1538 24.0628C24.1945 24.0159 24.2254 23.9614 24.2448 23.9024C24.8757 22.1046 25.2229 20.2197 25.2742 18.3152H25.9545V25.3933C25.9545 25.5176 26.0038 25.6369 26.0917 25.7248C26.1797 25.8127 26.2989 25.8621 26.4232 25.8621H28.0573C28.1015 25.8627 28.1456 25.8567 28.188 25.8443C28.2862 25.8155 28.3722 25.7555 28.4332 25.6734C28.4942 25.5913 28.5268 25.4916 28.526 25.3893L28.466 18.3153H29.0988C29.1722 21.0712 29.8655 23.7752 31.1273 26.2264ZM26.892 24.9246V18.3153H27.5284L27.5845 24.9246H26.892ZM29.9522 16.7486C30.0348 16.7499 30.1135 16.7836 30.1715 16.8424C30.2294 16.9013 30.2619 16.9806 30.2619 17.0632C30.2619 17.1458 30.2294 17.2251 30.1715 17.284C30.1135 17.3428 30.0348 17.3766 29.9522 17.3779H24.4209C24.3383 17.3766 24.2596 17.3428 24.2016 17.284C24.1437 17.2251 24.1112 17.1458 24.1112 17.0632C24.1112 16.9806 24.1437 16.9013 24.2016 16.8424C24.2596 16.7836 24.3383 16.7499 24.4209 16.7486H29.9522ZM23.6965 5.85981C23.6992 5.85723 23.7019 5.85457 23.7043 5.85199C24.4579 5.09848 25.435 5.12043 26.0979 5.39223C26.747 5.65856 27.4433 6.3141 27.4506 7.35441L27.5099 15.8108H26.8917V7.89051C26.8997 7.52722 26.7978 7.16999 26.5994 6.86557C26.401 6.56115 26.1153 6.32372 25.7797 6.18434C25.4537 6.04926 25.0947 6.0154 24.7492 6.08717C24.4037 6.15894 24.0878 6.33302 23.8427 6.58676L20.6577 9.61871L20.2344 9.16059L23.6965 5.85981ZM17.5188 8.09598L17.5858 8.0341C17.6332 7.99038 17.696 7.96726 17.7605 7.96981C17.8249 7.97236 17.8857 8.00037 17.9295 8.0477L21.8983 12.3422C21.942 12.3896 21.9651 12.4524 21.9626 12.5169C21.9601 12.5813 21.9321 12.6421 21.8848 12.686L21.8179 12.7479C21.7946 12.7698 21.7671 12.7868 21.7371 12.7979C21.7071 12.8089 21.6752 12.8138 21.6432 12.8122C21.6113 12.811 21.5799 12.8035 21.5509 12.7901C21.5219 12.7767 21.4959 12.7576 21.4743 12.7341L17.5055 8.43941C17.4839 8.41596 17.467 8.38847 17.4559 8.3585C17.4449 8.32853 17.4398 8.29668 17.4411 8.26476C17.4423 8.23283 17.4498 8.20147 17.4632 8.17246C17.4766 8.14344 17.4953 8.11767 17.5188 8.09598ZM18.8812 11.3097L16.6081 13.4738L16.1701 13.0357L18.4591 10.8532L18.8812 11.3097ZM13.0321 2.12012H14.6634V11.1049L13.0321 12.6143V2.12012ZM13.0321 13.8917L17.4713 9.7841L17.8229 10.1644L15.1757 12.6879C15.1305 12.731 15.0943 12.7827 15.0694 12.84C15.0445 12.8974 15.0313 12.9591 15.0305 13.0216C15.0298 13.0841 15.0416 13.1461 15.0652 13.2039C15.0888 13.2618 15.1237 13.3144 15.1679 13.3586L16.2688 14.4595C16.3554 14.5459 16.4722 14.5951 16.5945 14.5966C16.7168 14.5981 16.8349 14.5517 16.9234 14.4673L19.5177 11.9978L20.125 12.6561L15.6076 16.8358L13.032 14.0486L13.0321 13.8917ZM7.93172 23.9291C7.74348 24.1051 7.52229 24.2422 7.28087 24.3324C7.03946 24.4227 6.78259 24.4643 6.52503 24.4549C6.26748 24.4455 6.01432 24.3853 5.78013 24.2777C5.54594 24.1701 5.33533 24.0172 5.16043 23.8279C4.98552 23.6387 4.84976 23.4166 4.76097 23.1747C4.67218 22.9328 4.6321 22.6756 4.64303 22.4181C4.65397 22.1607 4.71571 21.9079 4.82471 21.6743C4.9337 21.4408 5.08779 21.2311 5.27812 21.0573L9.30094 17.3399L11.9547 20.2117L7.93172 23.9291ZM9.39266 16.0582L11.6687 13.9548L15.5156 18.1175L13.2398 20.221L9.39266 16.0582ZM14.663 20.1818V34.9439H13.0318V21.315C13.0835 21.3369 13.1387 21.3494 13.1948 21.3518C13.201 21.3518 13.2071 21.3521 13.2133 21.3521C13.3312 21.3521 13.4448 21.3077 13.5314 21.2276L14.663 20.1818ZM38.2812 37.8796H1.71875V35.8814H38.2812V37.8796Z" fill="white"/>
<path d="M10.4023 27.474C10.5267 27.474 10.6459 27.4246 10.7338 27.3367C10.8217 27.2488 10.8711 27.1296 10.8711 27.0052V26.5215C10.8711 26.3972 10.8217 26.2779 10.7338 26.19C10.6459 26.1021 10.5267 26.0527 10.4023 26.0527C10.278 26.0527 10.1588 26.1021 10.0709 26.19C9.98298 26.2779 9.93359 26.3972 9.93359 26.5215V27.0052C9.93359 27.1296 9.98298 27.2488 10.0709 27.3367C10.1588 27.4246 10.278 27.474 10.4023 27.474Z" fill="white"/>
<path d="M9.93359 32.7836C9.93359 32.908 9.98298 33.0272 10.0709 33.1151C10.1588 33.203 10.278 33.2524 10.4023 33.2524C10.5267 33.2524 10.6459 33.203 10.7338 33.1151C10.8217 33.0272 10.8711 32.908 10.8711 32.7836V28.7646C10.8711 28.6403 10.8217 28.5211 10.7338 28.4332C10.6459 28.3453 10.5267 28.2959 10.4023 28.2959C10.278 28.2959 10.1588 28.3453 10.0709 28.4332C9.98298 28.5211 9.93359 28.6403 9.93359 28.7646V32.7836Z" fill="white"/>
<path d="M27.2305 32.3145C27.4468 32.3145 27.6583 32.2503 27.8381 32.1301C28.018 32.0099 28.1582 31.8391 28.241 31.6393C28.3237 31.4394 28.3454 31.2195 28.3032 31.0073C28.261 30.7952 28.1568 30.6003 28.0039 30.4473C27.8509 30.2943 27.656 30.1902 27.4438 30.148C27.2317 30.1058 27.0118 30.1274 26.8119 30.2102C26.6121 30.293 26.4412 30.4332 26.321 30.6131C26.2009 30.7929 26.1367 31.0044 26.1367 31.2207C26.137 31.5107 26.2524 31.7887 26.4574 31.9937C26.6625 32.1988 26.9405 32.3141 27.2305 32.3145ZM27.2305 31.0645C27.2614 31.0645 27.2916 31.0736 27.3173 31.0908C27.343 31.108 27.363 31.1324 27.3748 31.1609C27.3867 31.1895 27.3897 31.2209 27.3837 31.2512C27.3777 31.2815 27.3628 31.3093 27.341 31.3312C27.3191 31.353 27.2913 31.3679 27.261 31.374C27.2306 31.38 27.1992 31.3769 27.1707 31.3651C27.1421 31.3532 27.1177 31.3332 27.1006 31.3075C27.0834 31.2818 27.0742 31.2516 27.0742 31.2207C27.0742 31.1793 27.0907 31.1395 27.12 31.1102C27.1493 31.0809 27.189 31.0645 27.2305 31.0645Z" fill="white"/>
<path d="M24.2394 33.6015C24.4965 33.6015 24.7478 33.5253 24.9616 33.3824C25.1754 33.2396 25.3421 33.0366 25.4405 32.799C25.5389 32.5615 25.5646 32.3001 25.5145 32.0479C25.4643 31.7957 25.3405 31.5641 25.1587 31.3823C24.9769 31.2004 24.7453 31.0766 24.4931 31.0265C24.2409 30.9763 23.9795 31.002 23.742 31.1004C23.5044 31.1988 23.3014 31.3654 23.1585 31.5792C23.0157 31.793 22.9395 32.0443 22.9395 32.3015C22.9398 32.6461 23.0769 32.9766 23.3206 33.2203C23.5643 33.464 23.8947 33.6011 24.2394 33.6015ZM24.2394 31.939C24.3111 31.939 24.3812 31.9603 24.4408 32.0001C24.5004 32.0399 24.5469 32.0965 24.5743 32.1628C24.6018 32.229 24.609 32.3019 24.595 32.3722C24.581 32.4426 24.5465 32.5072 24.4958 32.5579C24.4451 32.6086 24.3805 32.6431 24.3102 32.6571C24.2398 32.6711 24.1669 32.6639 24.1007 32.6364C24.0345 32.609 23.9778 32.5625 23.938 32.5029C23.8982 32.4433 23.8769 32.3732 23.877 32.3015C23.877 32.2053 23.9152 32.1132 23.9831 32.0452C24.0511 31.9772 24.1432 31.9391 24.2394 31.939Z" fill="white"/>
</g>
</g>
<defs>
<clipPath id="clip0_69_601">
<rect width="40" height="40" fill="white"/>
</clipPath>
<clipPath id="clip1_69_601">
<rect width="40" height="40" fill="white"/>
</clipPath>
</defs>
</svg>
