<svg width="53" height="53" viewBox="0 0 53 53" fill="none" xmlns="http://www.w3.org/2000/svg">
<path d="M4.67963 9.43149L11.404 2.70711C11.7945 2.31658 12.4277 2.31658 12.8182 2.70711L22.5151 12.404C22.9056 12.7945 22.9056 13.4277 22.5151 13.8182L18.1763 18.157C17.872 18.4614 17.7965 18.9263 17.989 19.3113L19.7936 22.9205C22.0191 27.3716 25.6284 30.9808 30.0795 33.2064L33.6887 35.011C34.0737 35.2035 34.5386 35.128 34.843 34.8237L39.1818 30.4849C39.5723 30.0944 40.2055 30.0944 40.596 30.4849L50.2929 40.1818C50.6834 40.5723 50.6834 41.2055 50.2929 41.596L43.5685 48.3204C41.4572 50.4317 38.1146 50.6693 35.7259 48.8777L20.2952 37.3048C18.5517 35.9971 17.0029 34.4483 15.6952 32.7048L4.12226 17.2741C2.33072 14.8854 2.56827 11.5428 4.67963 9.43149Z" stroke="#1F6BFF" stroke-width="4"/>
</svg>
