<svg width="54" height="64" viewBox="0 0 54 64" fill="none" xmlns="http://www.w3.org/2000/svg">
<path d="M52 26.5455C52 45.6364 27 62 27 62C27 62 2 45.6364 2 26.5455C2 20.0356 4.63392 13.7924 9.32233 9.1892C14.0107 4.58603 20.3696 2 27 2C33.6304 2 39.9893 4.58603 44.6777 9.1892C49.3661 13.7924 52 20.0356 52 26.5455Z" stroke="#1F6BFF" stroke-width="4" stroke-linecap="round" stroke-linejoin="round"/>
<path d="M26.9896 34.7284C31.592 34.7284 35.3229 31.0653 35.3229 26.5466C35.3229 22.0279 31.592 18.3647 26.9896 18.3647C22.3872 18.3647 18.6562 22.0279 18.6562 26.5466C18.6562 31.0653 22.3872 34.7284 26.9896 34.7284Z" stroke="#1F6BFF" stroke-width="4" stroke-linecap="round" stroke-linejoin="round"/>
</svg>
