<svg width="40" height="40" viewBox="0 0 40 40" fill="none" xmlns="http://www.w3.org/2000/svg">
<path d="M31.6673 15.0001C31.6681 12.9916 31.1503 11.0169 30.164 9.2672C29.1778 7.5175 27.7566 6.05204 26.038 5.01268C24.3193 3.97332 22.3614 3.39525 20.3538 3.33445C18.3463 3.27365 16.357 3.73216 14.5786 4.6656C12.8002 5.59905 11.2929 6.97581 10.2026 8.66262C9.11228 10.3494 8.47593 12.2891 8.35511 14.294C8.2343 16.2989 8.63312 18.301 9.51296 20.1065C10.3928 21.912 11.7239 23.4598 13.3773 24.6001L8.33399 33.3334L12.094 33.4884L14.1073 36.6667L19.884 26.6601C19.924 26.6601 19.9607 26.6667 20.0007 26.6667C20.0407 26.6667 20.0773 26.6617 20.1173 26.6601L25.894 36.6667L27.9473 33.5567L31.6673 33.3334L26.624 24.6001C28.18 23.5287 29.4521 22.0951 30.3307 20.4226C31.2093 18.7502 31.668 16.8892 31.6673 15.0001ZM11.6673 15.0001C11.6673 13.3519 12.1561 11.7407 13.0717 10.3703C13.9874 8.99991 15.2889 7.9318 16.8116 7.30107C18.3343 6.67034 20.0099 6.50531 21.6264 6.82686C23.2429 7.1484 24.7278 7.94207 25.8932 9.10751C27.0586 10.273 27.8523 11.7578 28.1739 13.3743C28.4954 14.9908 28.3304 16.6664 27.6996 18.1891C27.0689 19.7118 26.0008 21.0133 24.6304 21.929C23.26 22.8447 21.6488 23.3334 20.0007 23.3334C17.7905 23.3334 15.6709 22.4554 14.1081 20.8926C12.5453 19.3298 11.6673 17.2102 11.6673 15.0001Z" fill="white"/>
<path d="M20 20C22.7614 20 25 17.7614 25 15C25 12.2386 22.7614 10 20 10C17.2386 10 15 12.2386 15 15C15 17.7614 17.2386 20 20 20Z" fill="white"/>
</svg>
