<svg width="40" height="40" viewBox="0 0 40 40" fill="none" xmlns="http://www.w3.org/2000/svg">
<path d="M25.8337 12.4998C25.8337 15.7215 23.222 18.3332 20.0003 18.3332C16.7787 18.3332 14.167 15.7215 14.167 12.4998C14.167 9.27818 16.7787 6.6665 20.0003 6.6665C23.222 6.6665 25.8337 9.27818 25.8337 12.4998Z" fill="#1F6BFF"/>
<path d="M30 27.4998C30 30.7215 25.5228 33.3332 20 33.3332C14.4772 33.3332 10 30.7215 10 27.4998C10 24.2782 14.4772 21.6665 20 21.6665C25.5228 21.6665 30 24.2782 30 27.4998Z" fill="#1F6BFF"/>
<path d="M11.8698 8.3335C12.1655 8.3335 12.4543 8.36252 12.7331 8.41777C12.0538 9.62426 11.6663 11.017 11.6663 12.5002C11.6663 13.9473 12.0352 15.3082 12.684 16.4941C12.4204 16.5432 12.1482 16.5689 11.8698 16.5689C9.5124 16.5689 7.60138 14.7254 7.60138 12.4512C7.60138 10.1771 9.5124 8.3335 11.8698 8.3335Z" fill="#1F6BFF"/>
<path d="M9.07857 31.6434C8.13204 30.512 7.49967 29.1235 7.49967 27.5002C7.49967 25.9264 8.09396 24.5735 8.99264 23.4614C5.81817 23.7076 3.33301 25.4438 3.33301 27.5491C3.33301 29.6742 5.86185 31.4232 9.07857 31.6434Z" fill="#1F6BFF"/>
<path d="M28.3334 12.5002C28.3334 13.9473 27.9645 15.3082 27.3157 16.4941C27.5793 16.5432 27.8515 16.5689 28.1299 16.5689C30.4873 16.5689 32.3983 14.7254 32.3983 12.4512C32.3983 10.1771 30.4873 8.3335 28.1299 8.3335C27.8342 8.3335 27.5454 8.36252 27.2666 8.41777C27.9459 9.62426 28.3334 11.017 28.3334 12.5002Z" fill="#1F6BFF"/>
<path d="M30.9211 31.6434C34.1379 31.4232 36.6667 29.6742 36.6667 27.5491C36.6667 25.4438 34.1815 23.7076 31.0071 23.4614C31.9057 24.5735 32.5 25.9264 32.5 27.5002C32.5 29.1235 31.8677 30.512 30.9211 31.6434Z" fill="#1F6BFF"/>
</svg>
