<svg width="40" height="40" viewBox="0 0 40 40" fill="none" xmlns="http://www.w3.org/2000/svg">
<g clip-path="url(#clip0_69_627)">
<g clip-path="url(#clip1_69_627)">
<path d="M7.50199 37.1704L10.9513 35.4126C11.0067 35.385 11.0561 35.3467 11.0966 35.2999C11.1371 35.2531 11.1679 35.1987 11.1873 35.1399C11.2066 35.0811 11.2142 35.0191 11.2094 34.9573C11.2047 34.8956 11.1878 34.8355 11.1597 34.7803C11.1316 34.7252 11.0928 34.6761 11.0457 34.636C10.9985 34.5959 10.9439 34.5656 10.8849 34.5467C10.826 34.5278 10.7639 34.5208 10.7022 34.5261C10.6405 34.5314 10.5805 34.5488 10.5256 34.5774L7.07621 36.3352C7.02136 36.3632 6.97256 36.4017 6.93258 36.4485C6.89261 36.4953 6.86225 36.5495 6.84323 36.6081C6.82422 36.6666 6.81692 36.7284 6.82176 36.7897C6.8266 36.8511 6.84348 36.9109 6.87144 36.9658C6.8994 37.0206 6.93788 37.0694 6.9847 37.1094C7.03152 37.1494 7.08575 37.1797 7.14431 37.1987C7.20286 37.2177 7.26458 37.225 7.32595 37.2202C7.38732 37.2154 7.44714 37.1984 7.50199 37.1704Z" fill="white"/>
<path d="M12.2488 34.6938C12.3227 34.6938 12.3955 34.6762 12.4612 34.6426L12.8384 34.4504C12.9491 34.3939 13.0329 34.2958 13.0713 34.1775C13.1097 34.0593 13.0996 33.9307 13.0432 33.8199C12.9867 33.7091 12.8886 33.6253 12.7703 33.5869C12.6521 33.5485 12.5234 33.5586 12.4127 33.6151L12.0355 33.8073C11.9416 33.855 11.8665 33.9331 11.8224 34.0288C11.7782 34.1245 11.7677 34.2323 11.7923 34.3347C11.8169 34.4372 11.8754 34.5283 11.9582 34.5935C12.0411 34.6587 12.1434 34.694 12.2488 34.6938Z" fill="white"/>
<path d="M29.8362 23.2178C29.8362 23.0935 29.7868 22.9742 29.6989 22.8863C29.611 22.7984 29.4917 22.749 29.3674 22.749C29.2431 22.749 29.1239 22.7984 29.036 22.8863C28.9481 22.9742 28.8987 23.0935 28.8987 23.2178C28.8987 24.1955 28.2175 24.7395 27.3761 25.3087C26.5346 24.7395 25.8535 24.1955 25.8535 23.2178C25.8535 23.0935 25.8041 22.9742 25.7162 22.8863C25.6283 22.7984 25.5091 22.749 25.3848 22.749C25.2604 22.749 25.1412 22.7984 25.0533 22.8863C24.9654 22.9742 24.916 23.0935 24.916 23.2178C24.916 24.5081 25.6973 25.2643 26.5455 25.8729C25.6971 26.4815 24.916 27.2377 24.916 28.5281C24.916 29.8185 25.6973 30.5745 26.5455 31.1832C25.6971 31.7918 24.916 32.5479 24.916 33.8382C24.916 33.9626 24.9654 34.0818 25.0533 34.1697C25.1412 34.2576 25.2604 34.307 25.3848 34.307C25.5091 34.307 25.6283 34.2576 25.7162 34.1697C25.8041 34.0818 25.8535 33.9626 25.8535 33.8382C25.8535 32.8606 26.5346 32.3166 27.3761 31.7474C28.2175 32.3166 28.8987 32.8606 28.8987 33.8382C28.8987 33.9626 28.9481 34.0818 29.036 34.1697C29.1239 34.2576 29.2431 34.307 29.3674 34.307C29.4917 34.307 29.611 34.2576 29.6989 34.1697C29.7868 34.0818 29.8362 33.9626 29.8362 33.8382C29.8362 32.5479 29.0549 31.7918 28.2066 31.1832C29.055 30.5745 29.8362 29.8183 29.8362 28.5281C29.8362 27.2379 29.0549 26.4812 28.2066 25.8729C29.055 25.2643 29.8362 24.5081 29.8362 23.2178ZM28.8987 28.5281C28.8987 29.5057 28.2175 30.0497 27.3761 30.6189C26.5346 30.0497 25.8535 29.5057 25.8535 28.5281C25.8535 27.5504 26.5346 27.0064 27.3761 26.4371C28.2178 27.0064 28.8987 27.5504 28.8987 28.5281Z" fill="white"/>
<path d="M25.5707 2.87584L25.0923 1.92045C24.971 1.67832 24.8032 1.46244 24.5986 1.28514C24.3939 1.10784 24.1563 0.972597 23.8993 0.88713C23.6423 0.801663 23.3711 0.767647 23.101 0.787024C22.8309 0.806401 22.5672 0.878791 22.3251 1.00006L20.1982 2.06506C20.0759 1.85025 19.876 1.69045 19.6396 1.61851C19.4031 1.54656 19.1481 1.56795 18.9269 1.67827L18.3844 1.94998C18.163 2.06053 17.9927 2.25196 17.9086 2.48465C17.8244 2.71734 17.8331 2.97346 17.9326 3.19998L11.1183 6.61248C10.7413 6.80186 10.4381 7.11118 10.2561 7.49177C10.0742 7.87236 10.0239 8.30263 10.1133 8.71491L8.79 9.37756C8.54137 9.50244 8.35243 9.72085 8.26463 9.98486C8.17682 10.2489 8.19733 10.5369 8.32164 10.7858L8.42649 10.9951C8.55111 11.244 8.76948 11.4332 9.03357 11.5211C9.29766 11.609 9.58585 11.5884 9.83477 11.4639L11.1575 10.8015C11.4341 11.1203 11.8088 11.3379 12.2227 11.4202C12.6366 11.5024 13.066 11.4446 13.4434 11.2558L20.257 7.84303C20.3791 8.0581 20.5792 8.21809 20.8158 8.29C21.0525 8.36191 21.3077 8.34026 21.5289 8.22952L22.0716 7.9578C22.2924 7.84674 22.4623 7.65526 22.5464 7.42275C22.6304 7.19024 22.6221 6.93438 22.5232 6.7078L24.6502 5.64264C25.1387 5.39731 25.5099 4.96825 25.6825 4.44957C25.855 3.93088 25.8148 3.36493 25.5707 2.87584ZM13.0238 10.417C12.7959 10.5309 12.5321 10.5496 12.2903 10.4692C12.0485 10.3888 11.8485 10.2157 11.7341 9.98803C11.7066 9.93299 11.6684 9.88391 11.6219 9.84361C11.5754 9.8033 11.5214 9.77256 11.4629 9.75313C11.4045 9.7337 11.3429 9.72597 11.2815 9.73038C11.2201 9.73478 11.1601 9.75124 11.1051 9.77881L9.41493 10.6251C9.40179 10.6316 9.38748 10.6356 9.37283 10.6366C9.35817 10.6377 9.34345 10.6358 9.32951 10.6312C9.31556 10.6266 9.30267 10.6192 9.29156 10.6096C9.28045 10.6 9.27135 10.5883 9.26477 10.5751L9.15985 10.3658C9.1466 10.3392 9.14442 10.3085 9.15379 10.2803C9.16316 10.2521 9.18332 10.2289 9.20985 10.2155L10.8998 9.3692C11.011 9.31353 11.0955 9.21599 11.1347 9.09804C11.1739 8.98008 11.1647 8.85137 11.1091 8.74022C10.9952 8.51223 10.9765 8.24839 11.057 8.0066C11.1374 7.76481 11.3105 7.5648 11.5382 7.45045L18.3501 4.03912L19.8357 7.00569L13.0238 10.417ZM21.6519 7.11951L21.1093 7.39123C21.1059 7.39293 21.1023 7.39394 21.0985 7.39421C21.0948 7.39449 21.091 7.39402 21.0875 7.39284C21.0839 7.39165 21.0806 7.38978 21.0778 7.38732C21.0749 7.38486 21.0726 7.38186 21.0709 7.3785L18.7914 2.82655C18.7897 2.8232 18.7887 2.81955 18.7885 2.81581C18.7882 2.81208 18.7887 2.80832 18.7898 2.80477C18.791 2.80121 18.7929 2.79792 18.7954 2.79509C18.7978 2.79226 18.8008 2.78994 18.8041 2.78826L19.3466 2.51655C19.3534 2.51315 19.3613 2.51258 19.3685 2.51497C19.3757 2.51736 19.3817 2.5225 19.3851 2.52928L21.6646 7.08131C21.668 7.08807 21.6685 7.09588 21.6661 7.10305C21.6638 7.11021 21.6586 7.11613 21.6519 7.11951ZM24.2305 4.80475L22.1056 5.86873L20.6203 2.90217L22.7449 1.83819C22.877 1.77206 23.0208 1.73259 23.1681 1.72203C23.3154 1.71147 23.4633 1.73003 23.6035 1.77665C23.7436 1.82326 23.8732 1.89703 23.9848 1.99373C24.0964 2.09042 24.1879 2.20816 24.2541 2.34022L24.7325 3.29561C24.8657 3.56236 24.8877 3.87105 24.7936 4.15396C24.6995 4.43688 24.497 4.67092 24.2305 4.80475Z" fill="white"/>
<path d="M9.22474 12.811C9.14398 12.811 9.06459 12.8319 8.99426 12.8716C8.92394 12.9113 8.86506 12.9685 8.82333 13.0376L8.00208 14.3991C7.82194 14.6977 7.75734 15.052 7.82046 15.395C7.88358 15.738 8.07005 16.0461 8.34471 16.261C8.61936 16.476 8.96319 16.583 9.31132 16.5619C9.65945 16.5407 9.9878 16.3929 10.2344 16.1463C10.4604 15.9209 10.6042 15.6263 10.6428 15.3095C10.6814 14.9927 10.6126 14.6722 10.4474 14.3992L9.62615 13.0377C9.58443 12.9685 9.52556 12.9113 9.45523 12.8716C9.3849 12.8319 9.3055 12.811 9.22474 12.811ZM9.57146 15.4835C9.48675 15.5681 9.37398 15.6189 9.25443 15.6262C9.13487 15.6334 9.01679 15.5967 8.92247 15.5228C8.82815 15.449 8.76411 15.3432 8.74244 15.2254C8.72076 15.1076 8.74295 14.9859 8.80482 14.8834L9.22474 14.1873L9.64458 14.8834C9.70136 14.9771 9.72501 15.0873 9.71175 15.1961C9.6985 15.3049 9.64909 15.4061 9.57146 15.4835Z" fill="white"/>
<path d="M12.2451 25.9895H12.4771L14.2662 27.6691V34.8234L7.3982 38.3239C7.31059 38.3668 7.23795 38.435 7.18979 38.5199C7.14163 38.6047 7.12019 38.702 7.12828 38.7992C7.14044 38.9144 7.1948 39.021 7.28087 39.0984C7.36695 39.1759 7.47865 39.2188 7.59445 39.2188H21.6732C21.7702 39.2204 21.8655 39.1928 21.9467 39.1397C22.0278 39.0865 22.0911 39.0101 22.1284 38.9205C22.1704 38.8129 22.1712 38.6937 22.1307 38.5855C22.0902 38.4774 22.0112 38.388 21.9089 38.3345L15.2039 34.8267V28.8263L15.258 28.5997L19.343 32.434C20.2258 34.0798 21.593 35.4146 23.2595 36.2578C24.926 37.1009 26.8113 37.4117 28.6602 37.148C30.5092 36.8843 32.2325 36.0589 33.5968 34.7835C34.9612 33.5081 35.9007 31.8443 36.2883 30.0173C36.3024 29.9564 36.3041 29.8933 36.2935 29.8317C36.2828 29.7701 36.26 29.7113 36.2262 29.6586C36.1925 29.606 36.1485 29.5606 36.097 29.5253C36.0455 29.4899 35.9874 29.4651 35.9261 29.4525C35.8649 29.4399 35.8018 29.4397 35.7404 29.4518C35.6791 29.464 35.6208 29.4883 35.569 29.5233C35.5172 29.5584 35.473 29.6034 35.4388 29.6558C35.4047 29.7082 35.3814 29.7668 35.3703 29.8284C34.9549 31.7961 33.8302 33.5422 32.2103 34.7341C30.5904 35.9259 28.5887 36.4801 26.5865 36.2911C24.5843 36.1021 22.7216 35.1831 21.3534 33.7092C19.9851 32.2353 19.2069 30.3096 19.1671 28.2989C19.1273 26.2882 19.8286 24.3331 21.1374 22.8062C22.4462 21.2793 24.271 20.2872 26.2642 20.0191C28.2573 19.7509 30.2794 20.2255 31.9452 21.3522C33.611 22.479 34.8041 24.1792 35.297 26.1289C35.3223 26.2303 35.3806 26.3203 35.4629 26.3847C35.5451 26.4491 35.6465 26.4842 35.7509 26.4844C35.8221 26.4844 35.8924 26.4682 35.9564 26.437C36.0204 26.4058 36.0765 26.3605 36.1204 26.3044C36.1642 26.2483 36.1947 26.183 36.2096 26.1133C36.2244 26.0437 36.2232 25.9716 36.206 25.9025C35.9117 24.729 35.3863 23.6259 34.6607 22.6578C33.935 21.6897 33.0235 20.876 31.9797 20.2643C30.9358 19.6527 29.7804 19.2553 28.5811 19.0954C27.3818 18.9356 26.1627 19.0165 24.9951 19.3334V19.3317L20.2107 20.0711C20.6525 18.8711 20.8249 17.5886 20.7157 16.3145C20.6065 15.0404 20.2183 13.8059 19.5787 12.6986L19.36 12.3197C19.3292 12.2663 19.2883 12.2195 19.2394 12.182C19.1906 12.1445 19.1348 12.1169 19.0753 12.101C19.0158 12.085 18.9538 12.0809 18.8927 12.089C18.8316 12.097 18.7727 12.117 18.7194 12.1478L18.3405 12.3666C16.8527 13.2276 15.6515 14.5081 14.8871 16.0479C14.1228 17.5877 13.8291 19.3186 14.0427 21.0243L12.2865 21.2957C11.5724 19.8151 10.4554 18.5657 9.06369 17.6909C7.67194 16.8161 6.0618 16.3514 4.41797 16.3499H3.98047C3.85615 16.3499 3.73692 16.3993 3.64901 16.4872C3.5611 16.5751 3.51172 16.6944 3.51172 16.8187V17.2562C3.51172 18.4031 3.73761 19.5387 4.17651 20.5983C4.6154 21.6579 5.2587 22.6206 6.06967 23.4316C6.88063 24.2425 7.84339 24.8858 8.90297 25.3247C9.96255 25.7636 11.0982 25.9895 12.2451 25.9895ZM19.7845 38.2813H9.54664L14.7326 35.6381L19.7845 38.2813ZM22.0441 20.7363C20.5547 21.8073 19.4239 23.3036 18.8002 25.0288C18.1765 26.754 18.0891 28.6275 18.5494 30.4033L15.5087 27.5492L16.1777 24.7463L16.3818 24.6285C17.8253 23.7974 18.9992 22.5687 19.7636 21.0888L22.0441 20.7363ZM15.1391 21.8034L18.5766 21.2722C17.9118 22.3132 17.0078 23.1802 15.9398 23.8009C15.5816 23.1754 15.3121 22.5032 15.1391 21.8034ZM18.7821 13.1945C19.3903 14.2582 19.7389 15.4504 19.7998 16.6741C19.8607 17.8979 19.6321 19.1188 19.1325 20.2377L14.9696 20.881C14.7852 19.3675 15.048 17.8331 15.7255 16.4672C16.403 15.1012 17.4656 13.9635 18.7821 13.1945ZM14.2097 21.9471C14.4051 22.7717 14.7198 23.5633 15.1438 24.2969L15.2693 24.5141L14.8019 26.4724L13.1513 25.2813V25.0835C13.1521 24.0971 12.9849 23.1177 12.657 22.1873L14.2097 21.9471ZM12.1862 24.4309L10.2002 22.5667L11.7122 22.3331C11.9671 23.0068 12.1265 23.7129 12.1862 24.4309ZM11.3112 21.4465L9.10648 21.7872C9.01973 21.8007 8.9385 21.8382 8.87205 21.8956C8.80559 21.953 8.75659 22.0279 8.73061 22.1117C8.70464 22.1956 8.70274 22.2851 8.72513 22.3699C8.74752 22.4548 8.79331 22.5317 8.85727 22.5919L11.4331 25.0096C9.52281 24.8072 7.75418 23.9075 6.4656 22.4828C5.17702 21.0581 4.45895 19.2083 4.44875 17.2873C5.8621 17.294 7.24708 17.6845 8.4558 18.417C9.66453 19.1496 10.6512 20.1967 11.3112 21.4465Z" fill="white"/>
</g>
</g>
<defs>
<clipPath id="clip0_69_627">
<rect width="40" height="40" fill="white"/>
</clipPath>
<clipPath id="clip1_69_627">
<rect width="40" height="40" fill="white"/>
</clipPath>
</defs>
</svg>
