<svg width="40" height="39" viewBox="0 0 40 39" fill="none" xmlns="http://www.w3.org/2000/svg">
<path d="M37.3164 33.9531L30.75 27.3867C31.3906 25.7852 31.0703 23.7031 29.6289 22.4219C28.1875 20.9805 26.1055 20.6602 24.3437 21.4609L27.3867 24.5039L25.1445 26.7461L21.9414 23.543C21.1406 25.3047 21.4609 27.3867 22.9023 28.9883C24.3437 30.4297 26.2656 30.75 27.8672 30.1094L34.4336 36.6758C34.7539 36.9961 35.2344 36.9961 35.3945 36.6758L36.9961 35.0742C37.4766 34.5938 37.4766 34.1133 37.3164 33.9531ZM16.6562 19.2188C20.1797 19.2188 23.0625 16.3359 23.0625 12.8125C23.0625 9.28906 20.1797 6.40625 16.6562 6.40625C13.1328 6.40625 10.25 9.28906 10.25 12.8125C10.25 16.3359 13.1328 19.2188 16.6562 19.2188ZM16.6562 9.60938C18.418 9.60938 19.8594 11.0508 19.8594 12.8125C19.8594 14.5742 18.418 16.0156 16.6562 16.0156C14.8945 16.0156 13.4531 14.5742 13.4531 12.8125C13.4531 11.0508 14.8945 9.60938 16.6562 9.60938ZM21.4609 32.0313H3.84375V27.2266C3.84375 22.9023 12.332 20.8203 16.6562 20.8203C17.457 20.8203 18.5781 20.9805 19.6992 21.1406C19.0586 21.9414 18.7383 22.9023 18.418 24.0234C17.7773 24.0234 17.2969 23.8633 16.6562 23.8633C11.8516 23.8633 6.88672 26.2656 6.88672 27.2266V28.9883H19.0586C19.5391 30.2695 20.5 31.2305 21.4609 32.0313Z" fill="white"/>
</svg>
