<svg width="16" height="17" viewBox="0 0 16 17" fill="none" xmlns="http://www.w3.org/2000/svg">
<path d="M8.55069 15.4836L8.78809 15.9236H8.78809L8.55069 15.4836ZM7.44956 15.4836L7.21216 15.9236H7.21216L7.44956 15.4836ZM13.9583 7.45813C13.9583 9.50415 12.9584 11.1827 11.728 12.4749C10.4972 13.7677 9.07096 14.6348 8.31329 15.0435L8.78809 15.9236C9.59213 15.4898 11.1197 14.564 12.4522 13.1645C13.7852 11.7645 14.9583 9.85163 14.9583 7.45813H13.9583ZM8.00013 1.5C11.2907 1.5 13.9583 4.16755 13.9583 7.45813H14.9583C14.9583 3.61526 11.843 0.5 8.00013 0.5V1.5ZM2.04199 7.45813C2.04199 4.16755 4.70954 1.5 8.00013 1.5V0.5C4.15726 0.5 1.04199 3.61526 1.04199 7.45813H2.04199ZM7.68696 15.0435C6.92929 14.6348 5.50311 13.7677 4.27225 12.4749C3.04186 11.1827 2.04199 9.50415 2.04199 7.45813H1.04199C1.04199 9.85163 2.21505 11.7645 3.54802 13.1645C4.88052 14.564 6.40812 15.4898 7.21216 15.9236L7.68696 15.0435ZM8.31329 15.0435C8.11453 15.1507 7.88573 15.1507 7.68696 15.0435L7.21216 15.9236C7.70727 16.1907 8.29298 16.1907 8.78809 15.9236L8.31329 15.0435ZM10.2675 7.4582C10.2675 8.71066 9.25216 9.72598 7.99971 9.72598V10.726C9.80445 10.726 11.2675 9.26294 11.2675 7.4582H10.2675ZM7.99971 5.19043C9.25216 5.19043 10.2675 6.20575 10.2675 7.4582H11.2675C11.2675 5.65346 9.80445 4.19043 7.99971 4.19043V5.19043ZM5.73193 7.4582C5.73193 6.20575 6.74725 5.19043 7.99971 5.19043V4.19043C6.19496 4.19043 4.73193 5.65346 4.73193 7.4582H5.73193ZM7.99971 9.72598C6.74725 9.72598 5.73193 8.71066 5.73193 7.4582H4.73193C4.73193 9.26294 6.19496 10.726 7.99971 10.726V9.72598Z" fill="url(#paint0_linear_113_137)"/>
<defs>
<linearGradient id="paint0_linear_113_137" x1="1.54199" y1="8.31197" x2="14.4583" y2="8.31197" gradientUnits="userSpaceOnUse">
<stop stop-color="#1F6BFF"/>
<stop offset="0.516385" stop-color="#4F84EB"/>
<stop offset="1" stop-color="#125EF4"/>
</linearGradient>
</defs>
</svg>
