<svg width="45" height="45" viewBox="0 0 45 45" fill="none" xmlns="http://www.w3.org/2000/svg">
<path d="M23.0685 36.5281L23.8251 38.0505L23.8251 38.0505L23.0685 36.5281ZM22.2752 36.5281L21.5187 38.0505L21.5187 38.0505L22.2752 36.5281ZM33.8234 20.1948C33.8234 24.3686 31.5987 27.7701 28.9271 30.3487C26.2616 32.9215 23.3209 34.5044 22.3119 35.0058L23.8251 38.0505C24.9809 37.4761 28.2676 35.7107 31.2884 32.795C34.3031 29.8852 37.2234 25.6579 37.2234 20.1948H33.8234ZM22.6719 9.04326C28.8307 9.04326 33.8234 14.036 33.8234 20.1948H37.2234C37.2234 12.1582 30.7085 5.64326 22.6719 5.64326V9.04326ZM11.5203 20.1948C11.5203 14.036 16.513 9.04326 22.6719 9.04326V5.64326C14.6353 5.64326 8.12031 12.1582 8.12031 20.1948H11.5203ZM23.0318 35.0058C22.0229 34.5044 19.0822 32.9215 16.4166 30.3487C13.7451 27.7701 11.5203 24.3686 11.5203 20.1948H8.12031C8.12031 25.6579 11.0407 29.8852 14.0554 32.795C17.0761 35.7107 20.3629 37.4761 21.5187 38.0505L23.0318 35.0058ZM22.312 35.0058C22.4118 34.9562 22.5354 34.9232 22.6719 34.9232C22.8083 34.9232 22.932 34.9562 23.0318 35.0058L21.5187 38.0505C22.2503 38.4141 23.0934 38.4141 23.8251 38.0505L22.312 35.0058ZM26.4784 20.1945C26.4784 22.2975 24.7736 24.0023 22.6706 24.0023V27.4023C26.6513 27.4023 29.8784 24.1753 29.8784 20.1945H26.4784ZM22.6706 16.3867C24.7736 16.3867 26.4784 18.0915 26.4784 20.1945H29.8784C29.8784 16.2137 26.6513 12.9867 22.6706 12.9867V16.3867ZM18.8628 20.1945C18.8628 18.0915 20.5676 16.3867 22.6706 16.3867V12.9867C18.6898 12.9867 15.4628 16.2137 15.4628 20.1945H18.8628ZM22.6706 24.0023C20.5676 24.0023 18.8628 22.2975 18.8628 20.1945H15.4628C15.4628 24.1753 18.6898 27.4023 22.6706 27.4023V24.0023Z" fill="white"/>
</svg>
