<svg width="38" height="56" viewBox="0 0 38 56" fill="none" xmlns="http://www.w3.org/2000/svg">
<path fill-rule="evenodd" clip-rule="evenodd" d="M18.999 28.0013C18.999 22.8466 23.1777 18.668 28.3324 18.668C33.487 18.668 37.6657 22.8466 37.6657 28.0013C37.6657 33.156 33.487 37.3346 28.3324 37.3346C23.1777 37.3346 18.999 33.156 18.999 28.0013Z" fill="#1ABCFE"/>
<path fill-rule="evenodd" clip-rule="evenodd" d="M0.333984 46.6673C0.333984 41.5127 4.51265 37.334 9.66732 37.334H19.0007V46.6673C19.0007 51.822 14.822 56.0007 9.66732 56.0007C4.51265 56.0007 0.333984 51.822 0.333984 46.6673Z" fill="#0ACF83"/>
<path fill-rule="evenodd" clip-rule="evenodd" d="M19.001 0.000976562V18.6676H28.3343C33.489 18.6676 37.6676 14.489 37.6676 9.33431C37.6676 4.17964 33.489 0.000976562 28.3343 0.000976562H19.001Z" fill="#FF7262"/>
<path fill-rule="evenodd" clip-rule="evenodd" d="M0.333984 9.33431C0.333984 14.489 4.51265 18.6676 9.66732 18.6676H19.0007V0.000976562H9.66732C4.51265 0.000976562 0.333984 4.17964 0.333984 9.33431Z" fill="#F24E1E"/>
<path fill-rule="evenodd" clip-rule="evenodd" d="M0.333984 28.0013C0.333984 33.156 4.51265 37.3346 9.66732 37.3346H19.0007V18.668H9.66732C4.51265 18.668 0.333984 22.8466 0.333984 28.0013Z" fill="#A259FF"/>
</svg>
