<svg width="40" height="40" viewBox="0 0 40 40" fill="none" xmlns="http://www.w3.org/2000/svg">
<path d="M11.1855 11.3033C11.3099 11.3033 11.4291 11.2539 11.517 11.166C11.6049 11.0781 11.6543 10.9589 11.6543 10.8345V5.5957C11.6543 5.47138 11.6049 5.35215 11.517 5.26425C11.4291 5.17634 11.3099 5.12695 11.1855 5.12695C11.0612 5.12695 10.942 5.17634 10.8541 5.26425C10.7662 5.35215 10.7168 5.47138 10.7168 5.5957V10.8345C10.7168 10.9589 10.7662 11.0781 10.8541 11.166C10.942 11.2539 11.0612 11.3033 11.1855 11.3033Z" fill="#1F6BFF"/>
<path d="M11.1855 4.36426C11.3099 4.36426 11.4291 4.31487 11.517 4.22696C11.6049 4.13906 11.6543 4.01983 11.6543 3.89551V3.35645C11.6543 3.23213 11.6049 3.1129 11.517 3.02499C11.4291 2.93708 11.3099 2.8877 11.1855 2.8877C11.0612 2.8877 10.942 2.93708 10.8541 3.02499C10.7662 3.1129 10.7168 3.23213 10.7168 3.35645V3.89551C10.7168 4.01983 10.7662 4.13906 10.8541 4.22696C10.942 4.31487 11.0612 4.36426 11.1855 4.36426Z" fill="#1F6BFF"/>
<path d="M15.2745 12.6012C15.5105 12.7779 15.7974 12.8734 16.0923 12.8733C16.1599 12.8733 16.2275 12.8684 16.2945 12.8586C16.3006 12.8577 16.3064 12.856 16.3124 12.8551C16.697 13.4139 17.1296 13.9382 17.6051 14.422C17.2596 15.0736 16.9778 15.757 16.7635 16.4628C16.3285 17.9538 16.4744 19.0617 17.1737 19.5823C17.4519 19.7827 17.7883 19.8861 18.1311 19.8766C18.267 19.8759 18.4026 19.8635 18.5364 19.8396C18.7316 20.0631 18.9939 20.2173 19.2841 20.2793C19.5742 20.3412 19.8767 20.3075 20.1461 20.1832C20.4155 20.0588 20.6374 19.8506 20.7785 19.5896C20.9197 19.3287 20.9725 19.029 20.9291 18.7355C20.9241 18.7005 20.9165 18.6662 20.9088 18.6321C21.2878 18.3376 21.65 18.022 21.9935 17.6868C22.6458 18.0328 23.33 18.315 24.0366 18.5295C24.5276 18.682 25.0376 18.7648 25.5517 18.7754C26.2809 18.7754 26.8322 18.5546 27.1561 18.1191C27.3794 17.8192 27.576 17.2988 27.3484 16.4718C27.5468 16.2653 27.6757 16.002 27.7171 15.7186C27.7585 15.4352 27.7102 15.146 27.5791 14.8914C27.448 14.6368 27.2406 14.4296 26.9859 14.2987C26.7312 14.1678 26.4419 14.1198 26.1586 14.1615C26.1209 14.1669 26.0841 14.1748 26.0474 14.1833C25.807 13.8857 25.5428 13.5881 25.2567 13.2934C26.3684 11.1455 26.8055 9.03326 25.7347 8.17217C25.6742 7.83747 25.4916 7.53714 25.2223 7.32938C24.953 7.12161 24.6162 7.0212 24.2771 7.0476C23.938 7.074 23.6208 7.22533 23.3869 7.47227C23.153 7.71921 23.0191 8.04417 23.0112 8.3842C22.321 8.76701 21.5897 9.33303 20.8666 10.0361C18.6901 8.90975 16.5488 8.4742 15.7103 9.6003C15.5675 9.80583 15.4757 10.0424 15.4426 10.2905C15.2392 10.4001 15.0668 10.5591 14.9412 10.753C14.8157 10.9469 14.7411 11.1693 14.7243 11.3997C14.7076 11.6301 14.7492 11.8609 14.8453 12.071C14.9415 12.281 15.0891 12.4633 15.2744 12.6012L15.2745 12.6012ZM19.6323 19.3669C19.5753 19.3759 19.517 19.3734 19.4608 19.3598C19.4047 19.3461 19.3518 19.3214 19.3053 19.2871C19.2587 19.2529 19.2194 19.2098 19.1897 19.1602C19.1599 19.1107 19.1403 19.0557 19.1319 18.9986C19.1235 18.9414 19.1265 18.8831 19.1408 18.8271C19.1551 18.7711 19.1804 18.7185 19.2151 18.6724C19.2499 18.6262 19.2934 18.5874 19.3433 18.5581C19.3931 18.5289 19.4483 18.5099 19.5055 18.5021C19.5268 18.499 19.5483 18.4974 19.5698 18.4974C19.6802 18.4976 19.7864 18.5395 19.8671 18.6148C19.9478 18.69 19.997 18.793 20.0049 18.9031C20.0129 19.0132 19.9788 19.1221 19.9097 19.2082C19.8406 19.2942 19.7415 19.3509 19.6323 19.3669ZM20.3997 17.8402C20.3962 17.8376 20.3931 17.8345 20.3895 17.8319C20.1851 17.6793 19.9421 17.5867 19.6879 17.5645C19.4338 17.5423 19.1784 17.5913 18.9506 17.7062C18.7228 17.821 18.5315 17.9971 18.3981 18.2146C18.2648 18.4321 18.1947 18.6825 18.1958 18.9376C18.034 18.9565 17.8707 18.9186 17.7338 18.8304C17.3872 18.5726 17.3604 17.7658 17.6635 16.7255C17.832 16.1672 18.0483 15.6246 18.3101 15.1035C18.7319 15.4871 19.1891 15.863 19.6737 16.2237C20.1567 16.583 20.6481 16.9122 21.1378 17.2068C20.8911 17.4365 20.6442 17.6486 20.3997 17.8405V17.8402ZM26.0073 15.2605C26.0676 15.1793 26.1543 15.1215 26.2526 15.097C26.3508 15.0725 26.4545 15.0828 26.5459 15.1262C26.6374 15.1696 26.711 15.2433 26.7541 15.3349C26.7973 15.4265 26.8074 15.5302 26.7827 15.6284C26.7579 15.7265 26.6999 15.8131 26.6185 15.8733C26.5371 15.9334 26.4374 15.9635 26.3363 15.9584C26.2352 15.9533 26.139 15.9133 26.0641 15.8452C25.9892 15.777 25.9402 15.6851 25.9255 15.5849C25.917 15.5281 25.9199 15.4702 25.9339 15.4145C25.948 15.3589 25.9729 15.3065 26.0073 15.2605ZM25.2577 14.698C25.2569 14.6991 25.256 14.7 25.2553 14.701C25.1034 14.9054 25.0112 15.148 24.989 15.4017C24.9669 15.6554 25.0156 15.9103 25.1298 16.138C25.2441 16.3656 25.4193 16.5571 25.6359 16.691C25.8526 16.8249 26.1022 16.896 26.3569 16.8963C26.3987 16.8963 26.4409 16.8937 26.4833 16.8897C26.5386 17.1799 26.5137 17.412 26.4039 17.5596C26.1461 17.9062 25.3394 17.9331 24.299 17.6299C23.7401 17.4612 23.1968 17.2446 22.6752 16.9824C23.0622 16.5576 23.4396 16.1002 23.7972 15.6197C24.1487 15.1469 24.4762 14.6567 24.7784 14.151C24.9475 14.3328 25.1072 14.5151 25.2573 14.6978L25.2577 14.698ZM24.3202 7.986C24.4343 7.97053 24.5498 8.00067 24.6418 8.06988C24.7337 8.13909 24.7947 8.24178 24.8114 8.35566C24.8281 8.46954 24.7992 8.5854 24.731 8.6781C24.6627 8.7708 24.5607 8.83284 24.447 8.85076C24.3899 8.85976 24.3316 8.85735 24.2755 8.84367C24.2194 8.82998 24.1665 8.8053 24.1199 8.77105C24.0734 8.7368 24.0341 8.69366 24.0044 8.64412C23.9746 8.59459 23.955 8.53964 23.9466 8.48246C23.9382 8.42529 23.9412 8.36702 23.9555 8.31103C23.9698 8.25503 23.995 8.20243 24.0298 8.15626C24.0645 8.11009 24.1081 8.07126 24.158 8.04204C24.2078 8.01281 24.263 7.99377 24.3202 7.986ZM23.3208 9.28826C23.3917 9.3754 23.4731 9.45355 23.563 9.521C23.799 9.69771 24.0859 9.7932 24.3808 9.79319C24.4485 9.79316 24.5161 9.7882 24.583 9.77834C24.8889 9.7335 25.1706 9.5863 25.3821 9.36076C25.5087 10.0101 25.2698 11.1785 24.5584 12.619C24.1348 12.2337 23.6776 11.8571 23.1926 11.4961C22.7204 11.145 22.231 10.8178 21.726 10.5158C22.2129 10.0515 22.7475 9.64 23.3208 9.28803V9.28826ZM21.0448 11.1945C21.5933 11.5157 22.1235 11.8673 22.6328 12.2477C23.1441 12.6272 23.6336 13.0353 24.0989 13.4701C23.7775 14.019 23.4256 14.5496 23.0449 15.0593C22.6653 15.57 22.2571 16.0589 21.8223 16.5236C21.2734 16.203 20.7429 15.8517 20.2333 15.4715C19.7227 15.0918 19.2339 14.6835 18.7694 14.2485C19.4127 13.1496 20.1758 12.1253 21.0448 11.1946V11.1945ZM16.4625 10.1599C16.8227 9.67553 18.2647 9.78256 20.1924 10.7344C19.8085 11.1568 19.4313 11.6136 19.0692 12.1001C18.7098 12.5832 18.3807 13.0745 18.0861 13.5641C17.7417 13.1978 17.4237 12.8073 17.1348 12.3958C17.1562 12.3708 17.178 12.3458 17.1979 12.3191C17.3317 12.1395 17.4195 11.9298 17.4537 11.7085C17.4879 11.4871 17.4675 11.2607 17.3942 11.0491C17.3209 10.8374 17.197 10.6469 17.0332 10.4941C16.8694 10.3413 16.6707 10.2309 16.4545 10.1724C16.4572 10.1685 16.4598 10.1636 16.4625 10.1601V10.1599ZM16.0318 11.0662C16.0529 11.063 16.0741 11.0614 16.0955 11.0615C16.2087 11.0614 16.3176 11.1053 16.3992 11.1839C16.4808 11.2625 16.5287 11.3696 16.5329 11.4828C16.537 11.596 16.4972 11.7064 16.4216 11.7908C16.3461 11.8752 16.2407 11.927 16.1278 11.9353C16.0148 11.9436 15.903 11.9078 15.8159 11.8354C15.7289 11.7629 15.6732 11.6596 15.6608 11.547C15.6484 11.4344 15.6801 11.3214 15.7493 11.2317C15.8185 11.142 15.9197 11.0827 16.0318 11.0662Z" fill="#1F6BFF"/>
<path d="M13.1387 26.1514H13.3737C13.4981 26.1514 13.6173 26.102 13.7052 26.0141C13.7931 25.9262 13.8425 25.8069 13.8425 25.6826C13.8425 25.5583 13.7931 25.4391 13.7052 25.3512C13.6173 25.2633 13.4981 25.2139 13.3737 25.2139H13.1387C13.0144 25.2139 12.8951 25.2633 12.8072 25.3512C12.7193 25.4391 12.6699 25.5583 12.6699 25.6826C12.6699 25.8069 12.7193 25.9262 12.8072 26.0141C12.8951 26.102 13.0144 26.1514 13.1387 26.1514Z" fill="#1F6BFF"/>
<path d="M16.5302 25.2139H15.7207C15.5964 25.2139 15.4772 25.2633 15.3892 25.3512C15.3013 25.4391 15.252 25.5583 15.252 25.6826C15.252 25.8069 15.3013 25.9262 15.3892 26.0141C15.4772 26.102 15.5964 26.1514 15.7207 26.1514H16.5302C16.6545 26.1514 16.7737 26.102 16.8616 26.0141C16.9495 25.9262 16.9989 25.8069 16.9989 25.6826C16.9989 25.5583 16.9495 25.4391 16.8616 25.3512C16.7737 25.2633 16.6545 25.2139 16.5302 25.2139Z" fill="#1F6BFF"/>
<path d="M18.4453 25.6826C18.4453 25.8069 18.4947 25.9262 18.5826 26.0141C18.6705 26.102 18.7897 26.1514 18.9141 26.1514H30.1553C30.2796 26.1514 30.3989 26.102 30.4868 26.0141C30.5747 25.9262 30.6241 25.8069 30.6241 25.6826C30.6241 25.5583 30.5747 25.4391 30.4868 25.3512C30.3989 25.2633 30.2796 25.2139 30.1553 25.2139H18.9141C18.7897 25.2139 18.6705 25.2633 18.5826 25.3512C18.4947 25.4391 18.4453 25.5583 18.4453 25.6826Z" fill="#1F6BFF"/>
<path d="M13.1387 29.0952H13.3737C13.4981 29.0952 13.6173 29.0458 13.7052 28.9579C13.7931 28.87 13.8425 28.7508 13.8425 28.6265C13.8425 28.5021 13.7931 28.3829 13.7052 28.295C13.6173 28.2071 13.4981 28.1577 13.3737 28.1577H13.1387C13.0144 28.1577 12.8951 28.2071 12.8072 28.295C12.7193 28.3829 12.6699 28.5021 12.6699 28.6265C12.6699 28.7508 12.7193 28.87 12.8072 28.9579C12.8951 29.0458 13.0144 29.0952 13.1387 29.0952Z" fill="#1F6BFF"/>
<path d="M16.5302 28.1577H15.7207C15.5964 28.1577 15.4772 28.2071 15.3892 28.295C15.3013 28.3829 15.252 28.5021 15.252 28.6265C15.252 28.7508 15.3013 28.87 15.3892 28.9579C15.4772 29.0458 15.5964 29.0952 15.7207 29.0952H16.5302C16.6545 29.0952 16.7737 29.0458 16.8616 28.9579C16.9495 28.87 16.9989 28.7508 16.9989 28.6265C16.9989 28.5021 16.9495 28.3829 16.8616 28.295C16.7737 28.2071 16.6545 28.1577 16.5302 28.1577Z" fill="#1F6BFF"/>
<path d="M30.1553 28.1577H18.9141C18.7897 28.1577 18.6705 28.2071 18.5826 28.295C18.4947 28.3829 18.4453 28.5021 18.4453 28.6265C18.4453 28.7508 18.4947 28.87 18.5826 28.9579C18.6705 29.0458 18.7897 29.0952 18.9141 29.0952H30.1553C30.2796 29.0952 30.3989 29.0458 30.4868 28.9579C30.5747 28.87 30.6241 28.7508 30.6241 28.6265C30.6241 28.5021 30.5747 28.3829 30.4868 28.295C30.3989 28.2071 30.2796 28.1577 30.1553 28.1577Z" fill="#1F6BFF"/>
<path d="M13.1387 32.0391H13.3737C13.4981 32.0391 13.6173 31.9897 13.7052 31.9018C13.7931 31.8139 13.8425 31.6946 13.8425 31.5703C13.8425 31.446 13.7931 31.3268 13.7052 31.2389C13.6173 31.1509 13.4981 31.1016 13.3737 31.1016H13.1387C13.0144 31.1016 12.8951 31.1509 12.8072 31.2389C12.7193 31.3268 12.6699 31.446 12.6699 31.5703C12.6699 31.6946 12.7193 31.8139 12.8072 31.9018C12.8951 31.9897 13.0144 32.0391 13.1387 32.0391Z" fill="#1F6BFF"/>
<path d="M16.5302 31.1016H15.7207C15.5964 31.1016 15.4772 31.1509 15.3892 31.2389C15.3013 31.3268 15.252 31.446 15.252 31.5703C15.252 31.6946 15.3013 31.8139 15.3892 31.9018C15.4772 31.9897 15.5964 32.0391 15.7207 32.0391H16.5302C16.6545 32.0391 16.7737 31.9897 16.8616 31.9018C16.9495 31.8139 16.9989 31.6946 16.9989 31.5703C16.9989 31.446 16.9495 31.3268 16.8616 31.2389C16.7737 31.1509 16.6545 31.1016 16.5302 31.1016Z" fill="#1F6BFF"/>
<path d="M30.1553 31.1016H18.9141C18.7897 31.1016 18.6705 31.1509 18.5826 31.2389C18.4947 31.3268 18.4453 31.446 18.4453 31.5703C18.4453 31.6946 18.4947 31.8139 18.5826 31.9018C18.6705 31.9897 18.7897 32.0391 18.9141 32.0391H30.1553C30.2796 32.0391 30.3989 31.9897 30.4868 31.9018C30.5747 31.8139 30.6241 31.6946 30.6241 31.5703C30.6241 31.446 30.5747 31.3268 30.4868 31.2389C30.3989 31.1509 30.2796 31.1016 30.1553 31.1016Z" fill="#1F6BFF"/>
<path d="M8.44469 39.2188H31.5552C32.5114 39.2177 33.4282 38.8373 34.1044 38.1612C34.7805 37.485 35.1609 36.5682 35.162 35.612V4.38805C35.1609 3.43179 34.7805 2.51502 34.1044 1.83884C33.4282 1.16267 32.5114 0.782325 31.5552 0.78125H8.44469C7.48844 0.782325 6.57166 1.16267 5.89548 1.83884C5.21931 2.51502 4.83897 3.43179 4.83789 4.38805V35.612C4.83897 36.5682 5.21931 37.485 5.89548 38.1612C6.57166 38.8373 7.48844 39.2177 8.44469 39.2188ZM5.77539 4.38805C5.77539 3.68011 6.05662 3.00116 6.55721 2.50057C7.0578 1.99998 7.73675 1.71875 8.44469 1.71875H8.46867V6.95312C8.46867 7.07745 8.51806 7.19667 8.60597 7.28458C8.69387 7.37249 8.8131 7.42188 8.93742 7.42188C9.06174 7.42188 9.18097 7.37249 9.26888 7.28458C9.35679 7.19667 9.40617 7.07745 9.40617 6.95312V1.71875H31.5552C32.2631 1.71875 32.942 1.99998 33.4426 2.50057C33.9432 3.00116 34.2245 3.68011 34.2245 4.38805V35.612C34.2245 36.3199 33.9432 36.9988 33.4426 37.4994C32.942 38 32.2631 38.2812 31.5552 38.2812H9.40617V10.8594C9.40617 10.7351 9.35679 10.6158 9.26888 10.5279C9.18097 10.44 9.06174 10.3906 8.93742 10.3906C8.8131 10.3906 8.69387 10.44 8.60597 10.5279C8.51806 10.6158 8.46867 10.7351 8.46867 10.8594V38.2812H8.44469C7.73675 38.2812 7.0578 38 6.55721 37.4994C6.05662 36.9988 5.77539 36.3199 5.77539 35.612V4.38805Z" fill="#1F6BFF"/>
</svg>
