<svg width="82" height="90" viewBox="0 0 82 90" fill="none" xmlns="http://www.w3.org/2000/svg">
<path d="M13.6641 53.751C13.6641 44.3229 13.6641 39.6088 16.593 36.6799C19.5219 33.751 24.236 33.751 33.6641 33.751H48.3307C57.7588 33.751 62.4729 33.751 65.4018 36.6799C68.3307 39.6088 68.3307 44.3229 68.3307 53.751V58.751C68.3307 68.1791 68.3307 72.8931 65.4018 75.822C62.4729 78.751 57.7588 78.751 48.3307 78.751H33.6641C24.236 78.751 19.5219 78.751 16.593 75.822C13.6641 72.8931 13.6641 68.1791 13.6641 58.751V53.751Z" stroke="white" stroke-width="6"/>
<path d="M54.6615 30.001V24.9176C54.6615 19.6169 54.6615 16.9665 53.4551 15.0264C52.8071 13.9844 51.9281 13.1054 50.886 12.4574C48.946 11.251 46.2956 11.251 40.9948 11.251V11.251C35.694 11.251 33.0436 11.251 31.1036 12.4574C30.0615 13.1054 29.1825 13.9844 28.5345 15.0264C27.3281 16.9665 27.3281 19.6169 27.3281 24.9176V30.001" stroke="white" stroke-width="6" stroke-linecap="round"/>
<ellipse cx="40.9974" cy="56.2515" rx="6.83333" ry="7.5" fill="white"/>
</svg>
