<svg width="40" height="40" viewBox="0 0 40 40" fill="none" xmlns="http://www.w3.org/2000/svg">
<g clip-path="url(#clip0_69_591)">
<g clip-path="url(#clip1_69_591)">
<path d="M17.7166 20.1455C17.8204 20.0771 17.8928 19.9703 17.9179 19.8485C17.943 19.7267 17.9187 19.6 17.8503 19.4961C17.7819 19.3923 17.6751 19.3199 17.5533 19.2948C17.4315 19.2697 17.3048 19.294 17.201 19.3624C15.819 20.2726 15.1295 20.2718 13.6885 19.358C13.5835 19.2915 13.4564 19.2693 13.3351 19.2965C13.2138 19.3237 13.1082 19.3979 13.0416 19.5029C12.975 19.6079 12.9529 19.7351 12.9801 19.8564C13.0073 19.9777 13.0815 20.0833 13.1865 20.1498C14.0578 20.7022 14.7683 20.9784 15.4713 20.9784C16.1761 20.9784 16.8732 20.7009 17.7166 20.1455Z" fill="white"/>
<path d="M3.44727 31.4844C3.32295 31.4844 3.20372 31.5338 3.11581 31.6217C3.0279 31.7096 2.97852 31.8288 2.97852 31.9531V36.2668C2.97852 36.3911 3.0279 36.5103 3.11581 36.5983C3.20372 36.6862 3.32295 36.7355 3.44727 36.7355C3.57159 36.7355 3.69081 36.6862 3.77872 36.5983C3.86663 36.5103 3.91602 36.3911 3.91602 36.2668V31.9531C3.91602 31.8288 3.86663 31.7096 3.77872 31.6217C3.69081 31.5338 3.57159 31.4844 3.44727 31.4844Z" fill="white"/>
<path d="M3.44727 29.147C3.32295 29.147 3.20372 29.1964 3.11581 29.2843C3.0279 29.3722 2.97852 29.4914 2.97852 29.6157V30.1445C2.97852 30.2688 3.0279 30.388 3.11581 30.4759C3.20372 30.5638 3.32295 30.6132 3.44727 30.6132C3.57159 30.6132 3.69081 30.5638 3.77872 30.4759C3.86663 30.388 3.91602 30.2688 3.91602 30.1445V29.6157C3.91602 29.4914 3.86663 29.3722 3.77872 29.2843C3.69081 29.1964 3.57159 29.147 3.44727 29.147Z" fill="white"/>
<path d="M34.2969 22.5382C33.8018 22.2973 33.3847 21.9216 33.0935 21.4543C32.8024 20.987 32.649 20.447 32.651 19.8964V12.6599C32.9802 12.6326 33.2861 12.4791 33.5046 12.2315C33.7232 11.9838 33.8375 11.6613 33.8237 11.3312C33.8099 11.0012 33.669 10.6893 33.4305 10.4608C33.192 10.2323 32.8744 10.1049 32.5441 10.1052H28.6691C28.3299 10.1057 28.0047 10.2406 27.7648 10.4805C27.525 10.7203 27.39 11.0455 27.3895 11.3847V11.3991C27.3905 11.7196 27.5114 12.0282 27.7284 12.2641C27.9454 12.5001 28.2428 12.6463 28.5622 12.6741V19.8969C28.5609 20.4508 28.4038 20.9932 28.1089 21.4621C27.814 21.931 27.3932 22.3075 26.8945 22.5486C25.4421 23.2422 24.2132 24.3293 23.3477 25.6863H20.3672C20.0882 25.686 19.8208 25.5751 19.6236 25.3778C19.4263 25.1806 19.3154 24.9132 19.3151 24.6342V23.0158C20.2884 22.4204 21.1107 21.6079 21.7176 20.6418C22.3246 19.6756 22.6996 18.5821 22.8135 17.4469C23.8965 16.7944 24.6495 15.3776 24.6495 13.7377V10.3566C24.6493 10.2438 24.6085 10.1348 24.5345 10.0496C24.4604 9.96446 24.3581 9.90886 24.2464 9.89305V5.83055C24.245 4.56746 23.7426 3.35651 22.8494 2.46337C21.9563 1.57023 20.7454 1.06783 19.4823 1.06641H12.5243C11.9165 1.06718 11.3281 1.28114 10.8618 1.67104C10.3955 2.06094 10.0807 2.60206 9.97234 3.20016H9.07086C8.42877 3.2009 7.81319 3.4563 7.35916 3.91033C6.90513 4.36436 6.64973 4.97994 6.64898 5.62203V9.89305C6.53724 9.90885 6.43494 9.96443 6.36089 10.0496C6.28683 10.1348 6.24599 10.2438 6.24586 10.3566V13.7374C6.24586 15.3875 7.00797 16.8116 8.10195 17.4585C8.22219 18.633 8.62176 19.7617 9.26727 20.7502C9.91279 21.7387 10.7855 22.5584 11.8125 23.1408V24.6342C11.8122 24.9132 11.7012 25.1806 11.504 25.3778C11.3068 25.5751 11.0393 25.686 10.7604 25.6863H6.14766C4.72486 25.6879 3.36081 26.2539 2.35476 27.2599C1.34871 28.266 0.782822 29.6301 0.78125 31.0529V38.4652C0.78125 38.5895 0.830636 38.7087 0.918544 38.7966C1.00645 38.8845 1.12568 38.9339 1.25 38.9339H29.645C29.7064 38.9339 29.7672 38.9219 29.8239 38.8984C29.9277 38.9077 30.0319 38.9158 30.1358 38.9213C30.2952 38.9298 30.4541 38.934 30.6123 38.9341C32.1589 38.9328 33.6766 38.5151 35.0061 37.7249C36.3356 36.9347 37.4278 35.8011 38.168 34.4432C38.9083 33.0852 39.2693 31.5531 39.2131 30.0075C39.157 28.4619 38.6857 26.96 37.8488 25.6594C36.9785 24.3086 35.7483 23.2277 34.2969 22.5382ZM19.3896 26.3663C19.6876 26.5355 20.0244 26.6243 20.367 26.6241H20.6683L17.598 31.4705L16.0816 29.3423L19.3896 26.3663ZM7.58648 5.62203C7.58694 5.22849 7.74347 4.8512 8.02175 4.57292C8.30003 4.29465 8.67732 4.13811 9.07086 4.13766H10.4004C10.5247 4.13766 10.6439 4.08827 10.7318 4.00036C10.8198 3.91245 10.8691 3.79323 10.8691 3.66891V3.65906C10.8696 3.22024 11.0442 2.79953 11.3545 2.48924C11.6648 2.17894 12.0855 2.0044 12.5243 2.00391H19.4819C20.4964 2.00506 21.4691 2.4086 22.1864 3.12598C22.9038 3.84337 23.3074 4.81601 23.3085 5.83055V9.88789H22.8499V8.46406C22.8499 8.39076 22.8327 8.31848 22.7997 8.25303C22.7667 8.18757 22.7188 8.13077 22.6599 8.08719C22.601 8.0436 22.5326 8.01444 22.4604 8.00205C22.3881 7.98967 22.314 7.99439 22.2439 8.01586C18.8862 9.04469 15.7205 8.38633 12.5661 6.00312C12.4847 5.94163 12.3855 5.90836 12.2835 5.90836H10.7648C10.407 5.90837 10.0528 5.97895 9.72241 6.11606C9.392 6.25317 9.09188 6.45412 8.83924 6.70739C8.58661 6.96066 8.38642 7.26129 8.25015 7.59204C8.11387 7.9228 8.04418 8.27719 8.04508 8.63492L8.04797 9.8882H7.58648V5.62203ZM7.18336 13.7374V10.8254H10C10.1243 10.8254 10.2435 10.776 10.3315 10.6881C10.4194 10.6002 10.4688 10.481 10.4688 10.3566C10.4688 10.2323 10.4194 10.1131 10.3315 10.0252C10.2435 9.93728 10.1243 9.88789 10 9.88789H8.98547L8.98266 8.66914C8.97693 8.20559 9.1474 7.75714 9.45961 7.41445C9.62601 7.23457 9.82791 7.09116 10.0526 6.99329C10.2772 6.89542 10.5197 6.84522 10.7648 6.84586H12.1275C14.4354 8.55625 16.8241 9.41437 19.2631 9.4143C20.1566 9.41227 21.0463 9.30031 21.9124 9.08094V9.88789H13.9062C13.7819 9.88789 13.6627 9.93728 13.5748 10.0252C13.4869 10.1131 13.4375 10.2323 13.4375 10.3566C13.4375 10.481 13.4869 10.6002 13.5748 10.6881C13.6627 10.776 13.7819 10.8254 13.9062 10.8254H23.7116V13.7374C23.7116 15.4771 22.7076 16.8926 21.4735 16.8926H17.4866L16.2061 14.8145C16.1316 14.6783 16.0219 14.5648 15.8884 14.4856C15.755 14.4065 15.6027 14.3648 15.4475 14.3648C15.2923 14.3648 15.14 14.4065 15.0066 14.4856C14.8731 14.5648 14.7634 14.6783 14.6889 14.8145L13.4084 16.8926H9.42188C8.1875 16.8926 7.18336 15.4771 7.18336 13.7374ZM9.09531 17.8086C9.20345 17.8229 9.31241 17.8301 9.42148 17.8301H13.6702C13.7502 17.8301 13.8288 17.8096 13.8987 17.7706C13.9685 17.7316 14.0272 17.6754 14.0692 17.6073L15.4475 15.3706L16.8257 17.6072C16.8677 17.6753 16.9264 17.7316 16.9963 17.7706C17.0661 17.8096 17.1448 17.8301 17.2248 17.8301H21.4735C21.5892 17.8299 21.7048 17.8216 21.8194 17.8053C21.5618 19.3058 20.7822 20.6669 19.6183 21.6483C18.4544 22.6296 16.9811 23.168 15.4587 23.1684C13.9363 23.1688 12.4628 22.6312 11.2984 21.6504C10.134 20.6696 9.35368 19.3089 9.09531 17.8086ZM10.7602 26.6239C11.1377 26.6242 11.5074 26.5164 11.8255 26.3134L14.8568 29.3368L13.4835 31.4431L10.4297 26.6239H10.7602ZM14.9884 37.9964H7.26656V34.1156C7.26656 33.9913 7.21718 33.8721 7.12927 33.7842C7.04136 33.6963 6.92213 33.6469 6.79781 33.6469C6.67349 33.6469 6.55426 33.6963 6.46636 33.7842C6.37845 33.8721 6.32906 33.9913 6.32906 34.1156V37.9964H1.71875V31.0529C1.72007 29.8787 2.18711 28.7529 3.0174 27.9226C3.8477 27.0923 4.97344 26.6252 6.14766 26.6239H9.32031L13.0821 32.5614C13.1241 32.6277 13.1821 32.6824 13.2508 32.7205C13.3195 32.7585 13.3966 32.7787 13.4751 32.7792H13.4781C13.5561 32.7792 13.6329 32.7598 13.7014 32.7226C13.77 32.6855 13.8282 32.6318 13.8708 32.5665L14.9885 30.8516L14.9884 37.9964ZM12.4766 25.6387C12.6558 25.3343 12.7502 24.9875 12.75 24.6343V23.5904C14.5636 24.3067 16.5872 24.2753 18.3777 23.503V24.6343C18.3774 25.0212 18.4906 25.3997 18.7033 25.723L15.4738 28.6281L12.4766 25.6387ZM29.1763 37.9964H24.7301V34.1156C24.7301 33.9913 24.6807 33.8721 24.5928 33.7842C24.5049 33.6963 24.3856 33.6469 24.2613 33.6469C24.137 33.6469 24.0178 33.6963 23.9299 33.7842C23.842 33.8721 23.7926 33.9913 23.7926 34.1156V37.9964H15.9259V30.7394L17.2388 32.5821C17.2822 32.643 17.3395 32.6925 17.4059 32.7268C17.4723 32.761 17.5459 32.7788 17.6206 32.7788H17.6334C17.7102 32.7767 17.7853 32.7558 17.8521 32.7178C17.919 32.6799 17.9754 32.6261 18.0166 32.5612L21.7784 26.6241H24.7471C25.9213 26.6254 27.0471 27.0924 27.8774 27.9227C28.7077 28.7531 29.1748 29.8788 29.1761 31.053L29.1763 37.9964ZM35.886 35.892C35.1302 36.6131 34.2341 37.171 33.2535 37.5311C32.2729 37.8912 31.2287 38.0457 30.1858 37.9852C30.1618 37.9839 30.1378 37.9816 30.1138 37.9802V31.0529C30.1141 30.5062 30.0306 29.9627 29.8662 29.4412C29.9256 29.4392 29.985 29.4421 30.0439 29.4499C30.0723 29.4546 30.1011 29.4569 30.1298 29.4566C30.253 29.4549 30.3706 29.4048 30.4572 29.317C30.5437 29.2293 30.5922 29.111 30.5922 28.9878C30.5922 28.9825 30.5922 28.9772 30.5922 28.9722C30.5846 28.6889 30.6447 28.408 30.7676 28.1527C30.9484 27.7739 31.2558 27.4703 31.6367 27.2941C32.0176 27.1179 32.4481 27.0802 32.8538 27.1876C33.2595 27.295 33.615 27.5407 33.8589 27.8822C34.1027 28.2238 34.2196 28.6398 34.1895 29.0584C34.1816 29.1831 34.2234 29.3058 34.3058 29.3998C34.3881 29.4938 34.5042 29.5515 34.6289 29.5602C34.6714 29.5632 34.7142 29.5605 34.7559 29.5519C34.9219 29.5182 35.0933 29.5237 35.2568 29.5679C35.4202 29.612 35.5711 29.6936 35.6975 29.8062C35.824 29.9188 35.9224 30.0593 35.9851 30.2166C36.0478 30.3739 36.073 30.5436 36.0587 30.7123C36.0537 30.7773 36.0623 30.8427 36.0838 30.9043C36.1053 30.9659 36.1393 31.0223 36.1837 31.0701C36.2281 31.1179 36.2819 31.156 36.3418 31.182C36.4016 31.208 36.4662 31.2214 36.5314 31.2212H38.2291C38.0251 33.0063 37.1949 34.6612 35.886 35.892ZM36.972 30.2834C36.8968 29.8457 36.6806 29.4445 36.3563 29.1411C36.032 28.8376 35.6175 28.6485 35.1758 28.6024C35.1548 28.6004 35.1338 28.5986 35.1127 28.5971C35.0409 28.0086 34.7801 27.4593 34.3694 27.0316C33.9588 26.604 33.4205 26.3211 32.8354 26.2255C32.2502 26.1299 31.6499 26.2266 31.1245 26.5013C30.599 26.7759 30.1769 27.2136 29.9214 27.7486C29.806 27.9911 29.7266 28.2492 29.6859 28.5147C29.6277 28.5209 29.5698 28.5297 29.5121 28.541C29.5048 28.5424 29.4976 28.5445 29.4902 28.5459C29.034 27.6834 28.3514 26.9615 27.5157 26.4577C26.6801 25.954 25.723 25.6874 24.7473 25.6866H24.4888C25.2287 24.7088 26.1924 23.9228 27.299 23.3945C27.957 23.0767 28.5124 22.5802 28.9016 21.9617C29.2908 21.3432 29.4982 20.6277 29.5 19.897V12.2131C29.5 12.0895 29.4512 11.9709 29.3642 11.8831C29.2772 11.7953 29.159 11.7455 29.0354 11.7444L28.6663 11.7411C28.5762 11.74 28.4902 11.7036 28.4267 11.6396C28.3633 11.5756 28.3276 11.4892 28.3273 11.3991V11.3848C28.3275 11.2941 28.3635 11.2072 28.4277 11.1431C28.4918 11.079 28.5787 11.0429 28.6694 11.0428H32.5444C32.6342 11.0442 32.7199 11.0808 32.7829 11.1448C32.8459 11.2088 32.8812 11.295 32.8812 11.3848C32.8812 11.4746 32.8459 11.5608 32.7829 11.6248C32.7199 11.6888 32.6342 11.7254 32.5444 11.7268H32.5413L32.1866 11.7237C32.0618 11.7239 31.942 11.7726 31.8525 11.8595C31.8085 11.9031 31.7736 11.955 31.7498 12.0121C31.726 12.0692 31.7138 12.1305 31.7138 12.1924V19.8965C31.7123 20.6243 31.9162 21.3378 32.302 21.9549C32.6878 22.572 33.24 23.0678 33.8949 23.3852C35.1987 24.0088 36.3011 24.9862 37.0765 26.2058C37.8519 27.4255 38.2691 28.8384 38.2806 30.2836L36.972 30.2834Z" fill="white"/>
<path d="M28.8223 7.26021C28.8223 7.53776 28.9046 7.80907 29.0588 8.03984C29.213 8.2706 29.4321 8.45047 29.6885 8.55668C29.945 8.66289 30.2271 8.69068 30.4993 8.63653C30.7715 8.58239 31.0216 8.44874 31.2178 8.25248C31.4141 8.05623 31.5477 7.80619 31.6019 7.53398C31.656 7.26177 31.6282 6.97962 31.522 6.7232C31.4158 6.46679 31.2359 6.24762 31.0052 6.09343C30.7744 5.93923 30.5031 5.85693 30.2255 5.85693C29.8535 5.85735 29.4968 6.00533 29.2337 6.2684C28.9707 6.53148 28.8227 6.88817 28.8223 7.26021ZM30.6913 7.26021C30.6913 7.35234 30.664 7.44239 30.6128 7.51899C30.5616 7.59559 30.4889 7.65529 30.4038 7.69054C30.3187 7.72579 30.225 7.73502 30.1347 7.71705C30.0443 7.69907 29.9613 7.65471 29.8962 7.58957C29.8311 7.52443 29.7867 7.44144 29.7687 7.35108C29.7507 7.26073 29.76 7.16708 29.7952 7.08197C29.8305 6.99686 29.8902 6.92411 29.9668 6.87293C30.0434 6.82175 30.1334 6.79443 30.2255 6.79443C30.349 6.79458 30.4674 6.8437 30.5547 6.93102C30.6421 7.01834 30.6912 7.13673 30.6913 7.26021Z" fill="white"/>
<path d="M33.3905 4.07857C33.3905 3.80103 33.3082 3.52972 33.1541 3.29895C32.9999 3.06819 32.7807 2.88832 32.5243 2.78211C32.2679 2.6759 31.9857 2.64811 31.7135 2.70226C31.4413 2.7564 31.1912 2.89005 30.995 3.08631C30.7987 3.28256 30.6651 3.5326 30.6109 3.80481C30.5568 4.07702 30.5846 4.35917 30.6908 4.61559C30.797 4.872 30.9769 5.09117 31.2076 5.24536C31.4384 5.39955 31.7097 5.48186 31.9873 5.48186C32.3593 5.48144 32.716 5.33346 32.9791 5.07039C33.2422 4.80731 33.3901 4.45062 33.3905 4.07857ZM31.5215 4.07857C31.5215 3.98645 31.5488 3.8964 31.6 3.8198C31.6512 3.7432 31.7239 3.6835 31.809 3.64825C31.8941 3.613 31.9878 3.60377 32.0781 3.62174C32.1685 3.63972 32.2515 3.68408 32.3166 3.74922C32.3818 3.81436 32.4261 3.89735 32.4441 3.98771C32.4621 4.07806 32.4528 4.17171 32.4176 4.25682C32.3823 4.34193 32.3226 4.41468 32.246 4.46586C32.1694 4.51704 32.0794 4.54436 31.9873 4.54436C31.8638 4.54421 31.7454 4.49509 31.6581 4.40777C31.5707 4.32045 31.5216 4.20206 31.5215 4.07857Z" fill="white"/>
</g>
</g>
<defs>
<clipPath id="clip0_69_591">
<rect width="40" height="40" fill="white"/>
</clipPath>
<clipPath id="clip1_69_591">
<rect width="40" height="40" fill="white"/>
</clipPath>
</defs>
</svg>
