<svg width="32" height="32" viewBox="0 0 32 32" fill="none" xmlns="http://www.w3.org/2000/svg">
<path d="M16.0002 3.2002C16.3848 3.2002 16.749 3.36944 16.9953 3.66109L22.7263 10.4702L27.5868 7.26211C27.802 7.12051 28.0542 7.04567 28.3118 7.04702C28.5694 7.04836 28.8208 7.12582 29.0345 7.26966C29.4704 7.56358 29.6827 8.0902 29.5709 8.60097L26.3326 23.3458C26.2683 23.6332 26.1078 23.89 25.8777 24.0738C25.6475 24.2575 25.3615 24.357 25.067 24.356H6.93347C6.63898 24.357 6.35296 24.2575 6.12279 24.0738C5.89263 23.89 5.73214 23.6332 5.6679 23.3458L2.42955 8.60097C2.37515 8.35085 2.39721 8.09016 2.49287 7.85275C2.58854 7.61534 2.75339 7.41218 2.966 7.26966C3.17968 7.12582 3.43111 7.04836 3.68869 7.04702C3.94627 7.04567 4.1985 7.12051 4.41366 7.26211L9.27421 10.4702L15.0052 3.66109C15.2522 3.36944 15.6157 3.2002 16.0002 3.2002ZM5.42234 27.6298C5.42234 26.9347 6.0147 26.3711 6.74458 26.3711H25.2559C25.7281 26.3711 26.1648 26.6106 26.4013 27.0005C26.5172 27.1901 26.5786 27.408 26.5786 27.6302C26.5786 27.8525 26.5172 28.0704 26.4013 28.26C26.1648 28.6491 25.7289 28.8894 25.2559 28.8894H6.74458C6.0147 28.8894 5.42234 28.3257 5.42234 27.6298ZM14.0169 18.8154C14.0169 19.5106 14.6092 20.0742 15.3391 20.0742H16.6614C17.3912 20.0742 17.9836 19.5106 17.9836 18.8154C17.9836 18.1203 17.3912 17.5559 16.6614 17.5559H15.3391C14.6092 17.5559 14.0169 18.1196 14.0169 18.8154V18.8154Z" fill="#1F6BFF"/>
</svg>
