<svg width="32" height="32" viewBox="0 0 32 32" fill="none" xmlns="http://www.w3.org/2000/svg">
<path d="M26.4561 16.5676L22.3477 10.9017L26.4561 5.23344C26.9055 4.61257 26.993 3.91837 26.6926 3.32825C26.3922 2.73931 25.7773 2.39991 25.0062 2.39991H7.96719C7.34082 2.39896 6.73968 2.64664 6.29578 3.08855C5.85187 3.53046 5.60149 4.13048 5.59961 4.75684V28.4173C5.59961 28.7309 5.72421 29.0317 5.94599 29.2535C6.16777 29.4753 6.46857 29.5999 6.78222 29.5999C7.09587 29.5999 7.39667 29.4753 7.61845 29.2535C7.84023 29.0317 7.96483 28.7309 7.96483 28.4173V19.4011H25.0062C25.782 19.4011 26.3993 19.0617 26.6997 18.4739C26.9977 17.8885 26.9102 17.1932 26.4561 16.5676" fill="#1F6BFF"/>
</svg>
