<svg width="32" height="32" viewBox="0 0 32 32" fill="none" xmlns="http://www.w3.org/2000/svg">
<path d="M26.5111 8.44411H22.9819V7.08927C22.9804 6.27042 22.6544 5.48555 22.0754 4.90653C21.4964 4.32751 20.7115 4.00154 19.8926 4H12.1081C10.4049 4 9.01887 5.38599 9.01887 7.08927V8.44411H5.48966C4.67081 8.44566 3.88594 8.77163 3.30692 9.35065C2.72791 9.92966 2.40193 10.7145 2.40039 11.5334L2.40039 25.0876C2.40039 26.7929 3.78638 28.1789 5.48966 28.1789H26.5111C28.2144 28.1789 29.6004 26.7929 29.6004 25.0876V18.5373C27.7414 18.5373 25.8882 18.5431 24.0253 18.5431V19.8805C24.0238 20.2398 23.8803 20.584 23.6262 20.8382C23.3721 21.0923 23.0279 21.2357 22.6685 21.2372C22.3091 21.2357 21.9649 21.0923 21.7108 20.8382C21.4567 20.584 21.3133 20.2398 21.3117 19.8805V18.5412H10.6891V19.8785C10.6875 20.2379 10.5441 20.5821 10.29 20.8362C10.0359 21.0903 9.69164 21.2338 9.33227 21.2353C8.9729 21.2338 8.62869 21.0903 8.37458 20.8362C8.12046 20.5821 7.97702 20.2379 7.97549 19.8785V18.5412L2.40039 18.5392V16.7153C4.2594 16.7153 6.11842 16.7036 7.97549 16.7036C7.98209 16.3476 8.12777 16.0084 8.38134 15.7584C8.63491 15.5085 8.97624 15.3677 9.33227 15.3663C9.68831 15.3677 10.0296 15.5085 10.2832 15.7584C10.5368 16.0084 10.6825 16.3476 10.6891 16.7036H21.3117C21.3183 16.3476 21.464 16.0084 21.7176 15.7584C21.9711 15.5085 22.3125 15.3677 22.6685 15.3663C23.0245 15.3677 23.3659 15.5085 23.6194 15.7584C23.873 16.0084 24.0187 16.3476 24.0253 16.7036C25.8863 16.7036 27.7433 16.7114 29.6004 16.7114V11.5334C29.5988 10.7145 29.2729 9.92966 28.6939 9.35065C28.1148 8.77163 27.33 8.44566 26.5111 8.44411ZM10.8565 7.08927C10.8565 6.40017 11.419 5.8376 12.1081 5.8376H19.8926C20.5817 5.8376 21.1443 6.40017 21.1443 7.08927V8.44411H10.8565V7.08927Z" fill="white"/>
</svg>
