<svg width="70" height="80" viewBox="0 0 70 80" fill="none" xmlns="http://www.w3.org/2000/svg">
<g clip-path="url(#clip0_108_532)">
<path d="M23.0927 6.80419C28.9064 3.48207 31.8132 1.82101 35 1.82101C38.1868 1.82101 41.0936 3.48207 46.9073 6.80419L57.9073 13.0899C63.8077 16.4615 66.7578 18.1473 68.3789 20.9407C70 23.7342 70 27.132 70 33.9277V46.0723C70 52.868 70 56.2658 68.3789 59.0593C66.7578 61.8527 63.8077 63.5385 57.9073 66.9101L46.9073 73.1958C41.0936 76.5179 38.1868 78.179 35 78.179C31.8132 78.179 28.9064 76.5179 23.0927 73.1958L12.0927 66.9101C6.19233 63.5385 3.24216 61.8527 1.62108 59.0593C0 56.2658 0 52.868 0 46.0723V33.9277C0 27.132 0 23.7342 1.62108 20.9407C3.24216 18.1473 6.19233 16.4615 12.0927 13.0899L23.0927 6.80419Z" fill="url(#paint0_linear_108_532)"/>
<path d="M23.0095 36.2652C22.9106 36.1975 22.8075 36.1324 22.7034 36.0725C22.65 36.0417 22.5911 36.0218 22.5301 36.0138C22.469 36.0057 22.407 36.0098 22.3475 36.0258C22.288 36.0417 22.2322 36.0693 22.1834 36.1068C22.1345 36.1443 22.0935 36.1911 22.0628 36.2444C22.032 36.2978 22.012 36.3566 22.004 36.4177C21.996 36.4788 22.0001 36.5408 22.016 36.6003C22.032 36.6598 22.0595 36.7156 22.097 36.7644C22.1345 36.8133 22.1813 36.8542 22.2346 36.885C22.3181 36.9332 22.4005 36.985 22.4797 37.0392C22.5823 37.1068 22.7073 37.1313 22.8278 37.1076C22.9484 37.0839 23.0548 37.0138 23.1241 36.9125C23.1935 36.8111 23.2204 36.6866 23.1989 36.5656C23.1774 36.4447 23.1093 36.337 23.0092 36.2658L23.0095 36.2652Z" fill="white"/>
<path d="M22.9567 43.227C22.9997 43.271 23.0509 43.3062 23.1075 43.3305C23.1641 43.3547 23.2249 43.3676 23.2864 43.3684C23.348 43.3691 23.4091 43.3578 23.4663 43.3349C23.5234 43.312 23.5755 43.2782 23.6196 43.2352C24.3221 42.5422 24.7802 41.6397 24.9249 40.6636C25.0696 39.6876 24.8931 38.691 24.4219 37.824C24.3624 37.7151 24.2621 37.6342 24.143 37.5992C24.0239 37.5641 23.8958 37.5777 23.7868 37.637C23.6777 37.6963 23.5966 37.7964 23.5613 37.9154C23.5259 38.0344 23.5392 38.1625 23.5983 38.2717C23.9725 38.959 24.1132 39.7494 23.999 40.5236C23.8849 41.2979 23.5221 42.014 22.9654 42.5641C22.9213 42.607 22.8861 42.6582 22.8618 42.7148C22.8375 42.7714 22.8246 42.8322 22.8238 42.8937C22.823 42.9553 22.8343 43.0164 22.8571 43.0736C22.8799 43.1307 22.9137 43.1829 22.9567 43.227Z" fill="white"/>
<path d="M29.2724 34.0161C28.7253 34.0159 28.188 34.1609 27.7153 34.4363C27.2426 34.7118 26.8515 35.1077 26.5819 35.5838C26.3123 36.0598 26.174 36.5989 26.1809 37.146C26.1879 37.693 26.3399 38.2284 26.6215 38.6974C26.903 39.1665 27.3041 39.5524 27.7836 39.8157C28.2631 40.0791 28.804 40.2104 29.3509 40.1963C29.8978 40.1822 30.4311 40.0232 30.8965 39.7355C31.3618 39.4479 31.7424 39.0418 31.9995 38.5589L32.4729 38.7267C32.3654 39.1516 32.367 39.5968 32.4776 40.0209C32.5881 40.445 32.804 40.8344 33.1053 41.1527L30.7594 44.0729C30.2241 43.7821 29.5997 43.7011 29.0079 43.8457C28.4162 43.9903 27.8995 44.3501 27.5586 44.855C27.2177 45.3599 27.0771 45.9736 27.1642 46.5766C27.2513 47.1795 27.5598 47.7284 28.0296 48.1162C28.4993 48.504 29.0967 48.7029 29.7052 48.6742C30.3137 48.6455 30.8897 48.3911 31.3209 47.9608C31.752 47.5304 32.0075 46.9549 32.0373 46.3465C32.0672 45.738 31.8694 45.1403 31.4825 44.6698L33.8607 41.7094C34.4539 41.9981 35.1345 42.0508 35.7652 41.857C36.3958 41.6632 36.9293 41.2371 37.2579 40.6651L37.7155 40.8536C37.5403 41.614 37.6588 42.4125 38.0471 43.0892C38.4355 43.766 39.0651 44.2712 39.81 44.5036C40.5549 44.7361 41.36 44.6786 42.0644 44.3427C42.7687 44.0069 43.3202 43.4175 43.6085 42.6924C43.8968 41.9673 43.9007 41.1601 43.6193 40.4323C43.3379 39.7045 42.792 39.1098 42.0909 38.7673C41.3898 38.4247 40.5852 38.3596 39.8382 38.5849C39.0911 38.8102 38.4567 39.3094 38.0619 39.9824L37.5729 39.7809C37.6508 39.3 37.5921 38.8068 37.4035 38.3576L39.1441 37.2639C39.541 37.6335 40.0605 37.8434 40.6028 37.8532C41.1451 37.863 41.6718 37.6721 42.0819 37.3171C42.4919 36.9621 42.7563 36.4681 42.8243 35.9301C42.8922 35.392 42.7589 34.8478 42.45 34.402C42.1411 33.9562 41.6783 33.6404 41.1507 33.5151C40.623 33.3898 40.0676 33.4639 39.5913 33.7232C39.1149 33.9825 38.7512 34.4087 38.57 34.9198C38.3888 35.431 38.4029 35.9911 38.6096 36.4926L36.8897 37.5735C36.5007 37.1622 35.9881 36.889 35.4297 36.7953L35.3161 35.5933C35.8235 35.3987 36.2411 35.0235 36.4886 34.5398C36.7362 34.056 36.7962 33.4978 36.6572 32.9725C36.5182 32.4472 36.1899 31.9917 35.7355 31.6938C35.281 31.3958 34.7325 31.2763 34.1953 31.3582C33.6581 31.4401 33.1701 31.7177 32.8251 32.1376C32.4801 32.5575 32.3025 33.09 32.3264 33.6329C32.3503 34.1758 32.574 34.6908 32.9545 35.0787C33.335 35.4667 33.8454 35.7004 34.3878 35.7348L34.4893 36.8097C33.8319 36.9421 33.2506 37.3223 32.8658 37.8716L32.3095 37.6744C32.3934 37.2282 32.3778 36.769 32.264 36.3294C32.1501 35.8899 31.9407 35.4809 31.6507 35.1315C31.3606 34.7822 30.9971 34.5011 30.5861 34.3083C30.175 34.1155 29.7264 34.0157 29.2724 34.0161ZM29.2724 39.2598C28.8465 39.2599 28.4302 39.1336 28.0762 38.897C27.7221 38.6604 27.4461 38.3242 27.2831 37.9307C27.1201 37.5373 27.0775 37.1044 27.1605 36.6867C27.2436 36.269 27.4487 35.8854 27.7498 35.5842C28.0509 35.2831 28.4346 35.078 28.8522 34.995C29.2699 34.9119 29.7028 34.9545 30.0963 35.1175C30.4897 35.2804 30.826 35.5564 31.0626 35.9105C31.2992 36.2646 31.4254 36.6809 31.4254 37.1067C31.4248 37.6775 31.1978 38.2248 30.7941 38.6285C30.3905 39.0321 29.8432 39.2592 29.2724 39.2598ZM29.595 47.7303C29.2968 47.7303 29.0053 47.6419 28.7573 47.4762C28.5094 47.3105 28.3161 47.075 28.202 46.7995C28.0879 46.524 28.058 46.2208 28.1162 45.9283C28.1744 45.6358 28.318 45.3672 28.5289 45.1563C28.7397 44.9454 29.0084 44.8018 29.3009 44.7436C29.5934 44.6855 29.8965 44.7153 30.1721 44.8295C30.4476 44.9436 30.6831 45.1368 30.8487 45.3848C31.0144 45.6328 31.1029 45.9243 31.1029 46.2225C31.1024 46.6223 30.9434 47.0055 30.6608 47.2882C30.3781 47.5709 29.9948 47.7299 29.595 47.7303ZM40.7279 39.3905C41.1537 39.3905 41.57 39.5168 41.9241 39.7534C42.2782 39.9899 42.5542 40.3262 42.7171 40.7196C42.8801 41.1131 42.9228 41.546 42.8397 41.9637C42.7566 42.3813 42.5516 42.765 42.2504 43.0661C41.9493 43.3673 41.5657 43.5723 41.148 43.6554C40.7303 43.7385 40.2974 43.6959 39.904 43.5329C39.5105 43.3699 39.1743 43.094 38.9377 42.7399C38.7011 42.3858 38.5748 41.9695 38.5748 41.5437C38.5754 40.9729 38.8025 40.4256 39.2061 40.022C39.6097 39.6183 40.1569 39.3912 40.7277 39.3905H40.7279ZM40.6472 34.3889C40.8975 34.3889 41.1422 34.4631 41.3504 34.6022C41.5585 34.7413 41.7207 34.9389 41.8165 35.1702C41.9123 35.4015 41.9374 35.6559 41.8885 35.9014C41.8397 36.1469 41.7192 36.3725 41.5422 36.5495C41.3652 36.7265 41.1396 36.847 40.8941 36.8958C40.6486 36.9447 40.3942 36.9196 40.1629 36.8238C39.9316 36.728 39.734 36.5658 39.5949 36.3577C39.4558 36.1495 39.3816 35.9048 39.3816 35.6545C39.382 35.319 39.5154 34.9973 39.7527 34.7601C39.9899 34.5228 40.3116 34.3893 40.6471 34.3889H40.6472ZM33.2622 33.5363C33.2622 33.286 33.3364 33.0413 33.4754 32.8332C33.6145 32.625 33.8122 32.4628 34.0434 32.367C34.2747 32.2712 34.5292 32.2462 34.7747 32.295C35.0202 32.3438 35.2457 32.4644 35.4227 32.6414C35.5997 32.8184 35.7202 33.0439 35.7691 33.2894C35.8179 33.5349 35.7929 33.7894 35.6971 34.0207C35.6013 34.2519 35.4391 34.4496 35.2309 34.5886C35.0228 34.7277 34.7781 34.8019 34.5278 34.8019C34.1922 34.8016 33.8705 34.6681 33.6332 34.4309C33.3959 34.1936 33.2624 33.8719 33.262 33.5363H33.2622ZM35 37.6965C35.3302 37.6965 35.6528 37.7944 35.9273 37.9778C36.2018 38.1612 36.4157 38.4218 36.5421 38.7268C36.6684 39.0318 36.7014 39.3674 36.637 39.6912C36.5726 40.0149 36.4137 40.3123 36.1802 40.5457C35.9468 40.7792 35.6494 40.9381 35.3257 41.0025C35.0019 41.0669 34.6663 41.0339 34.3613 40.9075C34.0563 40.7812 33.7957 40.5673 33.6123 40.2928C33.4289 40.0183 33.331 39.6956 33.331 39.3655C33.3315 38.923 33.5075 38.4988 33.8204 38.1859C34.1333 37.873 34.5575 37.697 35 37.6965Z" fill="white"/>
<path d="M49.0986 37.9571L51.4298 36.6116C51.8047 36.3952 52.1334 36.107 52.3969 35.7636C52.6605 35.4202 52.8538 35.0282 52.9659 34.6101C53.078 34.1919 53.1066 33.7558 53.0501 33.3266C52.9936 32.8974 52.8531 32.4835 52.6367 32.1086L50.6526 28.6719C50.2148 27.9156 49.495 27.3639 48.651 27.1376C47.807 26.9114 46.9077 27.029 46.1503 27.4648L43.8175 28.8108C43.4589 29.0177 43.0522 29.1266 42.6382 29.1265C42.2242 29.1264 41.8175 29.0174 41.4589 28.8103C41.1004 28.6033 40.8027 28.3055 40.5957 27.947C40.3887 27.5884 40.2798 27.1817 40.2798 26.7677V24.0777C40.2798 23.2034 39.9325 22.3649 39.3143 21.7467C38.6961 21.1285 37.8576 20.7813 36.9834 20.7813H33.017C32.1671 20.7806 31.3501 21.1094 30.7375 21.6986C30.6744 21.7584 30.6292 21.8347 30.6071 21.9189C30.585 22.003 30.5869 22.0916 30.6125 22.1747C30.6381 22.2579 30.6865 22.3322 30.7521 22.3893C30.8177 22.4465 30.8979 22.4841 30.9838 22.498L31.0046 22.5014C31.0731 22.5117 31.1431 22.5058 31.2089 22.4844C31.2747 22.4629 31.3347 22.4264 31.384 22.3778C31.8223 21.9547 32.4078 21.7184 33.017 21.7188H36.9834C37.609 21.7188 38.209 21.9673 38.6514 22.4097C39.0938 22.852 39.3423 23.452 39.3423 24.0777V26.7143C39.3382 27.3017 39.4887 27.8799 39.7786 28.3908C40.0686 28.9017 40.4878 29.3273 40.9942 29.625C41.4938 29.9165 42.0619 30.07 42.6404 30.0697C43.2188 30.0694 43.7868 29.9153 44.286 29.6233L46.6188 28.2773C47.1608 27.9654 47.8043 27.8811 48.4082 28.043C49.0122 28.2048 49.5273 28.5995 49.8406 29.1406L51.8245 32.5772C51.9873 32.8576 52.0902 33.1687 52.1267 33.4909C52.1632 33.813 52.1325 34.1393 52.0365 34.449C51.8508 35.0321 51.4512 35.5234 50.9181 35.824L48.6299 37.1448C48.1288 37.4341 47.7126 37.8503 47.4232 38.3514C47.1339 38.8525 46.9815 39.421 46.9815 39.9997C46.9815 40.5784 47.1339 41.1468 47.4232 41.648C47.7126 42.1491 48.1288 42.5652 48.6299 42.8545L50.9181 44.1754C51.4512 44.476 51.8508 44.9672 52.0365 45.5504C52.1325 45.8601 52.1632 46.1863 52.1267 46.5085C52.0902 46.8307 51.9873 47.1418 51.8245 47.4222L49.8406 50.8594C49.5274 51.4005 49.0123 51.7953 48.4083 51.9573C47.8044 52.1192 47.1608 52.0351 46.6188 51.7233L44.286 50.3773C43.7849 50.0881 43.2165 49.936 42.638 49.9361C42.0594 49.9363 41.4911 50.0887 40.9901 50.378C40.4891 50.6674 40.0731 51.0835 39.7838 51.5845C39.4946 52.0856 39.3423 52.6539 39.3423 53.2325V55.9225C39.3422 56.5481 39.0937 57.1481 38.6513 57.5904C38.2089 58.0327 37.609 58.2813 36.9834 58.2812H33.017C32.7072 58.2813 32.4005 58.2203 32.1143 58.1017C31.8281 57.9832 31.568 57.8094 31.349 57.5904C31.1299 57.3714 30.9562 57.1113 30.8376 56.8251C30.7191 56.5389 30.6581 56.2322 30.6581 55.9224V53.2323C30.6603 52.6529 30.5094 52.0832 30.2207 51.5808C29.932 51.0784 29.5157 50.6612 29.014 50.3714C28.5122 50.0817 27.9428 49.9296 27.3634 49.9306C26.784 49.9316 26.2151 50.0856 25.7143 50.3771L23.3815 51.7231C22.8395 52.035 22.196 52.1192 21.592 51.9573C20.9881 51.7954 20.473 51.4006 20.1597 50.8594L18.1753 47.4225C17.8633 46.8805 17.779 46.2368 17.941 45.6328C18.1029 45.0287 18.4979 44.5135 19.0392 44.2002L21.3233 42.8813C21.834 42.5911 22.2594 42.1716 22.5568 41.665C22.8541 41.1584 23.013 40.5826 23.0175 39.9952C23.0201 39.4166 22.8688 38.8478 22.5791 38.3471C22.2895 37.8463 21.8718 37.4315 21.3691 37.1453L19.0392 35.7998C18.498 35.4864 18.1031 34.9713 17.9413 34.3672C17.7794 33.7632 17.8637 33.1196 18.1757 32.5777L20.1597 29.1406C20.4729 28.5994 20.988 28.2045 21.592 28.0426C22.196 27.8806 22.8395 27.9648 23.3815 28.2767L25.7143 29.6227C26.2136 29.9148 26.7815 30.0688 27.3599 30.0691C27.9383 30.0694 28.5064 29.916 29.006 29.6245C29.5124 29.3268 29.9316 28.9013 30.2216 28.3905C30.5116 27.8796 30.6621 27.3015 30.6581 26.7141V25.8497C30.6581 25.7389 30.6186 25.6317 30.5467 25.5474C30.4748 25.4631 30.3753 25.4071 30.2659 25.3896L30.2604 25.3887C30.1938 25.378 30.1257 25.3819 30.0608 25.4001C29.9958 25.4183 29.9356 25.4504 29.8843 25.4942C29.833 25.5379 29.7918 25.5923 29.7635 25.6535C29.7352 25.7148 29.7206 25.7814 29.7206 25.8488V26.7188C29.7243 27.1353 29.6199 27.5456 29.4176 27.9097C29.2152 28.2738 28.9218 28.5791 28.5661 28.7958C28.2068 29.012 27.7959 29.1275 27.3765 29.1301C26.9571 29.1327 26.5448 29.0224 26.1828 28.8106L23.85 27.4648C23.0927 27.029 22.1934 26.9113 21.3494 27.1376C20.5054 27.3639 19.7856 27.9156 19.3478 28.6719L17.3635 32.1088C16.9274 32.8662 16.8096 33.7656 17.0359 34.6098C17.2621 35.454 17.814 36.1739 18.5704 36.6117L20.9007 37.9573C21.2593 38.1643 21.5571 38.4621 21.7641 38.8206C21.9711 39.1792 22.0801 39.586 22.0801 40C22.0801 40.414 21.9711 40.8208 21.7641 41.1794C21.5571 41.5379 21.2593 41.8357 20.9007 42.0427L18.5704 43.3883C17.8141 43.8262 17.2624 44.5461 17.0362 45.3902C16.81 46.2344 16.9279 47.1337 17.3639 47.8911L19.3478 51.3281C19.7856 52.0844 20.5054 52.6362 21.3494 52.8625C22.1934 53.0888 23.0927 52.9711 23.85 52.5353L26.1828 51.1894C26.5414 50.9825 26.9482 50.8736 27.3622 50.8736C27.7762 50.8737 28.1829 50.9828 28.5414 51.1898C28.8999 51.3969 29.1976 51.6946 29.4046 52.0532C29.6116 52.4118 29.7206 52.8185 29.7206 53.2325V55.9226C29.7206 56.7968 30.068 57.6352 30.6861 58.2533C31.3043 58.8715 32.1428 59.2188 33.017 59.2188H36.9834C37.8576 59.2187 38.6961 58.8715 39.3143 58.2533C39.9325 57.6351 40.2798 56.7966 40.2798 55.9223V53.2808C40.276 52.8643 40.3804 52.4541 40.5828 52.09C40.7851 51.726 41.0785 51.4208 41.4342 51.2041C41.7935 50.9879 42.2044 50.8723 42.6238 50.8697C43.0432 50.8671 43.4555 50.9774 43.8175 51.1892L46.1503 52.5352C46.9077 52.971 47.807 53.0887 48.651 52.8624C49.495 52.6361 50.2148 52.0844 50.6526 51.3281L52.6363 47.8916C52.8528 47.5167 52.9934 47.1028 53.0499 46.6736C53.1064 46.2444 53.0778 45.8082 52.9658 45.3901C52.8538 44.9719 52.6604 44.5799 52.3969 44.2365C52.1333 43.893 51.8047 43.6049 51.4298 43.3884L49.0989 42.0429C48.7402 41.8359 48.4424 41.5381 48.2353 41.1795C48.0282 40.8209 47.9191 40.414 47.9191 39.9999C47.9191 39.5858 48.0282 39.179 48.2353 38.8203C48.4424 38.4617 48.7402 38.1639 49.0989 37.957L49.0986 37.9571Z" fill="white"/>
</g>
<defs>
<linearGradient id="paint0_linear_108_532" x1="0" y1="40" x2="70" y2="40" gradientUnits="userSpaceOnUse">
<stop stop-color="#1F6BFF"/>
<stop offset="0.516385" stop-color="#4F84EB"/>
<stop offset="1" stop-color="#125EF4"/>
</linearGradient>
<clipPath id="clip0_108_532">
<rect width="70" height="80" fill="white"/>
</clipPath>
</defs>
</svg>
