<svg width="70" height="80" viewBox="0 0 70 80" fill="none" xmlns="http://www.w3.org/2000/svg">
<g clip-path="url(#clip0_108_504)">
<path d="M23.0927 6.80419C28.9064 3.48207 31.8132 1.82101 35 1.82101C38.1868 1.82101 41.0936 3.48207 46.9073 6.80419L57.9073 13.0899C63.8077 16.4615 66.7578 18.1473 68.3789 20.9407C70 23.7342 70 27.132 70 33.9277V46.0723C70 52.868 70 56.2658 68.3789 59.0593C66.7578 61.8527 63.8077 63.5385 57.9073 66.9101L46.9073 73.1958C41.0936 76.5179 38.1868 78.179 35 78.179C31.8132 78.179 28.9064 76.5179 23.0927 73.1958L12.0927 66.9101C6.19233 63.5385 3.24216 61.8527 1.62108 59.0593C0 56.2658 0 52.868 0 46.0723V33.9277C0 27.132 0 23.7342 1.62108 20.9407C3.24216 18.1473 6.19233 16.4615 12.0927 13.0899L23.0927 6.80419Z" fill="#E4ECFF"/>
<path d="M32.7161 40.1455C32.8199 40.0771 32.8924 39.9703 32.9174 39.8485C32.9425 39.7267 32.9182 39.6 32.8498 39.4961C32.7814 39.3923 32.6746 39.3199 32.5528 39.2948C32.4311 39.2697 32.3043 39.294 32.2005 39.3624C30.8185 40.2726 30.129 40.2718 28.688 39.358C28.583 39.2915 28.4559 39.2693 28.3346 39.2965C28.2133 39.3237 28.1077 39.3979 28.0411 39.5029C27.9746 39.6079 27.9524 39.7351 27.9796 39.8564C28.0068 39.9777 28.081 40.0833 28.186 40.1498C29.0573 40.7022 29.7678 40.9784 30.4709 40.9784C31.1756 40.9784 31.8727 40.7009 32.7161 40.1455Z" fill="#1B3A57"/>
<path d="M18.4478 51.4844C18.3234 51.4844 18.2042 51.5338 18.1163 51.6217C18.0284 51.7096 17.979 51.8288 17.979 51.9531V56.2668C17.979 56.3911 18.0284 56.5103 18.1163 56.5983C18.2042 56.6862 18.3234 56.7355 18.4478 56.7355C18.5721 56.7355 18.6913 56.6862 18.7792 56.5983C18.8671 56.5103 18.9165 56.3911 18.9165 56.2668V51.9531C18.9165 51.8288 18.8671 51.7096 18.7792 51.6217C18.6913 51.5338 18.5721 51.4844 18.4478 51.4844Z" fill="#1B3A57"/>
<path d="M18.4478 49.1465C18.3234 49.1465 18.2042 49.1959 18.1163 49.2838C18.0284 49.3717 17.979 49.4909 17.979 49.6152V50.144C17.979 50.2683 18.0284 50.3875 18.1163 50.4754C18.2042 50.5633 18.3234 50.6127 18.4478 50.6127C18.5721 50.6127 18.6913 50.5633 18.7792 50.4754C18.8671 50.3875 18.9165 50.2683 18.9165 50.144V49.6152C18.9165 49.4909 18.8671 49.3717 18.7792 49.2838C18.6913 49.1959 18.5721 49.1465 18.4478 49.1465Z" fill="#1B3A57"/>
<path d="M49.2969 42.5382C48.8018 42.2973 48.3847 41.9216 48.0935 41.4543C47.8024 40.987 47.649 40.447 47.651 39.8964V32.6599C47.9802 32.6326 48.2861 32.4791 48.5046 32.2315C48.7232 31.9838 48.8375 31.6613 48.8237 31.3312C48.8099 31.0012 48.669 30.6893 48.4305 30.4608C48.192 30.2323 47.8744 30.1049 47.5441 30.1052H43.6691C43.3299 30.1057 43.0047 30.2406 42.7648 30.4805C42.525 30.7203 42.39 31.0455 42.3895 31.3847V31.3991C42.3905 31.7196 42.5114 32.0282 42.7284 32.2641C42.9454 32.5001 43.2428 32.6463 43.5622 32.6741V39.8969C43.5609 40.4508 43.4038 40.9932 43.1089 41.4621C42.814 41.931 42.3932 42.3075 41.8945 42.5486C40.4421 43.2422 39.2132 44.3293 38.3477 45.6863H35.3672C35.0882 45.686 34.8208 45.5751 34.6236 45.3778C34.4263 45.1806 34.3154 44.9132 34.3151 44.6342V43.0158C35.2884 42.4204 36.1107 41.6079 36.7176 40.6418C37.3246 39.6756 37.6996 38.5821 37.8135 37.4469C38.8965 36.7944 39.6495 35.3776 39.6495 33.7377V30.3566C39.6493 30.2438 39.6085 30.1348 39.5345 30.0496C39.4604 29.9645 39.3581 29.9089 39.2464 29.893V25.8305C39.245 24.5675 38.7426 23.3565 37.8494 22.4634C36.9563 21.5702 35.7454 21.0678 34.4823 21.0664H27.5243C26.9165 21.0672 26.3281 21.2811 25.8618 21.671C25.3955 22.0609 25.0807 22.6021 24.9723 23.2002H24.0709C23.4288 23.2009 22.8132 23.4563 22.3592 23.9103C21.9051 24.3644 21.6497 24.9799 21.649 25.622V29.893C21.5372 29.9088 21.4349 29.9644 21.3609 30.0496C21.2868 30.1348 21.246 30.2438 21.2459 30.3566V33.7374C21.2459 35.3875 22.008 36.8116 23.102 37.4585C23.2222 38.633 23.6218 39.7617 24.2673 40.7502C24.9128 41.7387 25.7855 42.5584 26.8125 43.1408V44.6342C26.8122 44.9132 26.7012 45.1806 26.504 45.3778C26.3068 45.5751 26.0393 45.686 25.7604 45.6863H21.1477C19.7249 45.6879 18.3608 46.2539 17.3548 47.2599C16.3487 48.266 15.7828 49.6301 15.7812 51.0529V58.4652C15.7812 58.5895 15.8306 58.7087 15.9185 58.7966C16.0065 58.8845 16.1257 58.9339 16.25 58.9339H44.645C44.7064 58.9339 44.7672 58.9219 44.8239 58.8984C44.9277 58.9077 45.0319 58.9158 45.1358 58.9213C45.2952 58.9298 45.4541 58.934 45.6123 58.9341C47.1589 58.9328 48.6766 58.5151 50.0061 57.7249C51.3356 56.9347 52.4278 55.8011 53.168 54.4432C53.9083 53.0852 54.2693 51.5531 54.2131 50.0075C54.157 48.4619 53.6857 46.96 52.8488 45.6594C51.9785 44.3086 50.7483 43.2277 49.2969 42.5382ZM34.3896 46.3663C34.6876 46.5355 35.0244 46.6243 35.367 46.6241H35.6683L32.598 51.4705L31.0816 49.3423L34.3896 46.3663ZM22.5865 25.622C22.5869 25.2285 22.7435 24.8512 23.0218 24.5729C23.3 24.2946 23.6773 24.1381 24.0709 24.1377H25.4004C25.5247 24.1377 25.6439 24.0883 25.7318 24.0004C25.8198 23.9125 25.8691 23.7932 25.8691 23.6689V23.6591C25.8696 23.2202 26.0442 22.7995 26.3545 22.4892C26.6648 22.1789 27.0855 22.0044 27.5243 22.0039H34.4819C35.4964 22.0051 36.4691 22.4086 37.1864 23.126C37.9038 23.8434 38.3074 24.816 38.3085 25.8305V29.8879H37.8499V28.4641C37.8499 28.3908 37.8327 28.3185 37.7997 28.253C37.7667 28.1876 37.7188 28.1308 37.6599 28.0872C37.601 28.0436 37.5326 28.0144 37.4604 28.0021C37.3881 27.9897 37.314 27.9944 37.2439 28.0159C33.8862 29.0447 30.7205 28.3863 27.5661 26.0031C27.4847 25.9416 27.3855 25.9084 27.2835 25.9084H25.7648C25.407 25.9084 25.0528 25.9789 24.7224 26.1161C24.392 26.2532 24.0919 26.4541 23.8392 26.7074C23.5866 26.9607 23.3864 27.2613 23.2501 27.592C23.1139 27.9228 23.0442 28.2772 23.0451 28.6349L23.048 29.8882H22.5865V25.622ZM22.1834 33.7374V30.8254H25C25.1243 30.8254 25.2435 30.776 25.3315 30.6881C25.4194 30.6002 25.4688 30.481 25.4688 30.3566C25.4688 30.2323 25.4194 30.1131 25.3315 30.0252C25.2435 29.9373 25.1243 29.8879 25 29.8879H23.9855L23.9827 28.6691C23.9769 28.2056 24.1474 27.7571 24.4596 27.4145C24.626 27.2346 24.8279 27.0912 25.0526 26.9933C25.2772 26.8954 25.5197 26.8452 25.7648 26.8459H27.1275C29.4354 28.5562 31.8241 29.4144 34.2631 29.4143C35.1566 29.4123 36.0463 29.3003 36.9124 29.0809V29.8879H28.9062C28.7819 29.8879 28.6627 29.9373 28.5748 30.0252C28.4869 30.1131 28.4375 30.2323 28.4375 30.3566C28.4375 30.481 28.4869 30.6002 28.5748 30.6881C28.6627 30.776 28.7819 30.8254 28.9062 30.8254H38.7116V33.7374C38.7116 35.4771 37.7076 36.8926 36.4735 36.8926H32.4866L31.2061 34.8145C31.1316 34.6783 31.0219 34.5648 30.8884 34.4856C30.755 34.4065 30.6027 34.3648 30.4475 34.3648C30.2923 34.3648 30.14 34.4065 30.0066 34.4856C29.8731 34.5648 29.7634 34.6783 29.6889 34.8145L28.4084 36.8926H24.4219C23.1875 36.8926 22.1834 35.4771 22.1834 33.7374ZM24.0953 37.8086C24.2034 37.8229 24.3124 37.8301 24.4215 37.8301H28.6702C28.7502 37.8301 28.8288 37.8096 28.8987 37.7706C28.9685 37.7316 29.0272 37.6754 29.0692 37.6073L30.4475 35.3706L31.8257 37.6072C31.8677 37.6753 31.9264 37.7316 31.9963 37.7706C32.0661 37.8096 32.1448 37.8301 32.2248 37.8301H36.4735C36.5892 37.8299 36.7048 37.8216 36.8194 37.8053C36.5618 39.3058 35.7822 40.6669 34.6183 41.6483C33.4544 42.6296 31.9811 43.168 30.4587 43.1684C28.9363 43.1688 27.4628 42.6312 26.2984 41.6504C25.134 40.6696 24.3537 39.3089 24.0953 37.8086ZM25.7602 46.6239C26.1377 46.6242 26.5074 46.5164 26.8255 46.3134L29.8568 49.3368L28.4835 51.4431L25.4297 46.6239H25.7602ZM29.9884 57.9964H22.2666V54.1156C22.2666 53.9913 22.2172 53.8721 22.1293 53.7842C22.0414 53.6963 21.9221 53.6469 21.7978 53.6469C21.6735 53.6469 21.5543 53.6963 21.4664 53.7842C21.3784 53.8721 21.3291 53.9913 21.3291 54.1156V57.9964H16.7188V51.0529C16.7201 49.8787 17.1871 48.7529 18.0174 47.9226C18.8477 47.0923 19.9734 46.6252 21.1477 46.6239H24.3203L28.0821 52.5614C28.1241 52.6277 28.1821 52.6824 28.2508 52.7205C28.3195 52.7585 28.3966 52.7787 28.4751 52.7792H28.4781C28.5561 52.7792 28.6329 52.7598 28.7014 52.7226C28.77 52.6855 28.8282 52.6318 28.8708 52.5665L29.9885 50.8516L29.9884 57.9964ZM27.4766 45.6387C27.6558 45.3343 27.7502 44.9875 27.75 44.6343V43.5904C29.5636 44.3067 31.5872 44.2753 33.3777 43.503V44.6343C33.3774 45.0212 33.4906 45.3997 33.7033 45.723L30.4738 48.6281L27.4766 45.6387ZM44.1763 57.9964H39.7301V54.1156C39.7301 53.9913 39.6807 53.8721 39.5928 53.7842C39.5049 53.6963 39.3856 53.6469 39.2613 53.6469C39.137 53.6469 39.0178 53.6963 38.9299 53.7842C38.842 53.8721 38.7926 53.9913 38.7926 54.1156V57.9964H30.9259V50.7394L32.2388 52.5821C32.2822 52.643 32.3395 52.6925 32.4059 52.7268C32.4723 52.761 32.5459 52.7788 32.6206 52.7788H32.6334C32.7102 52.7767 32.7853 52.7558 32.8521 52.7178C32.919 52.6799 32.9754 52.6261 33.0166 52.5612L36.7784 46.6241H39.7471C40.9213 46.6254 42.0471 47.0924 42.8774 47.9227C43.7077 48.7531 44.1748 49.8788 44.1761 51.053L44.1763 57.9964ZM50.886 55.892C50.1302 56.6131 49.2341 57.171 48.2535 57.5311C47.2729 57.8912 46.2287 58.0457 45.1858 57.9852C45.1618 57.9839 45.1378 57.9816 45.1138 57.9802V51.0529C45.1141 50.5062 45.0306 49.9627 44.8662 49.4412C44.9256 49.4392 44.985 49.4421 45.0439 49.4499C45.0723 49.4546 45.1011 49.4569 45.1298 49.4566C45.253 49.4549 45.3706 49.4048 45.4572 49.317C45.5437 49.2293 45.5922 49.111 45.5922 48.9878C45.5922 48.9825 45.5922 48.9772 45.5922 48.9722C45.5846 48.6889 45.6447 48.408 45.7676 48.1527C45.9484 47.7739 46.2558 47.4703 46.6367 47.2941C47.0176 47.1179 47.4481 47.0802 47.8538 47.1876C48.2595 47.295 48.615 47.5407 48.8589 47.8822C49.1027 48.2238 49.2196 48.6398 49.1895 49.0584C49.1816 49.1831 49.2234 49.3058 49.3058 49.3998C49.3881 49.4938 49.5042 49.5515 49.6289 49.5602C49.6714 49.5632 49.7142 49.5605 49.7559 49.5519C49.9219 49.5182 50.0933 49.5237 50.2568 49.5679C50.4202 49.612 50.5711 49.6936 50.6975 49.8062C50.824 49.9188 50.9224 50.0593 50.9851 50.2166C51.0478 50.3739 51.073 50.5436 51.0587 50.7123C51.0537 50.7773 51.0623 50.8427 51.0838 50.9043C51.1053 50.9659 51.1393 51.0223 51.1837 51.0701C51.2281 51.1179 51.2819 51.156 51.3418 51.182C51.4016 51.208 51.4662 51.2214 51.5314 51.2212H53.2291C53.0251 53.0063 52.1949 54.6612 50.886 55.892ZM51.972 50.2834C51.8968 49.8457 51.6806 49.4445 51.3563 49.1411C51.032 48.8376 50.6175 48.6485 50.1758 48.6024C50.1548 48.6004 50.1338 48.5986 50.1127 48.5971C50.0409 48.0086 49.7801 47.4593 49.3694 47.0316C48.9588 46.604 48.4205 46.3211 47.8354 46.2255C47.2502 46.1299 46.6499 46.2266 46.1245 46.5013C45.599 46.7759 45.1769 47.2136 44.9214 47.7486C44.806 47.9911 44.7266 48.2492 44.6859 48.5147C44.6277 48.5209 44.5698 48.5297 44.5121 48.541C44.5048 48.5424 44.4976 48.5445 44.4902 48.5459C44.034 47.6834 43.3514 46.9615 42.5157 46.4577C41.6801 45.954 40.723 45.6874 39.7473 45.6866H39.4888C40.2287 44.7088 41.1924 43.9228 42.299 43.3945C42.957 43.0767 43.5124 42.5802 43.9016 41.9617C44.2908 41.3432 44.4982 40.6277 44.5 39.897V32.2131C44.5 32.0895 44.4512 31.9709 44.3642 31.8831C44.2772 31.7953 44.159 31.7455 44.0354 31.7444L43.6663 31.7411C43.5762 31.74 43.4902 31.7036 43.4267 31.6396C43.3633 31.5756 43.3276 31.4892 43.3273 31.3991V31.3848C43.3275 31.2941 43.3635 31.2072 43.4277 31.1431C43.4918 31.079 43.5787 31.0429 43.6694 31.0428H47.5444C47.6342 31.0442 47.7199 31.0808 47.7829 31.1448C47.8459 31.2088 47.8812 31.295 47.8812 31.3848C47.8812 31.4746 47.8459 31.5608 47.7829 31.6248C47.7199 31.6888 47.6342 31.7254 47.5444 31.7268H47.5413L47.1866 31.7237C47.0618 31.7239 46.942 31.7726 46.8525 31.8595C46.8085 31.9031 46.7736 31.955 46.7498 32.0121C46.726 32.0692 46.7138 32.1305 46.7138 32.1924V39.8965C46.7123 40.6243 46.9162 41.3378 47.302 41.9549C47.6878 42.572 48.24 43.0678 48.8949 43.3852C50.1987 44.0088 51.3011 44.9862 52.0765 46.2058C52.8519 47.4255 53.2691 48.8384 53.2806 50.2836L51.972 50.2834Z" fill="#1B3A57"/>
<path d="M43.8223 27.2607C43.8223 27.5382 43.9046 27.8096 44.0588 28.0403C44.213 28.2711 44.4321 28.451 44.6885 28.5572C44.945 28.6634 45.2271 28.6912 45.4993 28.637C45.7715 28.5829 46.0216 28.4492 46.2178 28.253C46.4141 28.0567 46.5477 27.8067 46.6019 27.5345C46.656 27.2623 46.6282 26.9801 46.522 26.7237C46.4158 26.4673 46.2359 26.2481 46.0052 26.0939C45.7744 25.9397 45.5031 25.8574 45.2255 25.8574C44.8535 25.8578 44.4968 26.0058 44.2337 26.2689C43.9707 26.532 43.8227 26.8887 43.8223 27.2607ZM45.6913 27.2607C45.6913 27.3528 45.664 27.4429 45.6128 27.5195C45.5616 27.5961 45.4889 27.6558 45.4038 27.691C45.3187 27.7263 45.225 27.7355 45.1347 27.7175C45.0443 27.6996 44.9613 27.6552 44.8962 27.5901C44.8311 27.5249 44.7867 27.4419 44.7687 27.3516C44.7507 27.2612 44.76 27.1676 44.7952 27.0825C44.8305 26.9973 44.8902 26.9246 44.9668 26.8734C45.0434 26.8222 45.1334 26.7949 45.2255 26.7949C45.349 26.7951 45.4674 26.8442 45.5547 26.9315C45.6421 27.0188 45.6912 27.1372 45.6913 27.2607Z" fill="#1B3A57"/>
<path d="M48.391 24.0781C48.391 23.8005 48.3087 23.5292 48.1545 23.2985C48.0003 23.0677 47.7812 22.8878 47.5248 22.7816C47.2684 22.6754 46.9862 22.6476 46.714 22.7018C46.4418 22.7559 46.1917 22.8896 45.9955 23.0858C45.7992 23.2821 45.6656 23.5321 45.6114 23.8043C45.5573 24.0765 45.5851 24.3587 45.6913 24.6151C45.7975 24.8715 45.9774 25.0907 46.2081 25.2449C46.4389 25.3991 46.7102 25.4814 46.9878 25.4814C47.3598 25.481 47.7165 25.333 47.9796 25.0699C48.2426 24.8068 48.3906 24.4501 48.391 24.0781ZM46.522 24.0781C46.522 23.986 46.5493 23.8959 46.6005 23.8193C46.6517 23.7427 46.7244 23.683 46.8095 23.6478C46.8946 23.6125 46.9883 23.6033 47.0786 23.6213C47.169 23.6392 47.252 23.6836 47.3171 23.7487C47.3823 23.8139 47.4266 23.8969 47.4446 23.9872C47.4626 24.0776 47.4533 24.1712 47.4181 24.2563C47.3828 24.3414 47.3231 24.4142 47.2465 24.4654C47.1699 24.5166 47.0799 24.5439 46.9878 24.5439C46.8643 24.5437 46.7459 24.4946 46.6586 24.4073C46.5712 24.32 46.5221 24.2016 46.522 24.0781Z" fill="#1B3A57"/>
</g>
<defs>
<clipPath id="clip0_108_504">
<rect width="70" height="80" fill="white"/>
</clipPath>
</defs>
</svg>
