<svg width="70" height="80" viewBox="0 0 70 80" fill="none" xmlns="http://www.w3.org/2000/svg">
<g clip-path="url(#clip0_108_518)">
<path d="M23.0927 6.80419C28.9064 3.48207 31.8132 1.82101 35 1.82101C38.1868 1.82101 41.0936 3.48207 46.9073 6.80419L57.9073 13.0899C63.8077 16.4615 66.7578 18.1473 68.3789 20.9407C70 23.7342 70 27.132 70 33.9277V46.0723C70 52.868 70 56.2658 68.3789 59.0593C66.7578 61.8527 63.8077 63.5385 57.9073 66.9101L46.9073 73.1958C41.0936 76.5179 38.1868 78.179 35 78.179C31.8132 78.179 28.9064 76.5179 23.0927 73.1958L12.0927 66.9101C6.19233 63.5385 3.24216 61.8527 1.62108 59.0593C0 56.2658 0 52.868 0 46.0723V33.9277C0 27.132 0 23.7342 1.62108 20.9407C3.24216 18.1473 6.19233 16.4615 12.0927 13.0899L23.0927 6.80419Z" fill="#E4ECFF"/>
<path d="M27.8449 51.9672C27.7357 51.9078 27.6074 51.8941 27.4882 51.9293C27.369 51.9645 27.2686 52.0455 27.2091 52.1547L25.3455 55.5813C25.2861 55.6905 25.2726 55.8188 25.3078 55.9381C25.343 56.0573 25.4241 56.1576 25.5334 56.2171C25.6426 56.2765 25.7709 56.29 25.8901 56.2548C26.0094 56.2196 26.1097 56.1385 26.1691 56.0292L28.0327 52.6027C28.092 52.4935 28.1056 52.3652 28.0704 52.2461C28.0351 52.1269 27.9541 52.0266 27.8449 51.9672Z" fill="#1B3A57"/>
<path d="M29.0071 49.8305C28.898 49.7711 28.7696 49.7574 28.6504 49.7926C28.5312 49.8277 28.4308 49.9088 28.3713 50.018L28.0985 50.5197C28.069 50.5738 28.0506 50.6331 28.0441 50.6943C28.0376 50.7556 28.0433 50.8175 28.0607 50.8765C28.0782 50.9355 28.1071 50.9905 28.1458 51.0384C28.1845 51.0863 28.2322 51.126 28.2863 51.1555C28.3404 51.1849 28.3997 51.2033 28.4609 51.2098C28.5222 51.2163 28.5841 51.2106 28.6431 51.1932C28.7021 51.1757 28.7571 51.1468 28.805 51.1081C28.8529 51.0694 28.8926 51.0217 28.9221 50.9676L29.1949 50.4659C29.2542 50.3567 29.2677 50.2285 29.2325 50.1093C29.1973 49.9902 29.1162 49.8899 29.0071 49.8305Z" fill="#1B3A57"/>
<path d="M33.9747 38.398C34.3096 38.3985 34.6309 38.2663 34.8684 38.0302C35.1059 37.7942 35.24 37.4736 35.2415 37.1388C35.242 36.9727 35.2094 36.8083 35.1455 36.655C35.0817 36.5017 34.9879 36.3627 34.8697 36.2461C34.7521 36.129 34.6127 36.0362 34.4592 35.973C34.3058 35.9098 34.1414 35.8775 33.9755 35.8779H33.9747C33.6399 35.8774 33.3186 36.0097 33.0811 36.2457C32.8437 36.4818 32.7095 36.8023 32.708 37.1372C32.7075 37.3032 32.7401 37.4677 32.804 37.621C32.8678 37.7742 32.9616 37.9132 33.0799 38.0298C33.1974 38.147 33.3369 38.2398 33.4903 38.303C33.6437 38.3662 33.8081 38.3985 33.974 38.398H33.9747ZM33.6455 37.1378C33.6465 37.0514 33.6818 36.969 33.7435 36.9086C33.8052 36.8481 33.8884 36.8146 33.9747 36.8154C34.0182 36.8152 34.0613 36.8236 34.1015 36.8401C34.1417 36.8565 34.1783 36.8808 34.2091 36.9114C34.2392 36.941 34.2631 36.9763 34.2794 37.0152C34.2957 37.0541 34.3041 37.0958 34.304 37.138C34.303 37.2244 34.2677 37.3068 34.206 37.3672C34.1443 37.4277 34.0611 37.4611 33.9747 37.4604C33.9313 37.4606 33.8882 37.4522 33.848 37.4357C33.8077 37.4193 33.7712 37.395 33.7404 37.3643C33.7103 37.3348 33.6864 37.2995 33.6701 37.2605C33.6538 37.2216 33.6454 37.1798 33.6455 37.1376V37.1378Z" fill="#1B3A57"/>
<path d="M34.5 43.2766H34.5011C34.7109 43.2773 34.9188 43.2366 35.1129 43.1569C35.3069 43.0772 35.4834 42.9601 35.6322 42.8122C35.7818 42.665 35.9006 42.4895 35.9815 42.2959C36.0625 42.1022 36.104 41.8944 36.1037 41.6846C36.1021 41.261 35.9326 40.8554 35.6324 40.5566C35.3321 40.2579 34.9257 40.0903 34.5021 40.0908H34.5011C34.0777 40.09 33.6712 40.2571 33.3708 40.5555C33.0704 40.8539 32.9005 41.2592 32.8984 41.6826C32.8978 41.8925 32.9391 42.1003 33.0198 42.2941C33.1005 42.4878 33.2191 42.6634 33.3685 42.8107C33.5172 42.959 33.6937 43.0764 33.8879 43.1563C34.082 43.2363 34.29 43.2772 34.5 43.2766ZM34.501 41.028C34.6761 41.0271 34.8445 41.0956 34.9691 41.2187C35.0938 41.3417 35.1645 41.5091 35.1658 41.6843C35.1659 41.7703 35.1488 41.8555 35.1155 41.9348C35.0823 42.0141 35.0335 42.086 34.9721 42.1463C34.9101 42.2079 34.8365 42.2566 34.7556 42.2898C34.6747 42.3229 34.5881 42.3398 34.5007 42.3394H34.5C34.4125 42.3397 34.3258 42.3228 34.2449 42.2895C34.164 42.2563 34.0904 42.2074 34.0284 42.1457C33.9671 42.0854 33.9184 42.0135 33.8853 41.9341C33.8521 41.8547 33.8351 41.7696 33.8353 41.6836C33.8368 41.5084 33.9077 41.3411 34.0324 41.2182C34.1572 41.0953 34.3256 41.0269 34.5007 41.028H34.501Z" fill="#1B3A57"/>
<path d="M34.5426 24.7868H34.5439C34.7864 24.7876 35.0268 24.7407 35.2511 24.6486C35.4755 24.5565 35.6795 24.4211 35.8515 24.2501C36.024 24.0798 36.161 23.8769 36.2545 23.6533C36.348 23.4297 36.3963 23.1898 36.3964 22.9474C36.3966 22.705 36.3486 22.465 36.2554 22.2413C36.1621 22.0176 36.0254 21.8146 35.8532 21.6441C35.6813 21.4727 35.4772 21.3369 35.2528 21.2445C35.0283 21.1521 34.7878 21.1048 34.5451 21.1055H34.5438C34.3013 21.1047 34.061 21.1517 33.8366 21.2438C33.6122 21.336 33.4082 21.4714 33.2362 21.6424C33.0638 21.8128 32.9268 22.0156 32.8333 22.2392C32.7398 22.4628 32.6916 22.7028 32.6914 22.9451C32.6913 23.1875 32.7392 23.4275 32.8324 23.6512C32.9257 23.875 33.0624 24.078 33.2346 24.2485C33.4066 24.4198 33.6106 24.5555 33.835 24.6479C34.0595 24.7402 34.2999 24.7874 34.5426 24.7868ZM33.8958 22.3083C33.981 22.2236 34.0821 22.1566 34.1933 22.111C34.3045 22.0654 34.4236 22.0422 34.5437 22.0427H34.5444C34.6646 22.0423 34.7838 22.0656 34.8951 22.1113C35.0064 22.157 35.1075 22.2242 35.1928 22.309C35.2773 22.3922 35.3444 22.4915 35.3901 22.6009C35.4358 22.7104 35.4592 22.8279 35.459 22.9465C35.4591 23.0651 35.4355 23.1826 35.3897 23.292C35.3439 23.4014 35.2767 23.5006 35.192 23.5837C35.1067 23.6683 35.0056 23.7354 34.8945 23.7809C34.7833 23.8265 34.6642 23.8498 34.544 23.8493H34.5434C34.4231 23.8497 34.3039 23.8264 34.1927 23.7807C34.0814 23.735 33.9802 23.6678 33.895 23.5829C33.8106 23.4996 33.7436 23.4003 33.6979 23.2909C33.6522 23.1814 33.6287 23.064 33.6288 22.9454C33.6289 22.8268 33.6525 22.7094 33.6984 22.6C33.7442 22.4907 33.8113 22.3915 33.8958 22.3083H33.8958Z" fill="#1B3A57"/>
<path d="M18.4921 30.6737C18.869 30.9198 19.3277 31.0076 19.7688 30.918C20.21 30.8284 20.5981 30.5686 20.849 30.1949C20.9725 30.0094 21.0581 29.8012 21.1006 29.5825C21.1432 29.3638 21.142 29.1387 21.0971 28.9205C21.0521 28.7022 20.9644 28.495 20.8389 28.3109C20.7134 28.1267 20.5526 27.9693 20.3659 27.8476C19.989 27.6016 19.5303 27.514 19.0893 27.6037C18.6482 27.6933 18.2602 27.9531 18.0092 28.3267C17.8857 28.5122 17.8002 28.7203 17.7576 28.939C17.7151 29.1577 17.7163 29.3827 17.7612 29.6009C17.8061 29.8192 17.8938 30.0264 18.0192 30.2105C18.1447 30.3946 18.3054 30.5521 18.4921 30.6737ZM18.789 28.846C18.9024 28.6779 19.0774 28.5611 19.2762 28.521C19.4751 28.4808 19.6817 28.5205 19.8515 28.6315C19.9351 28.6857 20.0071 28.7561 20.0632 28.8384C20.1194 28.9208 20.1585 29.0135 20.1784 29.1111C20.1984 29.2077 20.1989 29.3073 20.1799 29.4041C20.1609 29.5009 20.1228 29.593 20.0679 29.6749C19.9545 29.843 19.7794 29.9598 19.5806 29.9999C19.3818 30.0401 19.1751 30.0003 19.0054 29.8893C18.9218 29.8351 18.8498 29.7648 18.7936 29.6825C18.7375 29.6001 18.6983 29.5074 18.6784 29.4098C18.6585 29.3132 18.6581 29.2135 18.6772 29.1167C18.6963 29.0199 18.7345 28.9279 18.7895 28.846H18.789Z" fill="#1B3A57"/>
<path d="M16.5471 44.0637C16.924 44.3097 17.3827 44.3974 17.8238 44.3077C18.2649 44.218 18.6529 43.9582 18.9038 43.5845C19.0273 43.399 19.1129 43.1908 19.1554 42.9721C19.198 42.7533 19.1968 42.5283 19.1518 42.31C19.1069 42.0918 19.0191 41.8846 18.8936 41.7004C18.7681 41.5163 18.6074 41.3588 18.4206 41.2372C18.0437 40.9912 17.585 40.9036 17.144 40.9933C16.7029 41.083 16.3149 41.3428 16.0639 41.7164C15.9404 41.9019 15.8549 42.1101 15.8123 42.3288C15.7697 42.5476 15.7709 42.7726 15.8159 42.9908C15.8608 43.2091 15.9486 43.4163 16.0741 43.6005C16.1996 43.7846 16.3604 43.9421 16.5471 44.0637ZM16.844 42.236C16.9574 42.0679 17.1324 41.9511 17.3313 41.911C17.5301 41.8708 17.7367 41.9106 17.9065 42.0216C17.9902 42.0757 18.0622 42.1461 18.1183 42.2284C18.1745 42.3108 18.2136 42.4035 18.2334 42.5012C18.2534 42.5978 18.254 42.6974 18.235 42.7942C18.216 42.891 18.1779 42.983 18.1229 43.0649C18.0095 43.233 17.8344 43.3498 17.6356 43.3899C17.4368 43.4301 17.2302 43.3903 17.0604 43.2793C16.9772 43.2255 16.9055 43.1556 16.8495 43.0738C16.7935 42.992 16.7543 42.9 16.7341 42.8029C16.714 42.7058 16.7134 42.6058 16.7322 42.5084C16.7511 42.4111 16.7891 42.3185 16.844 42.236Z" fill="#1B3A57"/>
<path d="M53.8801 26.8661C53.8209 26.849 53.759 26.8437 53.6978 26.8505C53.6366 26.8574 53.5774 26.8762 53.5234 26.906C53.4695 26.9357 53.422 26.9758 53.3836 27.0239C53.3452 27.072 53.3166 27.1272 53.2995 27.1864C52.4414 30.1526 49.8146 31.0733 46.9812 31.9721C45.0605 29.7221 43.327 27.562 44.1843 24.598C44.2019 24.5388 44.2075 24.4766 44.201 24.4152C44.1944 24.3537 44.1758 24.2941 44.1461 24.2399C44.1165 24.1857 44.0764 24.1378 44.0281 24.0992C43.9799 24.0605 43.9245 24.0317 43.8651 24.0146C43.8058 23.9974 43.7436 23.9921 43.6822 23.9991C43.6207 24.006 43.5613 24.025 43.5073 24.0551C43.4532 24.0851 43.4057 24.1255 43.3673 24.174C43.3289 24.2224 43.3005 24.278 43.2838 24.3375C42.3316 27.6287 44.0996 30.0202 46.0121 32.28C43.183 33.1902 40.4051 34.2878 39.4529 37.5785C38.5007 40.8692 40.2688 43.2612 42.1813 45.521C41.483 45.7458 40.7821 45.9848 40.1142 46.2642C38.7701 43.1043 37.8043 39.7964 37.237 36.4097C37.2268 36.3489 37.2048 36.2908 37.1721 36.2385C37.1395 36.1863 37.0969 36.141 37.0467 36.1053C36.9965 36.0695 36.9398 36.044 36.8798 36.0301C36.8198 36.0163 36.7576 36.0144 36.6969 36.0246C36.6361 36.0348 36.578 36.0568 36.5257 36.0895C36.4735 36.1221 36.4282 36.1648 36.3925 36.2149C36.3567 36.2651 36.3312 36.3218 36.3173 36.3818C36.3035 36.4418 36.3016 36.504 36.3118 36.5648C36.8225 39.6115 37.6491 42.5967 38.778 45.4723C37.0082 45.6748 35.7919 45.0936 34.6123 44.5296C33.2263 43.8669 31.7988 43.1851 29.6696 43.8439C31.3099 39.1603 32.152 34.2344 32.1609 29.2719C32.162 29.2063 32.15 29.1412 32.1255 29.0805C32.0898 28.9949 32.0297 28.9218 31.9526 28.8704C31.8756 28.819 31.785 28.7915 31.6923 28.7914C31.5883 28.7917 31.4852 28.7716 31.3889 28.732C31.2926 28.6925 31.2051 28.6343 31.1313 28.5609C31.0583 28.489 31.0003 28.4032 30.9608 28.3086C30.9213 28.214 30.901 28.1125 30.9013 28.01C30.903 27.8016 30.9874 27.6025 31.1357 27.4562C31.2841 27.3099 31.4844 27.2284 31.6928 27.2295H31.6934L36.1747 27.2323C36.2788 27.2319 36.3819 27.2521 36.4781 27.2917C36.5744 27.3312 36.6619 27.3894 36.7357 27.4628C36.8088 27.5347 36.8668 27.6204 36.9063 27.715C36.9458 27.8096 36.966 27.9112 36.9658 28.0137C36.964 28.222 36.8797 28.4212 36.7313 28.5675C36.5829 28.7138 36.3825 28.7954 36.1741 28.7942H36.1734C36.0495 28.794 35.9305 28.8429 35.8427 28.9302C35.7548 29.0175 35.7051 29.1362 35.7046 29.2601C35.7038 30.3808 35.7463 31.4996 35.8319 32.6165C35.8432 32.7389 35.9022 32.8521 35.9961 32.9315C36.0901 33.0108 36.2115 33.0501 36.3341 33.0408C36.4568 33.0315 36.5708 32.9743 36.6517 32.8817C36.7326 32.789 36.7739 32.6683 36.7666 32.5455C36.6936 31.5883 36.6527 30.6289 36.6438 29.6673C37.0049 29.5663 37.3233 29.3503 37.5506 29.0519C37.7779 28.7536 37.9017 28.3893 37.9032 28.0143C37.9039 27.7879 37.8594 27.5637 37.7723 27.3547C37.6852 27.1457 37.5574 26.9562 37.3962 26.7973C37.2357 26.6373 37.0452 26.5106 36.8357 26.4244C36.6262 26.3381 36.4018 26.294 36.1752 26.2946L31.6939 26.2919H31.6928C31.2766 26.2891 30.8735 26.4375 30.5585 26.7097C30.2435 26.9818 30.0381 27.359 29.9805 27.7713C29.9228 28.1835 30.0168 28.6026 30.245 28.9508C30.4733 29.2989 30.8201 29.5522 31.2212 29.6637C31.2038 31.3196 31.0909 32.973 30.883 34.6158C30.05 34.1983 29.1135 34.0322 28.1877 34.1379L27.2916 29.6098C27.7771 29.4175 28.1923 29.0817 28.4818 28.6472C28.669 28.366 28.7987 28.0504 28.8632 27.7188C28.9277 27.3871 28.9258 27.046 28.8576 26.7151C28.7895 26.3842 28.6564 26.0701 28.466 25.791C28.2757 25.5118 28.0319 25.2732 27.7488 25.0889C27.1765 24.7154 26.4802 24.5823 25.8105 24.7183C25.1409 24.8544 24.5517 25.2487 24.1706 25.8159C23.9834 26.0971 23.8537 26.4127 23.7892 26.7443C23.7247 27.0759 23.7265 27.417 23.7947 27.7479C23.8629 28.0788 23.996 28.3929 24.1863 28.6721C24.3767 28.9512 24.6205 29.1898 24.9037 29.3741C25.3249 29.6504 25.8179 29.7974 26.3217 29.7969C26.3387 29.7969 26.3555 29.7956 26.3725 29.7953L27.2703 34.333C26.5441 34.5601 25.8829 34.9581 25.3423 35.4935C24.8017 36.029 24.3974 36.6862 24.1633 37.4102L22.4211 36.9709C22.4491 36.519 22.3567 36.0678 22.1534 35.6632C21.9501 35.2587 21.6432 34.9152 21.2639 34.668C20.6917 34.2944 19.9955 34.1612 19.3258 34.2971C18.6561 34.4331 18.0669 34.8274 17.6858 35.3945C17.4985 35.6757 17.3689 35.9913 17.3044 36.3229C17.2398 36.6546 17.2417 36.9957 17.3099 37.3266C17.3781 37.6575 17.5112 37.9716 17.7015 38.2508C17.8919 38.5299 18.1357 38.7685 18.4188 38.9528C18.7297 39.1576 19.0811 39.293 19.449 39.3496C19.817 39.4062 20.1928 39.3828 20.5509 39.2809C20.9089 39.179 21.2408 39.0011 21.5238 38.7592C21.8068 38.5173 22.0343 38.2173 22.1907 37.8794L23.9655 38.3269C23.876 39.13 23.9935 39.9427 24.3068 40.6875C24.6201 41.4324 25.1188 42.0847 25.7555 42.5823L25.0691 43.5884C24.5103 43.3407 23.8822 43.2978 23.295 43.4672C22.7077 43.6367 22.199 44.0076 21.8581 44.5149C21.6709 44.7961 21.5412 45.1116 21.4767 45.4433C21.4122 45.7749 21.414 46.116 21.4822 46.4469C21.5504 46.7778 21.6835 47.0919 21.8738 47.371C22.0642 47.6502 22.308 47.8888 22.5912 48.073C23.1633 48.4467 23.8596 48.58 24.5293 48.444C25.199 48.3081 25.7882 47.9137 26.1693 47.3465C26.4975 46.8539 26.6444 46.2626 26.585 45.6736C26.5256 45.0847 26.2635 44.5347 25.8435 44.1176L26.5466 43.0873C27.2201 43.4298 27.9649 43.6083 28.7205 43.6081C28.7335 43.6081 28.7466 43.6074 28.7595 43.6073C27.9948 45.7835 27.0574 47.8951 25.9561 49.9219L22.878 55.5822C22.6917 55.9206 22.5976 56.3021 22.6049 56.6883C22.6123 57.0746 22.7208 57.4521 22.9198 57.7833C23.1184 58.1204 23.4021 58.3995 23.7424 58.5927C24.0827 58.7858 24.4677 58.8863 24.859 58.8841L42.9707 58.8953H42.9722C43.3632 58.8977 43.7481 58.7976 44.0884 58.6048C44.4286 58.4121 44.7124 58.1335 44.9113 57.7968C45.1107 57.4659 45.2197 57.0885 45.2275 56.7023C45.2354 56.316 45.1417 55.9345 44.9559 55.5958L41.8845 49.9318C41.3857 49.0119 40.9214 48.0756 40.4915 47.1229C41.2402 46.8104 42.0462 46.5466 42.8418 46.2943C44.7625 48.5443 46.4959 50.7043 45.6387 53.6683C45.6211 53.7275 45.6154 53.7897 45.622 53.8512C45.6285 53.9126 45.6472 53.9722 45.6769 54.0264C45.7065 54.0806 45.7466 54.1285 45.7948 54.1671C45.8431 54.2058 45.8984 54.2346 45.9578 54.2517C46.0172 54.2689 46.0794 54.2742 46.1408 54.2672C46.2022 54.2603 46.2617 54.2413 46.3157 54.2112C46.3697 54.1812 46.4173 54.1408 46.4557 54.0924C46.494 54.0439 46.5224 53.9883 46.5392 53.9288C47.4914 50.6376 45.7234 48.2461 43.8109 45.9863C46.6402 45.0758 49.4181 43.9785 50.3702 40.6878C51.3222 37.3971 49.5543 35.0051 47.6418 32.7453C50.4712 31.8348 53.2491 30.7375 54.2011 27.4468C54.2182 27.3876 54.2235 27.3256 54.2166 27.2643C54.2097 27.2031 54.1908 27.1438 54.161 27.0899C54.1312 27.0359 54.091 26.9884 54.0428 26.95C53.9946 26.9116 53.9393 26.8831 53.8801 26.8661ZM21.2166 37.7062C20.9732 38.0681 20.5969 38.3195 20.1695 38.406C19.742 38.4925 19.2976 38.4072 18.9326 38.1685C18.753 38.052 18.5982 37.901 18.4774 37.7242C18.3566 37.5475 18.272 37.3485 18.2286 37.1389C18.1853 36.9292 18.184 36.713 18.2248 36.5028C18.2656 36.2926 18.3477 36.0927 18.4663 35.9144C18.7099 35.5527 19.0861 35.3013 19.5136 35.2148C19.941 35.1283 20.3853 35.2136 20.7504 35.4523C20.93 35.5688 21.0848 35.7198 21.2056 35.8965C21.3264 36.0733 21.411 36.2723 21.4544 36.4819C21.4977 36.6916 21.4991 36.9078 21.4582 37.118C21.4174 37.3282 21.3353 37.5282 21.2166 37.7064V37.7062ZM25.3885 46.8266C25.145 47.1884 24.7688 47.4397 24.3413 47.5262C23.9138 47.6128 23.4695 47.5275 23.1045 47.2888C22.9248 47.1723 22.7701 47.0213 22.6493 46.8445C22.5284 46.6678 22.4439 46.4688 22.4005 46.2591C22.3571 46.0494 22.3558 45.8332 22.3966 45.623C22.4374 45.4128 22.5195 45.2128 22.6382 45.0346C22.8818 44.6728 23.258 44.4215 23.6854 44.335C24.1129 44.2485 24.5572 44.3337 24.9223 44.5723C25.1019 44.6888 25.2567 44.8399 25.3775 45.0166C25.4984 45.1934 25.5829 45.3924 25.6263 45.602C25.6697 45.8117 25.671 46.0279 25.6302 46.2381C25.5893 46.4483 25.5072 46.6483 25.3885 46.8266ZM25.4171 28.5894C25.2375 28.4729 25.0828 28.3219 24.9619 28.1452C24.8411 27.9684 24.7565 27.7694 24.7132 27.5598C24.6698 27.3501 24.6685 27.1339 24.7093 26.9237C24.7501 26.7135 24.8322 26.5135 24.9509 26.3353C25.1944 25.9735 25.5706 25.7221 25.9981 25.6356C26.4255 25.5491 26.8699 25.6344 27.2349 25.873C27.4146 25.9895 27.5693 26.1406 27.6902 26.3173C27.811 26.4941 27.8956 26.6931 27.9389 26.9027C27.9823 27.1124 27.9837 27.3286 27.9428 27.5388C27.902 27.749 27.8199 27.949 27.7013 28.1273C27.4577 28.489 27.0815 28.7403 26.6541 28.8268C26.2267 28.9133 25.7824 28.828 25.4173 28.5894H25.4171ZM26.6015 42.0376C26.1808 41.7645 25.8186 41.4105 25.5357 40.9963C25.2528 40.5822 25.0549 40.116 24.9534 39.6248C24.852 39.1336 24.849 38.6271 24.9446 38.1348C25.0403 37.6424 25.2326 37.1739 25.5106 36.7564C26.0679 35.928 26.9235 35.3466 27.8989 35.1334C28.8743 34.9202 29.8944 35.0917 30.7465 35.612C30.3884 38.001 29.8323 40.356 29.0837 42.6526C28.2105 42.7353 27.3352 42.5185 26.6017 42.0376H26.6015ZM41.0596 50.3784L44.131 56.0425C44.2386 56.2386 44.2928 56.4594 44.2883 56.683C44.2838 56.9066 44.2207 57.1251 44.1052 57.3167C43.9887 57.5133 43.8227 57.6759 43.6238 57.7883C43.4249 57.9007 43.1999 57.959 42.9714 57.9573H42.9705L24.8591 57.9466C24.6305 57.9481 24.4054 57.8896 24.2065 57.7769C24.0075 57.6642 23.8416 57.5013 23.7253 57.3044C23.6101 57.1126 23.5473 56.8941 23.543 56.6704C23.5388 56.4468 23.5933 56.226 23.7011 56.0301L26.7796 50.3697C27.721 48.6372 28.5453 46.8435 29.247 45.0008C31.4373 44.0517 32.7243 44.666 34.208 45.3754C35.2783 45.8871 36.4601 46.4522 38.0626 46.4521C38.4242 46.4514 38.7852 46.4239 39.1427 46.3698C39.7139 47.7374 40.3537 49.0753 41.0596 50.3784ZM49.4685 40.4271C48.6103 43.3933 45.9836 44.3141 43.1502 45.2128C41.2295 42.9628 39.496 40.8027 40.3533 37.8388C41.2114 34.8726 43.8382 33.9518 46.6716 33.053C48.5927 35.303 50.3262 37.4631 49.4685 40.4271Z" fill="#1B3A57"/>
<path d="M41.4646 38.1521C41.4307 38.2716 41.4455 38.3998 41.5061 38.5084C41.5666 38.617 41.6677 38.6971 41.7873 38.7311L47.7795 40.4356C47.8388 40.4528 47.901 40.4581 47.9623 40.4513C48.0237 40.4444 48.0831 40.4254 48.1372 40.3955C48.1912 40.3656 48.2388 40.3253 48.2772 40.2769C48.3156 40.2286 48.3441 40.1731 48.361 40.1137C48.3779 40.0542 48.3829 39.9921 48.3757 39.9307C48.3685 39.8694 48.3492 39.8101 48.319 39.7562C48.2888 39.7023 48.2483 39.6549 48.1997 39.6168C48.1511 39.5786 48.0955 39.5504 48.036 39.5339L42.0438 37.8294C41.9846 37.8126 41.9226 37.8076 41.8615 37.8147C41.8003 37.8217 41.7412 37.8408 41.6874 37.8708C41.6336 37.9007 41.5863 37.941 41.548 37.9893C41.5098 38.0375 41.4815 38.0929 41.4646 38.1521Z" fill="#1B3A57"/>
<path d="M43.5379 36.1579C43.5039 36.2775 43.5188 36.4057 43.5793 36.5143C43.6398 36.6229 43.7409 36.703 43.8605 36.737L47.087 37.6547C47.1462 37.6716 47.2082 37.6766 47.2693 37.6695C47.3305 37.6624 47.3896 37.6433 47.4434 37.6134C47.4972 37.5834 47.5445 37.5432 47.5828 37.4949C47.621 37.4467 47.6493 37.3914 47.6662 37.3321C47.683 37.2729 47.688 37.211 47.6809 37.1498C47.6739 37.0887 47.6548 37.0295 47.6248 36.9758C47.5949 36.922 47.5546 36.8746 47.5064 36.8364C47.4581 36.7982 47.4028 36.7699 47.3436 36.753L44.117 35.8353C44.0578 35.8184 43.9959 35.8134 43.9347 35.8205C43.8736 35.8276 43.8144 35.8467 43.7606 35.8766C43.7069 35.9066 43.6595 35.9469 43.6213 35.9951C43.5831 36.0434 43.5547 36.0987 43.5379 36.1579Z" fill="#1B3A57"/>
<path d="M45.9622 41.5281L42.7356 40.6104C42.6763 40.5932 42.6142 40.5878 42.5528 40.5947C42.4914 40.6016 42.432 40.6205 42.378 40.6504C42.3239 40.6804 42.2763 40.7207 42.2379 40.769C42.1995 40.8174 42.171 40.8729 42.1541 40.9323C42.1372 40.9917 42.1322 41.0539 42.1394 41.1152C42.1466 41.1766 42.1659 41.2359 42.1961 41.2898C42.2263 41.3437 42.2669 41.391 42.3154 41.4292C42.364 41.4673 42.4197 41.4955 42.4792 41.5121L45.7057 42.4298C45.8251 42.4631 45.9527 42.4477 46.0608 42.3872C46.1688 42.3266 46.2485 42.2257 46.2824 42.1065C46.3163 41.9874 46.3016 41.8596 46.2416 41.7513C46.1816 41.6429 46.0812 41.5626 45.9622 41.5281Z" fill="#1B3A57"/>
</g>
<defs>
<clipPath id="clip0_108_518">
<rect width="70" height="80" fill="white"/>
</clipPath>
</defs>
</svg>
