<svg width="36" height="36" viewBox="0 0 36 36" fill="none" xmlns="http://www.w3.org/2000/svg">
<g clip-path="url(#clip0_69_636)">
<g clip-path="url(#clip1_69_636)">
<path d="M9.16038 6.69013C9.3434 6.82003 9.57039 6.87222 9.79177 6.83533C10.0132 6.79843 10.2109 6.67544 10.342 6.4932C11.3194 5.10449 12.7137 4.06309 14.3228 3.51993C15.9318 2.97676 17.672 2.96004 19.2913 3.47218C20.9104 3.98433 22.3244 4.99873 23.3285 6.3684C24.3325 7.73807 24.8743 9.39186 24.8754 11.0901V13.7852H18.2754C18.0516 13.7852 17.8369 13.8741 17.6786 14.0325C17.5204 14.1907 17.4314 14.4054 17.4314 14.6292C17.4314 14.8531 17.5204 15.0678 17.6786 15.226C17.8369 15.3842 18.0516 15.4732 18.2754 15.4732H25.7024C26.7226 15.4994 27.6928 15.9205 28.4086 16.6479C29.1244 17.3752 29.5299 18.352 29.5398 19.3725V26.7376C29.5398 26.9615 29.6287 27.1761 29.787 27.3344C29.9453 27.4926 30.16 27.5815 30.3837 27.5815C30.6076 27.5815 30.8223 27.4926 30.9806 27.3344C31.1388 27.1761 31.2278 26.9615 31.2278 26.7376V19.3725C31.2182 18.054 30.7459 16.7809 29.8934 15.7752C29.041 14.7695 27.8623 14.095 26.5634 13.8696V11.0901C26.5633 9.03308 25.9082 7.02953 24.693 5.36985C23.4777 3.71016 21.7655 2.48056 19.8046 1.8593C17.8437 1.23804 15.7358 1.25738 13.7865 1.91453C11.8373 2.57167 10.148 3.83247 8.96344 5.51418C8.83385 5.69632 8.7818 5.92242 8.81872 6.14288C8.85564 6.36334 8.97852 6.56016 9.16038 6.69013Z" fill="white"/>
<path d="M33.2305 33.163L4.25371 4.18622C4.17644 4.1033 4.08326 4.03679 3.97974 3.99066C3.87622 3.94453 3.76445 3.91972 3.65113 3.91773C3.53781 3.91573 3.42524 3.93658 3.32015 3.97902C3.21506 4.02147 3.1196 4.08465 3.03945 4.16479C2.95931 4.24493 2.89613 4.3404 2.85368 4.44549C2.81124 4.55059 2.79039 4.66315 2.79238 4.77647C2.79439 4.88979 2.81919 5.00156 2.86533 5.10508C2.91145 5.20861 2.97796 5.30179 3.06088 5.37905L7.1964 9.51458V13.8696C5.89741 14.0949 4.71881 14.7694 3.86632 15.7751C3.01383 16.7808 2.54158 18.0539 2.53198 19.3723V29.0163C2.53347 30.4976 3.1226 31.9179 4.17008 32.9654C5.21755 34.0129 6.6378 34.6019 8.11915 34.6034H25.6402C26.4991 34.5976 27.3451 34.3954 28.1136 34.0121C28.8821 33.6288 29.5527 33.0747 30.074 32.3922L32.0376 34.3558C32.8028 35.1436 34.0182 33.9226 33.2305 33.163ZM8.88437 11.2194L11.4669 13.802H8.88437V11.2194Z" fill="white"/>
</g>
</g>
<defs>
<clipPath id="clip0_69_636">
<rect width="36.01" height="36.01" fill="white"/>
</clipPath>
<clipPath id="clip1_69_636">
<rect width="36.01" height="36.01" fill="white"/>
</clipPath>
</defs>
</svg>
