<svg width="36" height="36" viewBox="0 0 36 36" fill="none" xmlns="http://www.w3.org/2000/svg">
<path d="M17.9499 13.3147C18.2823 13.3153 18.6116 13.25 18.9186 13.1226C19.2256 12.9951 19.5043 12.8081 19.7386 12.5722L24.3511 7.95971C24.8477 7.46452 25.514 7.17676 26.215 7.15482C26.9159 7.13289 27.5989 7.37841 28.1255 7.84159C28.6153 8.33293 28.8904 8.99842 28.8904 9.69221C28.8904 10.386 28.6153 11.0515 28.1255 11.5428L23.4061 16.2622C22.9335 16.7375 22.6682 17.3806 22.6682 18.051C22.6682 18.7213 22.9335 19.3644 23.4061 19.8397C23.6407 20.0751 23.9195 20.2619 24.2265 20.3893C24.5334 20.5167 24.8625 20.5823 25.1949 20.5823C25.5272 20.5823 25.8563 20.5167 26.1633 20.3893C26.4702 20.2619 26.749 20.0751 26.9836 19.8397L31.703 15.126C32.4298 14.3977 33.003 13.5309 33.3886 12.577C33.7741 11.623 33.9641 10.6013 33.9473 9.57256C33.9305 8.54378 33.7073 7.52886 33.2908 6.58799C32.8744 5.64712 32.2732 4.79948 31.523 4.09534C30.0187 2.75633 28.0586 2.04452 26.0457 2.10624C24.0327 2.16797 22.1199 2.99855 20.7005 4.42721L16.1611 9.00034C15.8174 9.35758 15.5854 9.80732 15.4934 10.2945C15.4015 10.7816 15.4536 11.285 15.6435 11.7429C15.8334 12.2009 16.1527 12.5935 16.5624 12.8727C16.972 13.1519 17.4542 13.3055 17.9499 13.3147Z" fill="white"/>
<path d="M18.0556 22.6855C17.7235 22.6838 17.3944 22.7481 17.0873 22.8746C16.7802 23.0011 16.5014 23.1873 16.2668 23.4224L11.6543 28.0349C11.1572 28.5333 10.4885 28.8231 9.78494 28.845C9.08134 28.867 8.3959 28.6195 7.86869 28.153C7.6248 27.9105 7.43127 27.6221 7.2992 27.3045C7.16713 26.9869 7.09915 26.6463 7.09915 26.3024C7.09915 25.9584 7.16713 25.6178 7.2992 25.3003C7.43127 24.9827 7.6248 24.6943 7.86869 24.4517L12.5824 19.7324C14.8887 17.3136 11.4237 13.8486 9.00494 16.1549L4.27431 20.8742C3.19741 21.9348 2.46069 23.292 2.15804 24.7728C1.85539 26.2537 2.00053 27.7911 2.57496 29.1892C3.14938 30.5872 4.12707 31.7826 5.38342 32.6228C6.63977 33.4631 8.11786 33.9103 9.62931 33.9074C11.7492 33.9067 13.7823 33.0652 15.2824 31.5674L19.8443 26.9999C20.188 26.6426 20.4201 26.1929 20.512 25.7057C20.6039 25.2186 20.5518 24.7152 20.3619 24.2573C20.1721 23.7993 19.8527 23.4067 19.4431 23.1275C19.0334 22.8484 18.5512 22.6947 18.0556 22.6855Z" fill="white"/>
<path d="M26.5498 25.3573C26.3899 25.2083 26.1783 25.1271 25.9597 25.131C25.7411 25.1348 25.5326 25.2234 25.378 25.378C25.2234 25.5326 25.1348 25.7411 25.131 25.9597C25.1271 26.1783 25.2083 26.3899 25.3573 26.5498L28.5411 29.7336C28.6993 29.8916 28.9137 29.9803 29.1373 29.9803C29.3609 29.9803 29.5754 29.8916 29.7336 29.7336C29.8125 29.6556 29.8751 29.5628 29.9179 29.4604C29.9607 29.3581 29.9827 29.2482 29.9827 29.1373C29.9827 29.0264 29.9607 28.9166 29.9179 28.8142C29.8751 28.7119 29.8125 28.619 29.7336 28.5411L26.5498 25.3573Z" fill="white"/>
<path d="M33.5186 22.3931L28.4223 22.6912C28.3115 22.6946 28.2025 22.7197 28.1014 22.7652C28.0003 22.8106 27.9091 22.8756 27.8331 22.9563C27.7571 23.037 27.6978 23.1318 27.6584 23.2355C27.6191 23.3391 27.6006 23.4495 27.6039 23.5603C27.6072 23.6711 27.6323 23.7802 27.6778 23.8813C27.7233 23.9824 27.7882 24.0735 27.8689 24.1495C27.9496 24.2255 28.0445 24.2849 28.1481 24.3242C28.2518 24.3635 28.3622 24.3821 28.473 24.3787H28.518L33.6198 24.0806C33.7306 24.074 33.839 24.0456 33.9389 23.997C34.0387 23.9485 34.128 23.8807 34.2016 23.7977C34.2753 23.7146 34.3318 23.6179 34.3681 23.513C34.4044 23.4081 34.4196 23.297 34.413 23.1862C34.4063 23.0754 34.3779 22.967 34.3294 22.8672C34.2808 22.7674 34.2131 22.6781 34.13 22.6044C34.047 22.5308 33.9502 22.4742 33.8453 22.438C33.7404 22.4017 33.6294 22.3865 33.5186 22.3931Z" fill="white"/>
<path d="M23.5847 27.6298C23.4734 27.6206 23.3613 27.634 23.2553 27.6693C23.1494 27.7046 23.0516 27.761 22.968 27.8352C22.8844 27.9093 22.8167 27.9996 22.769 28.1006C22.7213 28.2016 22.6945 28.3112 22.6904 28.4229L22.3922 33.5191C22.3854 33.63 22.4005 33.7411 22.4367 33.8461C22.4728 33.9511 22.5294 34.0479 22.6031 34.131C22.6768 34.2141 22.7661 34.2818 22.8661 34.3303C22.966 34.3788 23.0745 34.4071 23.1854 34.4135H23.236C23.4513 34.4139 23.6585 34.332 23.8154 34.1845C23.9723 34.0371 24.0668 33.8353 24.0797 33.6204L24.3779 28.5185C24.3901 28.2956 24.3136 28.0769 24.1649 27.9103C24.0163 27.7437 23.8076 27.6428 23.5847 27.6298Z" fill="white"/>
<path d="M9.45034 10.6428C9.52843 10.7215 9.62134 10.7838 9.72368 10.8263C9.82603 10.8688 9.93578 10.8906 10.0466 10.8903C10.2134 10.8902 10.3764 10.8406 10.515 10.7479C10.6536 10.6552 10.7616 10.5235 10.8254 10.3694C10.8892 10.2153 10.9059 10.0458 10.8734 9.88219C10.8409 9.71862 10.7607 9.56834 10.6428 9.45034L7.45909 6.26659C7.38185 6.1837 7.2887 6.11721 7.1852 6.07109C7.0817 6.02497 6.96997 6.00018 6.85668 5.99818C6.74339 5.99618 6.63086 6.01702 6.5258 6.05946C6.42073 6.10189 6.3253 6.16505 6.24518 6.24518C6.16505 6.3253 6.10189 6.42073 6.05946 6.5258C6.01702 6.63086 5.99618 6.74339 5.99818 6.85668C6.00018 6.96997 6.02497 7.0817 6.07109 7.1852C6.11721 7.2887 6.1837 7.38185 6.26659 7.45909L9.45034 10.6428Z" fill="white"/>
<path d="M2.48061 13.6071L7.57686 13.309C7.80064 13.2963 8.01021 13.1952 8.15948 13.028C8.30875 12.8608 8.38548 12.6412 8.3728 12.4174C8.36012 12.1936 8.25907 11.9841 8.09186 11.8348C7.92466 11.6855 7.70502 11.6088 7.48124 11.6215L2.37936 11.9196C2.26856 11.9229 2.1595 11.948 2.0584 11.9935C1.95731 12.039 1.86616 12.1039 1.79016 12.1846C1.63667 12.3476 1.55421 12.5649 1.56093 12.7887C1.56764 13.0124 1.66297 13.2244 1.82595 13.3779C1.98893 13.5314 2.20621 13.6138 2.42999 13.6071H2.48061Z" fill="white"/>
<path d="M12.4135 8.3701H12.4642C12.6794 8.37049 12.8867 8.28857 13.0436 8.14113C13.2004 7.99369 13.295 7.79186 13.3079 7.57697L13.606 2.48072C13.6129 2.36988 13.5978 2.25877 13.5616 2.15377C13.5254 2.04877 13.4689 1.95195 13.3952 1.86886C13.3215 1.78576 13.2321 1.71804 13.1322 1.66956C13.0323 1.62108 12.9238 1.5928 12.8129 1.58635C12.7017 1.57795 12.59 1.59197 12.4844 1.62758C12.3787 1.66318 12.2813 1.71965 12.1979 1.79362C12.1145 1.86759 12.0467 1.95757 11.9988 2.0582C11.9508 2.15884 11.9235 2.26809 11.9185 2.37947L11.6204 7.48135C11.6081 7.70428 11.6847 7.923 11.8334 8.08959C11.982 8.25617 12.1907 8.35704 12.4135 8.3701Z" fill="white"/>
</svg>
