<svg width="44" height="44" viewBox="0 0 44 44" fill="none" xmlns="http://www.w3.org/2000/svg">
<g clip-path="url(#clip0_174_268)">
<path d="M38.5 31.1665H33.9167C32.5087 31.1665 31.2235 31.6982 30.25 32.5709V23.8332C30.25 20.8009 27.7823 18.3332 24.75 18.3332H19.25C16.2177 18.3332 13.75 20.8009 13.75 23.8332V27.0709C12.7765 26.1982 11.4913 25.6665 10.0833 25.6665H5.5C2.46767 25.6665 0 28.1342 0 31.1665V38.4999C0 41.5322 2.46767 43.9999 5.5 43.9999H38.5C41.5323 43.9999 44 41.5322 44 38.4999V36.6665C44 33.6342 41.5323 31.1665 38.5 31.1665ZM15.5833 23.8332C15.5833 21.811 17.2278 20.1665 19.25 20.1665H24.75C26.7722 20.1665 28.4167 21.811 28.4167 23.8332V42.1665H15.5833V23.8332ZM1.83333 38.4999V31.1665C1.83333 29.1444 3.47783 27.4999 5.5 27.4999H10.0833C12.1055 27.4999 13.75 29.1444 13.75 31.1665V42.1665H5.5C3.47783 42.1665 1.83333 40.522 1.83333 38.4999ZM42.1667 38.4999C42.1667 40.522 40.5222 42.1665 38.5 42.1665H30.25V36.6665C30.25 34.6444 31.8945 32.9999 33.9167 32.9999H38.5C40.5222 32.9999 42.1667 34.6444 42.1667 36.6665V38.4999ZM15.3835 7.39555L17.435 9.06571L16.6247 11.5022C16.3717 12.3052 16.6558 13.1834 17.3305 13.6894C17.6733 13.9442 18.095 14.0835 18.5185 14.0835C18.9108 14.0835 19.2922 13.968 19.624 13.748L22.0183 12.1457L24.4567 13.7334C25.1625 14.1935 26.081 14.1532 26.7502 13.6435C27.4193 13.1302 27.6925 12.2465 27.4193 11.4289L26.5852 9.05105L28.6275 7.38821C29.2637 6.85288 29.5002 5.96921 29.2142 5.18821C28.9282 4.40721 28.1802 3.88288 27.3478 3.88288H24.7848L23.8627 1.29238C23.5748 0.518713 22.8268 -0.00195312 22 -0.00195312C21.1732 -0.00195312 20.427 0.518713 20.1337 1.30338L19.2152 3.88105H16.6522C15.8235 3.88105 15.0737 4.40355 14.7895 5.17905C14.5017 5.95638 14.7345 6.84188 15.3817 7.39188L15.3835 7.39555ZM16.6522 5.71621H19.8623C20.251 5.71621 20.5957 5.47238 20.7258 5.10755L21.8607 1.92121H22.1393L23.2742 5.10755C23.4025 5.47238 23.749 5.71621 24.1377 5.71621H27.3478L27.4578 5.97655L24.9278 8.03905C24.6272 8.28288 24.5117 8.68805 24.6418 9.05288L25.6887 12.0375L25.454 12.1989L22.5097 10.2812C22.2017 10.0814 21.8038 10.085 21.4995 10.2867L18.6065 12.2245C18.579 12.2429 18.5515 12.252 18.5185 12.252L18.3682 12.0669L19.3747 9.04371C19.4938 8.68255 19.3783 8.28288 19.0832 8.04455L16.5403 5.97655L16.654 5.71988L16.6522 5.71621Z" fill="#1F6BFF"/>
</g>
<defs>
<clipPath id="clip0_174_268">
<rect width="44" height="44" fill="white"/>
</clipPath>
</defs>
</svg>
