<svg width="36" height="36" viewBox="0 0 36 36" fill="none" xmlns="http://www.w3.org/2000/svg">
<path d="M17.5794 1.51883L1.82938 10.5526C1.70228 10.6277 1.59694 10.7346 1.52377 10.8629C1.45059 10.9911 1.41211 11.1362 1.41211 11.2838C1.41211 11.4315 1.45059 11.5766 1.52377 11.7048C1.59694 11.833 1.70228 11.94 1.82938 12.0151L17.5794 21.0488C17.7084 21.1207 17.8536 21.1585 18.0013 21.1585C18.1489 21.1585 18.2942 21.1207 18.4231 21.0488L34.1731 12.0151C34.3011 11.9405 34.4073 11.8338 34.4813 11.7056C34.5553 11.5773 34.5945 11.4319 34.595 11.2838C35.405 10.8844 17.5906 0.720075 17.5794 1.51883Z" fill="white"/>
<path d="M33.3286 17.2687L18.0005 26.0606L2.67235 17.2687C2.47841 17.1568 2.24796 17.1266 2.03171 17.1846C1.81546 17.2426 1.63111 17.3842 1.51922 17.5781C1.40733 17.772 1.37707 18.0025 1.43509 18.2187C1.49311 18.435 1.63466 18.6193 1.8286 18.7312L17.5786 27.765C17.7067 27.8396 17.8522 27.8789 18.0005 27.8789C18.1487 27.8789 18.2943 27.8396 18.4223 27.765L34.1723 18.7312C34.3663 18.6193 34.5078 18.435 34.5658 18.2187C34.6239 18.0025 34.5936 17.772 34.4817 17.5781C34.3698 17.3842 34.1855 17.2426 33.9692 17.1846C33.753 17.1266 33.5225 17.1568 33.3286 17.2687Z" fill="white"/>
<path d="M33.3286 23.985L18.0005 32.7769L2.67235 23.985C2.47841 23.8732 2.24796 23.8429 2.03171 23.9009C1.81546 23.9589 1.63111 24.1005 1.51922 24.2944C1.40733 24.4884 1.37707 24.7188 1.43509 24.9351C1.49311 25.1513 1.63466 25.3357 1.8286 25.4475L17.5786 34.4813C17.7067 34.5559 17.8522 34.5952 18.0005 34.5952C18.1487 34.5952 18.2943 34.5559 18.4223 34.4813L34.1723 25.4475C34.3663 25.3357 34.5078 25.1513 34.5658 24.9351C34.6239 24.7188 34.5936 24.4884 34.4817 24.2944C34.3698 24.1005 34.1855 23.9589 33.9692 23.9009C33.753 23.8429 33.5225 23.8732 33.3286 23.985Z" fill="white"/>
</svg>
