<svg width="121" height="120" viewBox="0 0 121 120" fill="none" xmlns="http://www.w3.org/2000/svg">
<mask id="mask0_2001_73" style="mask-type:alpha" maskUnits="userSpaceOnUse" x="0" y="0" width="121" height="120">
<rect width="121" height="120" fill="#D9D9D9"/>
</mask>
<g mask="url(#mask0_2001_73)">
<path fill-rule="evenodd" clip-rule="evenodd" d="M-129 0V0C-166.712 0 -185.569 0 -197.284 11.7157C-209 23.4315 -209 42.2876 -209 80V80C-209 42.2876 -209 23.4315 -197.284 11.7157C-185.569 0 -166.712 0 -129 0ZM1 0C23.0914 0 41 17.9086 41 40C41 62.0914 58.9086 80 81 80C103.091 80 121 97.9086 121 120V80C121 42.2876 121 23.4315 109.284 11.7157C97.5685 0 78.7124 0 41 0H1ZM121 372C121 409.712 121 428.569 109.284 440.284C97.5685 452 78.7124 452 41 452V452C78.7124 452 97.5685 452 109.284 440.284C121 428.569 121 409.712 121 372V372ZM-129 452C-166.712 452 -185.569 452 -197.284 440.284C-209 428.569 -209 409.712 -209 372V372C-209 409.712 -209 428.569 -197.284 440.284C-185.569 452 -166.712 452 -129 452V452Z" fill="white"/>
</g>
</svg>
