<svg width="44" height="44" viewBox="0 0 44 44" fill="none" xmlns="http://www.w3.org/2000/svg">
<g clip-path="url(#clip0_174_250)">
<path d="M13.75 23.8333C18.2985 23.8333 22 20.1318 22 15.5833C22 11.0348 18.2985 7.33333 13.75 7.33333C9.2015 7.33333 5.5 11.0348 5.5 15.5833C5.5 20.1318 9.2015 23.8333 13.75 23.8333ZM13.75 9.16667C17.2883 9.16667 20.1667 12.045 20.1667 15.5833C20.1667 19.1217 17.2883 22 13.75 22C10.2117 22 7.33333 19.1217 7.33333 15.5833C7.33333 12.045 10.2117 9.16667 13.75 9.16667ZM27.5 41.25V43.0833C27.5 43.5893 27.0893 44 26.5833 44C26.0773 44 25.6667 43.5893 25.6667 43.0833V41.25C25.6667 34.6793 20.3207 29.3333 13.75 29.3333C7.17933 29.3333 1.83333 34.6793 1.83333 41.25V43.0833C1.83333 43.5893 1.42267 44 0.916667 44C0.410667 44 0 43.5893 0 43.0833V41.25C0 33.6673 6.16733 27.5 13.75 27.5C21.3327 27.5 27.5 33.6673 27.5 41.25ZM44 32.7488V33.9167C44 34.4227 43.5893 34.8333 43.0833 34.8333C42.5773 34.8333 42.1667 34.4227 42.1667 33.9167V32.7488C42.1667 26.8217 37.345 22 31.4178 22C28.93 22 26.862 22.5628 25.2743 23.6683C24.8563 23.958 24.2862 23.8572 23.9983 23.441C23.7105 23.0248 23.8095 22.4547 24.2257 22.165C26.1268 20.8377 28.5468 20.1667 31.4178 20.1667C38.3552 20.1667 44 25.8115 44 32.7488ZM32.0833 16.5C36.6318 16.5 40.3333 12.7985 40.3333 8.25C40.3333 3.7015 36.6318 0 32.0833 0C27.5348 0 23.8333 3.7015 23.8333 8.25C23.8333 12.7985 27.5348 16.5 32.0833 16.5ZM32.0833 1.83333C35.6217 1.83333 38.5 4.71167 38.5 8.25C38.5 11.7883 35.6217 14.6667 32.0833 14.6667C28.545 14.6667 25.6667 11.7883 25.6667 8.25C25.6667 4.71167 28.545 1.83333 32.0833 1.83333Z" fill="#1F6BFF"/>
</g>
<defs>
<clipPath id="clip0_174_250">
<rect width="44" height="44" fill="white"/>
</clipPath>
</defs>
</svg>
