<svg width="36" height="36" viewBox="0 0 36 36" fill="none" xmlns="http://www.w3.org/2000/svg">
<path d="M33.869 11.0812C29.6579 6.87758 23.9509 4.5166 18.0008 4.5166C12.0507 4.5166 6.34375 6.87758 2.1327 11.0812C1.98366 11.2412 1.90252 11.4527 1.90638 11.6713C1.91024 11.8899 1.99879 12.0985 2.15338 12.2531C2.30797 12.4077 2.51653 12.4962 2.73512 12.5001C2.9537 12.5039 3.16526 12.4228 3.3252 12.2737C7.22492 8.39568 12.5011 6.21882 18.0008 6.21882C23.5006 6.21882 28.7767 8.39568 32.6765 12.2737C32.7542 12.3529 32.847 12.4156 32.9494 12.4581C33.0519 12.5006 33.1618 12.5221 33.2727 12.5212C33.3837 12.5227 33.4938 12.5016 33.5964 12.459C33.6989 12.4164 33.7916 12.3534 33.869 12.2737C33.9479 12.1958 34.0105 12.1029 34.0533 12.0006C34.096 11.8982 34.1181 11.7884 34.1181 11.6775C34.1181 11.5666 34.096 11.4567 34.0533 11.3544C34.0105 11.252 33.9479 11.1592 33.869 11.0812Z" fill="white"/>
<path d="M6.35162 15.3058C6.19349 15.4646 6.10494 15.6798 6.10547 15.904C6.106 16.1282 6.19555 16.3429 6.35443 16.5011C6.51332 16.6592 6.72851 16.7478 6.95267 16.7472C7.17684 16.7467 7.39161 16.6571 7.54975 16.4983C10.3226 13.7283 14.0817 12.1725 18.001 12.1725C21.9203 12.1725 25.6794 13.7283 28.4522 16.4983C28.6114 16.6566 28.8268 16.7455 29.0513 16.7455C29.2758 16.7455 29.4912 16.6566 29.6504 16.4983C29.807 16.3393 29.8948 16.1252 29.8948 15.902C29.8948 15.6789 29.807 15.4647 29.6504 15.3058C26.5585 12.2205 22.3689 10.4878 18.001 10.4878C13.6331 10.4878 9.44354 12.2205 6.35162 15.3058Z" fill="white"/>
<path d="M18.0011 16.4532C16.6219 16.449 15.2555 16.7183 13.9811 17.2454C12.7066 17.7726 11.5493 18.5472 10.5761 19.5244C10.427 19.6844 10.3459 19.8959 10.3497 20.1145C10.3536 20.3331 10.4421 20.5417 10.5967 20.6962C10.7513 20.8508 10.9599 20.9394 11.1785 20.9432C11.3971 20.9471 11.6086 20.866 11.7686 20.7169C13.423 19.0668 15.6644 18.1401 18.0011 18.1401C20.3378 18.1401 22.5791 19.0668 24.2336 20.7169C24.3918 20.8749 24.6062 20.9637 24.8298 20.9637C25.0534 20.9637 25.2679 20.8749 25.4261 20.7169C25.505 20.639 25.5676 20.5461 25.6104 20.4438C25.6532 20.3414 25.6752 20.2316 25.6752 20.1207C25.6752 20.0097 25.6532 19.8999 25.6104 19.7976C25.5676 19.6952 25.505 19.6024 25.4261 19.5244C24.4528 18.5472 23.2955 17.7726 22.021 17.2454C20.7466 16.7183 19.3802 16.449 18.0011 16.4532Z" fill="white"/>
<path d="M14.8002 23.749C14.1665 24.3821 13.7349 25.1889 13.5599 26.0674C13.3849 26.9459 13.4744 27.8565 13.817 28.6841C14.1596 29.5117 14.74 30.2191 15.4847 30.7168C16.2294 31.2145 17.1051 31.4802 18.0008 31.4802C18.8965 31.4802 19.7721 31.2145 20.5168 30.7168C21.2616 30.2191 21.8419 29.5117 22.1846 28.6841C22.5272 27.8565 22.6166 26.9459 22.4416 26.0674C22.2666 25.1889 21.835 24.3821 21.2014 23.749C20.3516 22.9019 19.2007 22.4263 18.0008 22.4263C16.8009 22.4263 15.65 22.9019 14.8002 23.749Z" fill="white"/>
</svg>
