<svg width="36" height="36" viewBox="0 0 36 36" fill="none" xmlns="http://www.w3.org/2000/svg">
<path d="M11.7731 32.9066H8.31938C6.93391 32.9051 5.60562 32.354 4.62595 31.3744C3.64627 30.3947 3.09524 29.0664 3.09375 27.6809V24.9922C3.09375 24.7684 3.00486 24.5538 2.84662 24.3956C2.68839 24.2373 2.47378 24.1484 2.25 24.1484C2.02622 24.1484 1.81161 24.2373 1.65338 24.3956C1.49514 24.5538 1.40625 24.7684 1.40625 24.9922V27.6809C1.40774 29.514 2.13656 31.2715 3.4327 32.5676C4.72884 33.8637 6.48636 34.5926 8.31938 34.5941H11.7731C11.9969 34.5941 12.2115 34.5052 12.3697 34.3469C12.528 34.1887 12.6169 33.9741 12.6169 33.7503C12.6169 33.5265 12.528 33.3119 12.3697 33.1537C12.2115 32.9955 11.9969 32.9066 11.7731 32.9066Z" fill="white"/>
<path d="M33.7497 24.1484C33.5259 24.1484 33.3113 24.2373 33.1531 24.3956C32.9948 24.5538 32.9059 24.7684 32.9059 24.9922V27.6809C32.9044 29.0664 32.3534 30.3947 31.3737 31.3744C30.3941 32.354 29.0658 32.9051 27.6803 32.9066H24.2266C24.0028 32.9066 23.7882 32.9955 23.6299 33.1537C23.4717 33.3119 23.3828 33.5265 23.3828 33.7503C23.3828 33.9741 23.4717 34.1887 23.6299 34.3469C23.7882 34.5052 24.0028 34.5941 24.2266 34.5941H27.6803C29.5133 34.5926 31.2708 33.8637 32.567 32.5676C33.8631 31.2715 34.5919 29.514 34.5934 27.6809V24.9922C34.5934 24.7684 34.5045 24.5538 34.3463 24.3956C34.1881 24.2373 33.9735 24.1484 33.7497 24.1484Z" fill="white"/>
<path d="M27.6803 1.40625H24.2266C24.0028 1.40625 23.7882 1.49514 23.6299 1.65338C23.4717 1.81161 23.3828 2.02622 23.3828 2.25C23.3828 2.47378 23.4717 2.68839 23.6299 2.84662C23.7882 3.00486 24.0028 3.09375 24.2266 3.09375H27.6803C29.0658 3.09524 30.3941 3.64627 31.3737 4.62595C32.3534 5.60562 32.9044 6.93391 32.9059 8.31938V12.5381C32.9059 12.7619 32.9948 12.9765 33.1531 13.1347C33.3113 13.293 33.5259 13.3819 33.7497 13.3819C33.9735 13.3819 34.1881 13.293 34.3463 13.1347C34.5045 12.9765 34.5934 12.7619 34.5934 12.5381V8.31938C34.5919 6.48636 33.8631 4.72884 32.567 3.4327C31.2708 2.13656 29.5133 1.40774 27.6803 1.40625Z" fill="white"/>
<path d="M2.25 13.3819C2.47378 13.3819 2.68839 13.293 2.84662 13.1347C3.00486 12.9765 3.09375 12.7619 3.09375 12.5381V8.31938C3.09524 6.93391 3.64627 5.60562 4.62595 4.62595C5.60562 3.64627 6.93391 3.09524 8.31938 3.09375H11.7731C11.9969 3.09375 12.2115 3.00486 12.3697 2.84662C12.528 2.68839 12.6169 2.47378 12.6169 2.25C12.6169 2.02622 12.528 1.81161 12.3697 1.65338C12.2115 1.49514 11.9969 1.40625 11.7731 1.40625H8.31938C6.48636 1.40774 4.72884 2.13656 3.4327 3.4327C2.13656 4.72884 1.40774 6.48636 1.40625 8.31938V12.5381C1.40625 12.7619 1.49514 12.9765 1.65338 13.1347C1.81161 13.293 2.02622 13.3819 2.25 13.3819Z" fill="white"/>
<path d="M11.5659 15.0187H10.7503C9.80987 15.0202 8.9082 15.3937 8.24215 16.0576C7.5761 16.7215 7.19977 17.622 7.19531 18.5625V25.2506C7.19531 26.1934 7.56986 27.0977 8.23655 27.7643C8.90324 28.431 9.80747 28.8056 10.7503 28.8056H25.2516C26.1944 28.8056 27.0986 28.431 27.7653 27.7643C28.432 27.0977 28.8066 26.1934 28.8066 25.2506V18.5625C28.8066 17.6191 28.4322 16.7143 27.7657 16.0467C27.0991 15.3791 26.1949 15.0033 25.2516 15.0018H24.4359V13.6293C24.4359 11.9227 23.758 10.2859 22.5512 9.0791C21.3444 7.87231 19.7076 7.19434 18.0009 7.19434C16.2943 7.19434 14.6575 7.87231 13.4507 9.0791C12.2439 10.2859 11.5659 11.9227 11.5659 13.6293V15.0187ZM13.2534 13.6293C13.2534 12.3702 13.7536 11.1627 14.6439 10.2723C15.5343 9.38202 16.7418 8.88184 18.0009 8.88184C19.26 8.88184 20.4676 9.38202 21.3579 10.2723C22.2483 11.1627 22.7484 12.3702 22.7484 13.6293V15.0187H13.2534V13.6293Z" fill="white"/>
</svg>
