<svg width="36" height="36" viewBox="0 0 36 36" fill="none" xmlns="http://www.w3.org/2000/svg">
<path d="M9.15784 6.6883C9.34081 6.81816 9.56774 6.87034 9.78906 6.83346C10.0104 6.79657 10.2081 6.67361 10.3391 6.49142C11.3163 5.1031 12.7102 4.06199 14.3188 3.51898C15.9274 2.97596 17.6671 2.95924 19.2859 3.47124C20.9046 3.98325 22.3182 4.99737 23.322 6.36666C24.3257 7.73595 24.8674 9.38928 24.8685 11.087V13.7814H18.2703C18.0466 13.7814 17.832 13.8703 17.6737 14.0286C17.5155 14.1868 17.4266 14.4014 17.4266 14.6252C17.4266 14.849 17.5155 15.0636 17.6737 15.2218C17.832 15.38 18.0466 15.4689 18.2703 15.4689H25.6953C26.7152 15.4951 27.6851 15.9161 28.4007 16.6433C29.1163 17.3704 29.5217 18.3469 29.5316 19.3671V26.7302C29.5316 26.954 29.6205 27.1686 29.7787 27.3268C29.937 27.485 30.1516 27.5739 30.3753 27.5739C30.5991 27.5739 30.8137 27.485 30.972 27.3268C31.1302 27.1686 31.2191 26.954 31.2191 26.7302V19.3671C31.2095 18.049 30.7374 16.7763 29.8851 15.7708C29.0329 14.7654 27.8546 14.0911 26.556 13.8658V11.087C26.5559 9.0306 25.901 7.0276 24.6861 5.36838C23.4712 3.70915 21.7595 2.4799 19.7991 1.85881C17.8387 1.23772 15.7314 1.25706 13.7827 1.91402C11.834 2.57098 10.1452 3.83143 8.96096 5.51267C8.8314 5.69476 8.77937 5.9208 8.81628 6.1412C8.85319 6.3616 8.97603 6.55836 9.15784 6.6883Z" fill="white"/>
<path d="M33.2212 33.1538L4.2525 4.18505C4.17525 4.10215 4.0821 4.03566 3.97861 3.98955C3.87511 3.94343 3.76338 3.91863 3.65009 3.91664C3.5368 3.91464 3.42426 3.93548 3.3192 3.97791C3.21414 4.02035 3.1187 4.08351 3.03858 4.16363C2.95846 4.24375 2.8953 4.33919 2.85286 4.44425C2.81043 4.54932 2.78959 4.66185 2.79158 4.77514C2.79358 4.88843 2.81838 5.00016 2.8645 5.10366C2.91061 5.20716 2.9771 5.30031 3.06 5.37755L7.19437 9.51193V13.8657C5.89574 14.091 4.71747 14.7653 3.86522 15.7707C3.01296 16.7761 2.54084 18.0489 2.53125 19.3669V29.0082C2.53274 30.4891 3.1217 31.909 4.16889 32.9562C5.21607 34.0034 6.63593 34.5923 8.11687 34.5938H25.6331C26.4917 34.588 27.3375 34.3858 28.1058 34.0026C28.8741 33.6195 29.5445 33.0655 30.0656 32.3832L32.0287 34.3463C32.7937 35.1338 34.0087 33.9132 33.2212 33.1538ZM8.88187 11.2163L11.4637 13.7982H8.88187V11.2163Z" fill="white"/>
</svg>
