<svg width="44" height="44" viewBox="0 0 44 44" fill="none" xmlns="http://www.w3.org/2000/svg">
<path d="M42.548 29.9827L32.4225 39.076C28.8823 42.2514 24.3155 44.0022 19.5617 44.0022H0.916667C0.410667 44.0022 0 43.5915 0 43.0855C0 42.5795 0.410667 42.1689 0.916667 42.1689H19.5617C23.8627 42.1689 27.995 40.5867 31.1978 37.712L41.2885 28.6535C42.2767 27.6654 42.4673 26.0887 41.6973 25.018C41.2078 24.3397 40.491 23.929 39.6733 23.863C38.874 23.808 38.0783 24.0885 37.5045 24.6605L29.843 31.6419C29.0125 32.4815 27.8593 33.004 26.5852 33.004H17.4185C16.9125 33.004 16.5018 32.5934 16.5018 32.0874C16.5018 31.5814 16.9125 31.1707 17.4185 31.1707H26.5852C27.3185 31.1707 27.9858 30.881 28.479 30.4117C28.5028 30.3842 28.5285 30.3567 28.556 30.331L28.589 30.3017C29.051 29.8104 29.3352 29.1485 29.3352 28.4207C29.3352 26.9045 28.1013 25.6707 26.5852 25.6707H15.7465C11.0953 25.6707 6.721 27.482 3.43017 30.771L1.58217 32.718C1.23567 33.0902 0.652667 33.1012 0.287833 32.7529C-0.0806667 32.4064 -0.0953333 31.8252 0.253 31.4585L2.1175 29.495C5.77133 25.8412 10.6058 23.8392 15.7465 23.8392H26.5852C28.9612 23.8392 30.921 25.656 31.1465 27.9734L36.2395 23.335C37.1598 22.4129 38.4688 21.9252 39.8218 22.0389C41.1638 22.147 42.3885 22.8419 43.186 23.9492C44.4767 25.7404 44.2035 28.3364 42.5498 29.9864L42.548 29.9827ZM9.174 2.98322C9.11717 2.18205 9.41417 1.39372 9.98617 0.819884C10.5582 0.246051 11.3355 -0.0381157 12.1513 0.00771759C17.9575 0.416551 21.4042 2.60372 22.9167 7.07155C24.431 2.60372 27.8758 0.416551 33.6838 0.00771759C34.4832 -0.0307824 35.2733 0.246051 35.8472 0.819884C36.4192 1.39188 36.718 2.18205 36.6593 2.98505C36.102 10.8904 32.2502 14.4214 23.8333 14.6542V17.417C23.8333 17.923 23.4227 18.3337 22.9167 18.3337C22.4107 18.3337 22 17.923 22 17.417V14.6542C13.5832 14.4214 9.73133 10.8904 9.174 2.98322ZM23.8462 12.8209C31.2418 12.6064 34.3457 9.75372 34.8297 2.85305C34.8498 2.58172 34.7472 2.31222 34.551 2.11605C34.3695 1.93455 34.1293 1.83372 33.88 1.83372C33.858 1.83372 33.8378 1.83372 33.8158 1.83738C26.9133 2.32322 24.0625 5.42522 23.8462 12.8209ZM11.0037 2.85305C11.4895 9.75555 14.5915 12.6064 21.9872 12.8227C21.7727 5.42705 18.92 2.32322 12.0193 1.83922C11.9973 1.83922 11.9753 1.83555 11.9533 1.83555C11.704 1.83555 11.462 1.93822 11.2823 2.11788C11.0862 2.31405 10.9835 2.58355 11.0037 2.85305Z" fill="#1F6BFF"/>
</svg>
