<svg width="44" height="44" viewBox="0 0 44 44" fill="none" xmlns="http://www.w3.org/2000/svg">
<g clip-path="url(#clip0_174_256)">
<path d="M22.0001 44.0002C19.1786 44.0002 16.5185 42.7609 14.6998 40.6012C14.5256 40.3941 14.2983 40.3006 14.0105 40.3171C11.2091 40.5481 8.43895 39.5526 6.44429 37.5579C4.44962 35.5632 3.44312 32.8059 3.68512 29.9917C3.70895 29.7222 3.60629 29.4766 3.40095 29.3042C1.23945 27.4837 0.00195312 24.8217 0.00195312 22.0021C0.00195312 19.1824 1.24129 16.5204 3.40095 14.7017C3.60812 14.5276 3.71079 14.2819 3.68695 14.0124C3.44495 11.1982 4.45145 8.44091 6.44612 6.44624C8.43895 4.45341 11.1835 3.43957 14.0123 3.68707C14.2781 3.71274 14.5275 3.61007 14.7016 3.40291C16.5203 1.24141 19.1805 0.00390625 22.002 0.00390625C24.8235 0.00390625 27.4836 1.24324 29.3023 3.40291C29.4783 3.61007 29.7056 3.70724 29.9916 3.68707C32.7801 3.44874 35.5631 4.45157 37.5578 6.44624C39.5525 8.44091 40.559 11.1982 40.317 14.0124C40.2931 14.2819 40.3958 14.5276 40.6011 14.6999C42.7626 16.5204 44.0001 19.1824 44.0001 22.0021C44.0001 24.8217 42.7608 27.4837 40.6011 29.3024C40.394 29.4766 40.2913 29.7222 40.3151 29.9917C40.5571 32.8059 39.5506 35.5632 37.556 37.5579C35.5631 39.5507 32.8223 40.5701 29.9898 40.3171C29.7258 40.2969 29.4746 40.3959 29.3005 40.6012C27.4818 42.7627 24.8216 44.0002 22.0001 44.0002ZM14.0911 38.4782C14.8703 38.4782 15.5926 38.8137 16.1041 39.4206C17.5726 41.1659 19.7231 42.1669 22.002 42.1669C24.2808 42.1669 26.4313 41.1659 27.8998 39.4206C28.4608 38.7532 29.2876 38.4122 30.1511 38.4892C32.4263 38.6817 34.652 37.8714 36.2635 36.2599C37.875 34.6484 38.6871 32.4209 38.4928 30.1457C38.4195 29.2767 38.7586 28.4591 39.426 27.8981C41.1695 26.4277 42.1705 24.2772 42.1705 22.0002C42.1705 19.7232 41.1695 17.5709 39.4241 16.1006C38.7586 15.5414 38.4195 14.7219 38.4928 13.8529C38.6871 11.5777 37.875 9.35024 36.2635 7.73874C34.6501 6.12724 32.408 5.31507 30.1511 5.50941C29.2711 5.59007 28.4626 5.24541 27.8998 4.57807C26.4313 2.83274 24.2808 1.83174 22.002 1.83174C19.7231 1.83174 17.5726 2.83274 16.1041 4.57807C15.5413 5.24541 14.7071 5.58824 13.8528 5.50941C11.574 5.31324 9.35195 6.12724 7.74045 7.73874C6.12895 9.35024 5.31679 11.5777 5.51112 13.8529C5.58445 14.7219 5.24529 15.5396 4.57795 16.1006C2.83445 17.5709 1.83345 19.7214 1.83345 21.9984C1.83345 24.2754 2.83445 26.4277 4.57979 27.8981C5.24529 28.4572 5.58445 29.2767 5.51112 30.1457C5.31679 32.4209 6.12895 34.6484 7.74045 36.2599C9.35195 37.8714 11.5886 38.6781 13.8528 38.4892C13.9335 38.4819 14.0123 38.4782 14.0911 38.4782ZM22.8325 26.1692L31.5206 17.7946C31.8855 17.4444 31.8965 16.8632 31.5463 16.4984C31.1943 16.1372 30.615 16.1226 30.2501 16.4746L21.5491 24.8602C20.4766 25.9309 18.7313 25.9309 17.6368 24.8364L13.4605 20.9552C13.0901 20.6124 12.509 20.6326 12.1643 21.0029C11.8196 21.3732 11.8398 21.9544 12.2101 22.2991L16.3645 26.1564C17.2591 27.0511 18.4361 27.4984 19.6095 27.4984C20.7828 27.4984 21.947 27.0547 22.8343 26.1674L22.8325 26.1692Z" fill="#1F6BFF"/>
</g>
<defs>
<clipPath id="clip0_174_256">
<rect width="44" height="44" fill="white"/>
</clipPath>
</defs>
</svg>
