<svg width="36" height="36" viewBox="0 0 36 36" fill="none" xmlns="http://www.w3.org/2000/svg">
<path d="M10.8502 5.82234C12.5611 4.39134 14.6448 3.47819 16.8567 3.19009C19.0685 2.90199 21.3166 3.25091 23.3371 4.19587C25.3575 5.14083 27.0664 6.64262 28.2632 8.5249C29.4599 10.4072 30.0948 12.5918 30.0933 14.8223C30.0933 17.0723 29.2833 20.1098 27.8433 23.1305C27.7478 23.3333 27.7368 23.5659 27.8128 23.7768C27.8887 23.9878 28.0454 24.16 28.2483 24.2555C28.4512 24.3509 28.6837 24.3619 28.8947 24.286C29.1056 24.21 29.2778 24.0534 29.3733 23.8505C30.9145 20.5655 31.7583 17.3592 31.7583 14.8505C31.7596 12.3011 31.0346 9.80421 29.668 7.65209C28.3015 5.49997 26.3501 3.78176 24.0423 2.69868C21.7345 1.61561 19.1658 1.21251 16.6372 1.53659C14.1086 1.86067 11.7246 2.89852 9.76453 4.52859C9.67958 4.59987 9.6095 4.68719 9.5583 4.78555C9.50709 4.88392 9.47577 4.9914 9.4661 5.10188C9.45644 5.21235 9.46863 5.32364 9.50198 5.42941C9.53533 5.53517 9.58918 5.63332 9.66046 5.71827C9.73175 5.80322 9.81906 5.8733 9.91743 5.9245C10.0158 5.97571 10.1233 6.00703 10.2338 6.0167C10.3442 6.02636 10.4555 6.01417 10.5613 5.98082C10.667 5.94747 10.7652 5.89362 10.8502 5.82234Z" fill="white"/>
<path d="M22.6839 18.7258C22.8619 18.859 23.0852 18.9165 23.3053 18.8859C23.5254 18.8554 23.7246 18.7393 23.8596 18.5627C24.8307 17.2559 25.2999 15.6437 25.1816 14.0198C25.0634 12.396 24.3655 10.8688 23.2153 9.71647C22.065 8.56419 20.539 7.86361 18.9154 7.74246C17.2918 7.62131 15.6787 8.08765 14.3702 9.05647C14.2718 9.11776 14.1872 9.19865 14.1214 9.2941C14.0557 9.38955 14.0104 9.49751 13.9882 9.61126C13.9661 9.72501 13.9676 9.8421 13.9927 9.95523C14.0178 10.0684 14.0659 10.1751 14.134 10.2688C14.2022 10.3626 14.2889 10.4412 14.3888 10.5C14.4887 10.5587 14.5997 10.5962 14.7147 10.6102C14.8297 10.6241 14.9464 10.6143 15.0575 10.5812C15.1685 10.548 15.2716 10.4924 15.3602 10.4177C16.3435 9.70434 17.5489 9.36479 18.7599 9.46004C19.971 9.55528 21.1085 10.0791 21.9682 10.9374C22.8279 11.7958 23.3535 12.9324 23.4506 14.1433C23.5478 15.3543 23.2102 16.5602 22.4983 17.5446C22.432 17.634 22.3841 17.7357 22.3575 17.8438C22.3309 17.9519 22.3261 18.0642 22.3434 18.1742C22.3607 18.2841 22.3997 18.3895 22.4582 18.4843C22.5166 18.579 22.5934 18.6611 22.6839 18.7258Z" fill="white"/>
<path d="M31.7748 30.224L5.41608 3.86529C5.25719 3.70716 5.042 3.61862 4.81784 3.61914C4.59367 3.61967 4.3789 3.70923 4.22076 3.86811C4.06263 4.02699 3.97408 4.24218 3.97461 4.46635C3.97514 4.69051 4.06469 4.90528 4.22358 5.06342L6.9517 7.79154C5.63289 9.90149 4.935 12.3402 4.93795 14.8284C4.93795 21.7415 11.8398 34.5947 18.3592 34.5947C22.0942 34.5947 25.4186 30.4659 27.1061 27.9403L30.5823 31.4165C30.6604 31.4952 30.7533 31.5575 30.8557 31.6C30.958 31.6425 31.0678 31.6643 31.1786 31.664C31.4022 31.6632 31.6164 31.5743 31.7748 31.4165C31.8537 31.3386 31.9164 31.2457 31.9592 31.1434C32.0019 31.041 32.0239 30.9312 32.0239 30.8203C32.0239 30.7094 32.0019 30.5995 31.9592 30.4972C31.9164 30.3948 31.8537 30.302 31.7748 30.224ZM13.2798 14.114L18.7979 19.6322C18.6517 19.6322 18.5054 19.6322 18.3592 19.6322C17.0066 19.6307 15.7097 19.0927 14.7533 18.1362C13.7968 17.1798 13.2588 15.8829 13.2573 14.5303C13.2573 14.4009 13.2686 14.2547 13.2798 14.114Z" fill="white"/>
</svg>
