<svg width="44" height="44" viewBox="0 0 44 44" fill="none" xmlns="http://www.w3.org/2000/svg">
<path d="M44 14.6663C44 17.3503 43.0778 20.2818 41.261 23.3802C41.0887 23.6717 40.7825 23.833 40.469 23.833C40.3095 23.833 40.15 23.7927 40.0052 23.7065C39.5688 23.4498 39.4222 22.8888 39.677 22.4525C41.327 19.6383 42.1648 17.0203 42.1648 14.6663C42.1648 8.90967 37.3597 3.66634 32.0815 3.66634C27.7658 3.66634 25.5567 5.36584 23.496 7.25784L15.6292 15.0458C14.5493 16.1257 14.3477 17.7977 15.1653 18.9325C15.6842 19.653 16.4468 20.0875 17.314 20.1572C18.1683 20.2213 19.008 19.9188 19.613 19.3138L27.7713 11.2655C28.1307 10.9098 28.7137 10.9135 29.0675 11.2747C29.4232 11.634 29.4195 12.2152 29.0602 12.5708L26.4275 15.1687L36.1753 23.7248C37.9427 25.274 38.3863 27.8627 37.2075 29.7473C36.4815 30.9097 35.2935 31.6907 33.9533 31.8868C33.5225 31.951 33.088 31.9547 32.6627 31.8942C32.901 33.0235 32.7305 34.2152 32.109 35.2107C31.3812 36.3748 30.1932 37.154 28.853 37.3502C28.2168 37.4437 27.5807 37.4033 26.9793 37.2383C27.0527 38.1807 26.8492 39.134 26.334 39.9535C25.608 41.1158 24.42 41.8968 23.0798 42.093C22.8543 42.126 22.6307 42.1425 22.407 42.1425C21.2942 42.1425 20.2125 41.741 19.3655 40.9967L13.4237 35.6653C4.39083 27.5015 0 20.6338 0 14.6663C0 7.82984 5.56967 1.83301 11.9167 1.83301C14.0433 1.83301 16.1682 2.52234 18.0657 3.82767C18.4837 4.11551 18.5882 4.68567 18.3022 5.10184C18.0162 5.52167 17.446 5.62617 17.028 5.33834C15.4385 4.24384 13.6712 3.66634 11.9185 3.66634C6.64217 3.66634 1.83517 8.90967 1.83517 14.6663C1.83517 20.0105 6.14717 26.6178 14.652 34.3032L20.5828 39.6253C21.1897 40.1588 22.0037 40.3953 22.8158 40.2798C23.6353 40.1607 24.3357 39.6987 24.783 38.9818C25.4907 37.8525 25.1955 36.2722 24.0955 35.3078L17.9795 29.4943C17.6128 29.146 17.5982 28.5667 17.9465 28.2C18.293 27.8315 18.8742 27.8168 19.2408 28.1633L26.3743 34.8972C26.9628 35.4142 27.7787 35.6598 28.589 35.537C29.4085 35.4178 30.1088 34.9558 30.558 34.239C31.2638 33.1115 30.9687 31.5312 29.8687 30.5668L23.0578 24.4013C22.6838 24.0622 22.6527 23.4847 22.99 23.1088C23.3255 22.7312 23.903 22.7 24.2825 23.0355L31.4527 29.4173C32.0632 29.9508 32.8735 30.191 33.6893 30.0737C34.5088 29.9527 35.2073 29.4925 35.6565 28.7757C36.3623 27.6463 36.0672 26.066 34.9672 25.1035L25.1203 16.4593L20.9073 20.6155C19.9247 21.5982 18.5607 22.0913 17.1692 21.9868C15.7777 21.8732 14.5053 21.1527 13.6803 20.005C12.3438 18.1497 12.6262 15.4602 14.3385 13.7478L22.2328 5.93417C24.5025 3.84784 27.1113 1.83484 32.0833 1.83484C38.4322 1.83484 44 7.83167 44 14.6682V14.6663Z" fill="#1F6BFF"/>
</svg>
