<svg width="44" height="44" viewBox="0 0 44 44" fill="none" xmlns="http://www.w3.org/2000/svg">
<g clip-path="url(#clip0_174_280)">
<path d="M9.86937 32.4905C10.203 32.8241 10.643 32.9983 11.094 32.9983C11.3177 32.9983 11.545 32.9561 11.7614 32.8663C12.4122 32.5968 12.832 31.9661 12.832 31.2621V23.7271C13.9632 22.5703 14.6654 20.9918 14.6654 19.2501C14.6654 15.7118 11.787 12.8335 8.2487 12.8335C4.71037 12.8335 1.83203 15.7118 1.83203 19.2501C1.83203 20.9918 2.5342 22.5685 3.66536 23.7271V31.2621C3.66536 31.9661 4.0852 32.5968 4.73603 32.8663C5.3887 33.134 6.1312 32.9891 6.66103 32.4556L8.24687 30.7011L9.8657 32.4905H9.86937ZM3.6672 19.2501C3.6672 16.722 5.7242 14.6668 8.25053 14.6668C10.7769 14.6668 12.8339 16.722 12.8339 19.2501C12.8339 21.7783 10.7769 23.8335 8.25053 23.8335C5.7242 23.8335 3.6672 21.7783 3.6672 19.2501ZM5.50053 31.0091V25.0233C6.33653 25.4248 7.26237 25.6668 8.25053 25.6668C9.2387 25.6668 10.1645 25.423 11.0005 25.0233V31.0091L8.9307 28.7193C8.5842 28.3325 7.91687 28.3325 7.57037 28.7193L5.50053 31.0091ZM16.5005 35.7501C16.5005 35.2441 16.9112 34.8335 17.4172 34.8335H33.9172C34.4232 34.8335 34.8339 35.2441 34.8339 35.7501C34.8339 36.2561 34.4232 36.6668 33.9172 36.6668H17.4172C16.9112 36.6668 16.5005 36.2561 16.5005 35.7501ZM19.2505 22.0001C18.7445 22.0001 18.3339 21.5895 18.3339 21.0835C18.3339 20.5775 18.7445 20.1668 19.2505 20.1668H33.9172C34.4232 20.1668 34.8339 20.5775 34.8339 21.0835C34.8339 21.5895 34.4232 22.0001 33.9172 22.0001H19.2505ZM17.4172 27.5001H33.9172C34.4232 27.5001 34.8339 27.9108 34.8339 28.4168C34.8339 28.9228 34.4232 29.3335 33.9172 29.3335H17.4172C16.9112 29.3335 16.5005 28.9228 16.5005 28.4168C16.5005 27.9108 16.9112 27.5001 17.4172 27.5001ZM40.5099 9.87995L34.1207 3.49262C31.8712 1.24129 28.8792 0.00195312 25.6947 0.00195312H15.5839C11.0354 0.00195312 7.33387 3.70345 7.33387 8.25195C7.33387 8.75795 7.74453 9.16862 8.25053 9.16862C8.75653 9.16862 9.1672 8.75795 9.1672 8.25195C9.1672 4.71362 12.0455 1.83529 15.5839 1.83529H25.6947C26.3089 1.83529 26.9102 1.90495 27.5005 2.01129V11.9186C27.5005 14.4468 29.5575 16.502 32.0839 16.502H41.9912C42.0975 17.0941 42.1672 17.6955 42.1672 18.3078V35.752C42.1672 39.2903 39.2889 42.1686 35.7505 42.1686H15.5839C12.6542 42.1686 10.0985 40.1905 9.36887 37.3561C9.2442 36.8648 8.74003 36.577 8.25237 36.698C7.76103 36.8245 7.46587 37.325 7.59237 37.8145C8.53103 41.4573 11.8164 44.002 15.582 44.002H35.7487C40.2972 44.002 43.9987 40.3005 43.9987 35.752V18.3078C43.9987 15.127 42.7594 12.1331 40.508 9.87995H40.5099ZM32.0839 14.6668C30.5677 14.6668 29.3339 13.433 29.3339 11.9168V2.52829C30.6245 3.02879 31.8162 3.77862 32.8245 4.78695L39.2137 11.1743C40.222 12.1845 40.9719 13.3743 41.4705 14.665L32.0839 14.6668Z" fill="#1F6BFF"/>
</g>
<defs>
<clipPath id="clip0_174_280">
<rect width="44" height="44" fill="white"/>
</clipPath>
</defs>
</svg>
