<svg width="44" height="44" viewBox="0 0 44 44" fill="none" xmlns="http://www.w3.org/2000/svg">
<g clip-path="url(#clip0_174_286)">
<path d="M43.3334 18.8486L41.1389 14.7492C40.334 13.2441 38.5722 12.5327 36.9387 13.0626L22.0025 17.9337L7.06452 13.0626C5.42735 12.5309 3.66918 13.2441 2.86435 14.7492L0.690017 18.8101C-0.0653168 20.0659 -0.208317 21.5747 0.299517 22.9497C0.805517 24.3247 1.89635 25.3789 3.28602 25.8427L3.67102 25.9711L3.66002 32.6096C3.66002 36.1681 5.92419 39.3159 9.30119 40.4416L18.2149 43.4134C19.4304 43.8186 20.7064 44.0202 21.9842 44.0202C23.262 44.0202 24.538 43.8186 25.7535 43.4134L34.6745 40.4397C38.0534 39.3141 40.3249 36.1699 40.3267 32.6169V25.9711L40.7154 25.8409C42.105 25.3771 43.1959 24.3229 43.7019 22.9479C44.2097 21.5729 44.0667 20.0641 43.3334 18.8486ZM2.01918 22.3154C1.70568 21.4647 1.79368 20.5316 2.28502 19.7157L4.47952 15.6164C4.78018 15.0536 5.35952 14.7236 5.97002 14.7236C6.14419 14.7236 6.32019 14.7511 6.49435 14.8079L20.6459 19.4224L17.0305 26.0866C16.321 27.2691 14.9112 27.7934 13.6077 27.3516L3.86718 24.1047C3.00735 23.8187 2.33452 23.1661 2.01918 22.3172V22.3154ZM21.0565 42.1447C20.2884 42.0751 19.5294 41.9174 18.796 41.6717L9.88235 38.6999C7.25519 37.8236 5.49152 35.3779 5.49335 32.6096L5.50252 26.5816L13.0265 29.0896C13.5289 29.2564 14.0404 29.3371 14.5427 29.3371C16.1744 29.3371 17.7235 28.4882 18.6219 26.9922L21.0675 22.4877L21.0565 42.1447ZM38.4934 32.6169C38.4934 35.3797 36.7242 37.8236 34.0952 38.6981L25.1742 41.6717C24.4335 41.9192 23.6654 42.0769 22.8899 42.1466L22.9009 22.4236L25.3979 27.0252C26.2779 28.4956 27.8234 29.3371 29.4532 29.3371C29.9574 29.3371 30.4707 29.2564 30.973 29.0896L38.4934 26.5834V32.6169ZM41.9822 22.3154C41.6669 23.1642 40.994 23.8151 40.1342 24.1029L30.3937 27.3497C29.0829 27.7879 27.6785 27.2636 26.991 26.1177L23.3574 19.4206L37.5089 14.8061C38.2935 14.5476 39.1387 14.8941 39.5255 15.6146L41.742 19.7542C42.2114 20.5316 42.2994 21.4647 41.9859 22.3136L41.9822 22.3154ZM8.72552 10.7269C8.37169 10.3676 8.37535 9.78456 8.73652 9.43073L17.5035 0.801227C18.5669 -0.265773 20.3122 -0.267606 21.3865 0.806727L24.8424 4.26256C25.8837 3.33123 27.6199 3.35873 28.6245 4.36339L33.6735 9.41056C34.031 9.76806 34.031 10.3492 33.6735 10.7067C33.316 11.0642 32.7349 11.0642 32.3774 10.7067L27.3284 5.65956C26.9709 5.30206 26.3897 5.30206 26.0322 5.65956L18.059 13.4879C17.8794 13.6639 17.6465 13.7519 17.4155 13.7519C17.1772 13.7519 16.9407 13.6602 16.7629 13.4787C16.409 13.1176 16.4145 12.5364 16.7739 12.1826L23.5315 5.54773L20.0885 2.10473C19.731 1.74723 19.1499 1.74723 18.7924 2.10473L10.0217 10.7361C9.84202 10.9121 9.61102 11.0001 9.37819 11.0001C9.14169 11.0001 8.90335 10.9084 8.72552 10.7269Z" fill="#1F6BFF"/>
</g>
<defs>
<clipPath id="clip0_174_286">
<rect width="44" height="44" fill="white"/>
</clipPath>
</defs>
</svg>
