<svg width="44" height="44" viewBox="0 0 44 44" fill="none" xmlns="http://www.w3.org/2000/svg">
<g clip-path="url(#clip0_174_262)">
<path d="M28.416 11C25.8897 11 23.8327 13.057 23.8327 15.5833C23.8327 18.1097 25.8897 20.1667 28.416 20.1667C30.9424 20.1667 32.9994 18.1097 32.9994 15.5833C32.9994 13.057 30.9424 11 28.416 11ZM28.416 18.3333C26.8999 18.3333 25.666 17.0995 25.666 15.5833C25.666 14.0672 26.8999 12.8333 28.416 12.8333C29.9322 12.8333 31.166 14.0672 31.166 15.5833C31.166 17.0995 29.9322 18.3333 28.416 18.3333ZM43.9994 4.664C43.9994 2.09183 41.9057 0 39.3079 0C29.8479 0.2695 22.267 4.15983 15.678 12.1825C12.708 12.2173 9.74355 12.9378 7.08705 14.2707C3.93005 15.8565 1.42205 18.2472 0.375218 20.6653C-0.282948 22.187 -0.108781 24.0167 0.828052 25.4412C1.68788 26.7483 3.02805 27.4982 4.50572 27.4982H9.16422C11.5952 27.4982 13.445 28.116 14.6624 29.3333C15.9145 30.5855 16.4975 32.274 16.4975 34.6482V39.3067C16.4975 40.8173 17.306 42.2492 18.6609 43.1402C19.528 43.7103 20.507 44.0018 21.475 44.0018C22.1112 44.0018 22.74 43.8772 23.3304 43.6205C25.7485 42.5755 28.1411 40.0675 29.725 36.9087C31.0579 34.254 31.7784 31.2895 31.8132 28.3177C39.8359 21.7305 43.7262 14.146 43.9957 4.66217L43.9994 4.664ZM2.36255 24.4365C1.76122 23.5198 1.64572 22.3557 2.06005 21.3932C2.94005 19.3582 5.12722 17.3067 7.91022 15.9097C9.86455 14.9288 12.004 14.3147 14.182 14.1002C13.9895 14.3587 13.797 14.6208 13.6064 14.8885C10.6675 18.986 8.36122 23.9983 7.62605 25.6667H4.50755C3.65688 25.6667 2.87588 25.2175 2.36255 24.4365ZM28.0915 36.0873C26.6927 38.8722 24.643 41.0575 22.608 41.9375C21.7024 42.3317 20.5785 42.2015 19.671 41.6075C18.8222 41.0483 18.3345 40.2105 18.3345 39.3067V36.2028C20.0267 35.5025 25.0244 33.3227 29.1127 30.3893C29.3785 30.1987 29.6407 30.0062 29.901 29.8137C29.6865 31.9917 29.0724 34.133 28.0915 36.0873ZM28.0439 28.9025C24.61 31.3647 20.3842 33.3245 18.3272 34.2137C18.252 31.5755 17.4747 29.5515 15.9622 28.0372C14.4735 26.5485 12.3469 25.7547 9.63722 25.6722C10.5832 23.6042 12.6384 19.3875 15.0987 15.9555C21.8032 6.60183 29.5124 2.11383 39.3354 1.83333C40.8974 1.83333 42.166 3.10383 42.166 4.63833C41.8855 14.487 37.3975 22.1962 28.042 28.9025H28.0439ZM3.17472 34.342C2.06738 35.4475 0.496218 39.2957 0.0562185 41.2207C-0.119782 41.987 0.109385 42.7772 0.664885 43.3327C1.09755 43.7653 1.67138 43.9982 2.26722 43.9982C2.43772 43.9982 2.60822 43.9798 2.77872 43.9395C4.70372 43.4995 8.55005 41.9283 9.65738 40.821C10.5245 39.9557 10.9994 38.8043 10.9994 37.5797C10.9994 36.355 10.5227 35.2037 9.65738 34.3383C7.92855 32.6077 4.90538 32.6077 3.17655 34.3383L3.17472 34.342ZM8.35938 39.5267C7.64255 40.2435 4.28388 41.7157 2.36805 42.1538C2.16455 42.1997 2.02338 42.1007 1.96105 42.0365C1.89688 41.9723 1.79605 41.8348 1.84372 41.6295C2.28188 39.7137 3.75405 36.355 4.47088 35.6382C4.98972 35.1193 5.68088 34.8333 6.41605 34.8333C7.15122 34.8333 7.84055 35.1193 8.36122 35.6382C8.88188 36.157 9.16605 36.8482 9.16605 37.5833C9.16605 38.3185 8.88005 39.0078 8.36122 39.5285L8.35938 39.5267Z" fill="#1F6BFF"/>
</g>
<defs>
<clipPath id="clip0_174_262">
<rect width="44" height="44" fill="white"/>
</clipPath>
</defs>
</svg>
