<svg width="60" height="60" viewBox="0 0 60 60" fill="none" xmlns="http://www.w3.org/2000/svg">
<path d="M44.604 3.80859V8.51391H50.004L44.604 3.80859Z" fill="white"/>
<path d="M36.4006 14.9594V8.96289H9.04834V56.8959H43.9205V15.5453H36.9865C36.8311 15.5453 36.6821 15.4836 36.5722 15.3737C36.4623 15.2638 36.4006 15.1148 36.4006 14.9594ZM14.1797 23.0856H23.4376V24.2575H14.1797V23.0856ZM12.211 26.1325H11.0391V14.9789H12.211V26.1325ZM12.211 13.5934H11.0391V11.8616H12.211V13.5934ZM38.6719 52.3825H14.1797V51.2106H38.6719V52.3825ZM38.6719 47.695H14.1797V46.5231H38.6719V47.695ZM38.6719 43.0075H14.1797V41.8356H38.6719V43.0075ZM38.6719 38.32H14.1797V37.1481H38.6719V38.32ZM38.6719 33.6325H14.1797V32.4606H38.6719V33.6325ZM38.6719 28.945H14.1797V27.7731H38.6719V28.945Z" fill="white"/>
<path d="M44.0178 9.68594C43.8624 9.68594 43.7134 9.62421 43.6035 9.51432C43.4936 9.40444 43.4319 9.2554 43.4319 9.1V3.10352H16.0796V7.79102H36.7488C36.7682 7.79102 36.7877 7.79207 36.8074 7.79395L37.3982 7.96164L44.8918 14.4912C44.9549 14.5462 45.0055 14.6141 45.0402 14.6903C45.0748 14.7665 45.0928 14.8493 45.0927 14.933V51.0365H50.9521V9.68594H44.0178Z" fill="white"/>
<path d="M37.5728 14.3733H42.9728L37.5728 9.66797V14.3733Z" fill="white"/>
</svg>
