<svg width="52" height="52" viewBox="0 0 52 52" fill="none" xmlns="http://www.w3.org/2000/svg">
<g clip-path="url(#clip0_177_2031)">
<path d="M13 0H2.16667C0.970667 0 0 0.970667 0 2.16667V13C0 14.196 0.970667 15.1667 2.16667 15.1667H13C14.196 15.1667 15.1667 14.196 15.1667 13V2.16667C15.1667 0.970667 14.196 0 13 0Z" fill="white"/>
<path d="M33.5841 13V2.16667C33.5841 0.970667 32.6135 0 31.4175 0H20.5841C19.3881 0 18.4175 0.970667 18.4175 2.16667V13C18.4175 14.196 19.3881 15.1667 20.5841 15.1667H31.4175C32.6135 15.1667 33.5841 14.196 33.5841 13Z" fill="white"/>
<path d="M33.5834 20.5832C33.5834 19.3872 32.6127 18.4165 31.4167 18.4165H18.4167H15.1667H2.16667C0.970667 18.4165 0 19.3872 0 20.5832V31.4165C0 32.6125 0.970667 33.5832 2.16667 33.5832H31.4167C32.6127 33.5832 33.5834 32.6125 33.5834 31.4165V20.5832Z" fill="white"/>
<path d="M49.8325 0H38.9992C37.8032 0 36.8325 0.970667 36.8325 2.16667V13C36.8325 14.196 37.8032 15.1667 38.9992 15.1667H49.8325C51.0285 15.1667 51.9992 14.196 51.9992 13V2.16667C51.9992 0.970667 51.0285 0 49.8325 0Z" fill="white"/>
<path d="M0 39.0002V49.8335C0 51.0295 0.970667 52.0002 2.16667 52.0002H31.4167C32.6127 52.0002 33.5834 51.0295 33.5834 49.8335V39.0002C33.5834 37.8042 32.6127 36.8335 31.4167 36.8335H2.16667C0.970667 36.8335 0 37.8042 0 39.0002Z" fill="white"/>
<path d="M38.9992 33.5832H49.8325C51.0285 33.5832 51.9992 32.6125 51.9992 31.4165V20.5832C51.9992 19.3872 51.0285 18.4165 49.8325 18.4165H38.9992C37.8032 18.4165 36.8325 19.3872 36.8325 20.5832V31.4165C36.8325 32.6125 37.8032 33.5832 38.9992 33.5832Z" fill="white"/>
<path d="M38.9992 52.0002H49.8325C51.0285 52.0002 51.9992 51.0295 51.9992 49.8335V39.0002C51.9992 37.8042 51.0285 36.8335 49.8325 36.8335H38.9992C37.8032 36.8335 36.8325 37.8042 36.8325 39.0002V49.8335C36.8325 51.0295 37.8032 52.0002 38.9992 52.0002Z" fill="white"/>
</g>
<defs>
<clipPath id="clip0_177_2031">
<rect width="52" height="52" fill="white"/>
</clipPath>
</defs>
</svg>
