<svg width="60" height="60" viewBox="0 0 60 60" fill="none" xmlns="http://www.w3.org/2000/svg">
<path d="M50.625 3.75H9.375C7.88316 3.75 6.45242 4.34263 5.39752 5.39752C4.34263 6.45242 3.75 7.88316 3.75 9.375V18.75H56.25V9.375C56.25 7.88316 55.6574 6.45242 54.6025 5.39752C53.5476 4.34263 52.1168 3.75 50.625 3.75ZM13.125 13.125H11.25C10.7527 13.125 10.2758 12.9275 9.92418 12.5758C9.57254 12.2242 9.375 11.7473 9.375 11.25C9.375 10.7527 9.57254 10.2758 9.92418 9.92418C10.2758 9.57254 10.7527 9.375 11.25 9.375H13.125C13.6223 9.375 14.0992 9.57254 14.4508 9.92418C14.8025 10.2758 15 10.7527 15 11.25C15 11.7473 14.8025 12.2242 14.4508 12.5758C14.0992 12.9275 13.6223 13.125 13.125 13.125ZM22.5 13.125H20.625C20.1277 13.125 19.6508 12.9275 19.2992 12.5758C18.9475 12.2242 18.75 11.7473 18.75 11.25C18.75 10.7527 18.9475 10.2758 19.2992 9.92418C19.6508 9.57254 20.1277 9.375 20.625 9.375H22.5C22.9973 9.375 23.4742 9.57254 23.8258 9.92418C24.1775 10.2758 24.375 10.7527 24.375 11.25C24.375 11.7473 24.1775 12.2242 23.8258 12.5758C23.4742 12.9275 22.9973 13.125 22.5 13.125Z" fill="white"/>
<path d="M15 31.875H24.375V46.875H15V31.875Z" fill="white"/>
<path d="M3.75 50.625C3.75 52.1168 4.34263 53.5476 5.39752 54.6025C6.45242 55.6574 7.88316 56.25 9.375 56.25H50.625C52.1168 56.25 53.5476 55.6574 54.6025 54.6025C55.6574 53.5476 56.25 52.1168 56.25 50.625V22.5H3.75V50.625ZM33.75 30H46.875C47.3723 30 47.8492 30.1975 48.2008 30.5492C48.5525 30.9008 48.75 31.3777 48.75 31.875C48.75 32.3723 48.5525 32.8492 48.2008 33.2008C47.8492 33.5525 47.3723 33.75 46.875 33.75H33.75C33.2527 33.75 32.7758 33.5525 32.4242 33.2008C32.0725 32.8492 31.875 32.3723 31.875 31.875C31.875 31.3777 32.0725 30.9008 32.4242 30.5492C32.7758 30.1975 33.2527 30 33.75 30ZM33.75 37.5H46.875C47.3723 37.5 47.8492 37.6975 48.2008 38.0492C48.5525 38.4008 48.75 38.8777 48.75 39.375C48.75 39.8723 48.5525 40.3492 48.2008 40.7008C47.8492 41.0525 47.3723 41.25 46.875 41.25H33.75C33.2527 41.25 32.7758 41.0525 32.4242 40.7008C32.0725 40.3492 31.875 39.8723 31.875 39.375C31.875 38.8777 32.0725 38.4008 32.4242 38.0492C32.7758 37.6975 33.2527 37.5 33.75 37.5ZM33.75 45H46.875C47.3723 45 47.8492 45.1975 48.2008 45.5492C48.5525 45.9008 48.75 46.3777 48.75 46.875C48.75 47.3723 48.5525 47.8492 48.2008 48.2008C47.8492 48.5525 47.3723 48.75 46.875 48.75H33.75C33.2527 48.75 32.7758 48.5525 32.4242 48.2008C32.0725 47.8492 31.875 47.3723 31.875 46.875C31.875 46.3777 32.0725 45.9008 32.4242 45.5492C32.7758 45.1975 33.2527 45 33.75 45ZM11.25 31.875C11.25 30.8804 11.6451 29.9266 12.3483 29.2234C13.0516 28.5201 14.0054 28.125 15 28.125H24.375C25.3696 28.125 26.3234 28.5201 27.0266 29.2234C27.7299 29.9266 28.125 30.8804 28.125 31.875V46.875C28.125 47.8696 27.7299 48.8234 27.0266 49.5266C26.3234 50.2299 25.3696 50.625 24.375 50.625H15C14.0054 50.625 13.0516 50.2299 12.3483 49.5266C11.6451 48.8234 11.25 47.8696 11.25 46.875V31.875Z" fill="white"/>
</svg>
