<svg width="110" height="32" viewBox="0 0 110 32" fill="none" xmlns="http://www.w3.org/2000/svg">
<path d="M12.8467 0.368394C13.6974 -0.122798 14.7454 -0.122798 15.596 0.368394L26.8592 6.87238L19.0711 11.4335C17.8655 10.223 16.1971 9.47383 14.3539 9.47383C12.4369 9.47383 10.7092 10.2841 9.49437 11.581L1.51855 6.90995L12.8467 0.368394Z" fill="#1B3A57"/>
<path d="M7.97733 14.2149L0 9.54297V22.6027L7.94761 17.9481C7.78444 17.3709 7.69712 16.7619 7.69712 16.1324C7.69712 15.4658 7.79505 14.8221 7.97733 14.2149Z" fill="#1B3A57"/>
<path d="M9.43137 20.6064L1.65234 25.1623L12.8552 31.6314C13.7058 32.1225 14.7538 32.1225 15.6045 31.6314L26.7423 25.1999L19.1538 20.7555C17.943 22.0105 16.2438 22.7911 14.3623 22.7911C12.4075 22.7911 10.6494 21.9483 9.43137 20.6064Z" fill="#1B3A57"/>
<path d="M20.7085 18.1449L28.4493 22.6785C28.4496 22.6609 28.4499 22.6433 28.4499 22.6257V9.46777L20.6758 14.0206C20.8976 14.6843 21.0178 15.3946 21.0178 16.1329C21.0178 16.8342 20.9095 17.5101 20.7085 18.1449Z" fill="#1B3A57"/>
<path d="M38.7178 23.6807V22.2522L47.1506 10.4325H39.3168V7.87496H51.5974V9.32651L43.1646 21.1232H51.8048V23.6807H38.7178Z" fill="#1B3A57"/>
<path d="M56.3389 23.9572C56.0009 23.9572 55.6093 23.9111 55.1638 23.819C54.7337 23.7422 54.3113 23.5886 53.8966 23.3582C53.4972 23.1277 53.167 22.7898 52.9058 22.3444C52.6447 21.8836 52.5142 21.2845 52.5142 20.5472C52.5142 19.7178 52.6985 19.0342 53.0671 18.4966C53.4358 17.9436 53.9503 17.5136 54.6108 17.2063C55.2867 16.8838 56.0854 16.6611 57.007 16.5382C57.944 16.3999 58.9655 16.3308 60.0714 16.3308V15.3401C60.0714 14.9868 60.0177 14.6719 59.9101 14.3954C59.8026 14.1189 59.6029 13.9039 59.3111 13.7503C59.0346 13.5813 58.6122 13.4968 58.0439 13.4968C57.4755 13.4968 57.0301 13.566 56.7075 13.7042C56.385 13.8424 56.1622 14.0114 56.0393 14.2111C55.9165 14.4108 55.855 14.6181 55.855 14.8332V15.1557H53.1362C53.1209 15.0789 53.1132 15.0021 53.1132 14.9253C53.1132 14.8485 53.1132 14.7564 53.1132 14.6489C53.1132 13.9576 53.3206 13.3586 53.7353 12.8517C54.15 12.3448 54.726 11.9608 55.4633 11.6997C56.2006 11.4232 57.0531 11.2849 58.0208 11.2849C59.1268 11.2849 60.033 11.4386 60.7396 11.7458C61.4615 12.053 61.9991 12.4907 62.3524 13.0591C62.7057 13.6274 62.8824 14.3186 62.8824 15.1327V20.8467C62.8824 21.1386 62.9668 21.346 63.1358 21.4688C63.3048 21.5917 63.4891 21.6532 63.6888 21.6532H64.4261V23.5886C64.2725 23.65 64.0497 23.7191 63.7579 23.7959C63.4661 23.8881 63.1051 23.9342 62.675 23.9342C62.2756 23.9342 61.9147 23.865 61.5921 23.7268C61.2849 23.6039 61.0238 23.4196 60.8087 23.1738C60.5937 22.9281 60.4401 22.6362 60.3479 22.2983H60.2097C59.9485 22.6209 59.6337 22.9127 59.265 23.1738C58.9117 23.4196 58.4893 23.6116 57.9978 23.7498C57.5216 23.8881 56.9686 23.9572 56.3389 23.9572ZM57.1914 21.6532C57.6522 21.6532 58.0592 21.584 58.4125 21.4458C58.7812 21.3076 59.0807 21.1155 59.3111 20.8698C59.5569 20.624 59.7412 20.3245 59.8641 19.9712C60.0023 19.6179 60.0714 19.2339 60.0714 18.8192V18.2662C59.2266 18.2662 58.4432 18.32 57.7213 18.4275C57.0147 18.535 56.4464 18.7347 56.0163 19.0265C55.6016 19.3184 55.3942 19.7331 55.3942 20.2707C55.3942 20.5472 55.4557 20.793 55.5785 21.008C55.7168 21.2077 55.9165 21.369 56.1776 21.4919C56.4541 21.5994 56.792 21.6532 57.1914 21.6532Z" fill="#1B3A57"/>
<path d="M65.1096 9.69515V7.02246H67.9205V9.69515H65.1096ZM65.1096 23.6807V11.5614H67.9205V23.6807H65.1096Z" fill="#1B3A57"/>
<path d="M75.3845 23.9572C74.0635 23.9572 72.9576 23.7345 72.0667 23.289C71.1758 22.8282 70.5076 22.1293 70.0622 21.1923C69.6167 20.2554 69.394 19.0649 69.394 17.6211C69.394 16.1618 69.6167 14.9714 70.0622 14.0498C70.5076 13.1128 71.1758 12.4216 72.0667 11.9762C72.9576 11.5154 74.0635 11.2849 75.3845 11.2849C76.7209 11.2849 77.8268 11.5154 78.7023 11.9762C79.5932 12.4216 80.2614 13.1128 80.7069 14.0498C81.1523 14.9714 81.375 16.1618 81.375 17.6211C81.375 19.0649 81.1523 20.2554 80.7069 21.1923C80.2614 22.1293 79.5932 22.8282 78.7023 23.289C77.8268 23.7345 76.7209 23.9572 75.3845 23.9572ZM75.3845 21.6532C76.1218 21.6532 76.7132 21.5149 77.1586 21.2384C77.6194 20.9466 77.9497 20.5165 78.1494 19.9482C78.3644 19.3645 78.4719 18.6425 78.4719 17.7824V17.4598C78.4719 16.5996 78.3644 15.8854 78.1494 15.317C77.9497 14.7333 77.6194 14.3032 77.1586 14.0268C76.7132 13.7349 76.1218 13.589 75.3845 13.589C74.6472 13.589 74.0482 13.7349 73.5874 14.0268C73.1419 14.3032 72.8117 14.7333 72.5966 15.317C72.3969 15.8854 72.2971 16.5996 72.2971 17.4598V17.7824C72.2971 18.6425 72.3969 19.3645 72.5966 19.9482C72.8117 20.5165 73.1419 20.9466 73.5874 21.2384C74.0482 21.5149 74.6472 21.6532 75.3845 21.6532Z" fill="#1B3A57"/>
<path d="M80.9895 23.6807L85.3211 17.4368L81.289 11.5614H84.699L87.0952 15.317H87.2334L89.6757 11.5614H92.8784L88.8232 17.3676L93.1088 23.6807H89.7449L87.0491 19.4874H86.9109L84.1921 23.6807H80.9895Z" fill="#1B3A57"/>
<path d="M93.9128 9.69515V7.02246H96.7238V9.69515H93.9128ZM93.9128 23.6807V11.5614H96.7238V23.6807H93.9128Z" fill="#1B3A57"/>
<path d="M103.013 23.9572C102.03 23.9572 101.177 23.7345 100.455 23.289C99.7333 22.8436 99.1727 22.1524 98.7733 21.2154C98.3893 20.2784 98.1973 19.0726 98.1973 17.598C98.1973 16.1388 98.397 14.9484 98.7963 14.0268C99.1957 13.0898 99.7487 12.3986 100.455 11.9531C101.162 11.5077 101.961 11.2849 102.851 11.2849C103.404 11.2849 103.911 11.3464 104.372 11.4693C104.833 11.5922 105.24 11.7842 105.593 12.0453C105.947 12.291 106.246 12.5983 106.492 12.9669H106.63V7.02246H109.441V23.6807H107.114L106.884 22.0679H106.722C106.338 22.6977 105.816 23.1738 105.156 23.4964C104.51 23.8036 103.796 23.9572 103.013 23.9572ZM103.888 21.538C104.533 21.538 105.056 21.392 105.455 21.1002C105.854 20.8083 106.146 20.3859 106.331 19.833C106.53 19.28 106.63 18.6041 106.63 17.8054V17.5059C106.63 16.9068 106.576 16.3692 106.469 15.893C106.361 15.4169 106.192 15.0175 105.962 14.6949C105.747 14.3724 105.463 14.1266 105.109 13.9576C104.771 13.7887 104.364 13.7042 103.888 13.7042C103.197 13.7042 102.644 13.8424 102.229 14.1189C101.83 14.3801 101.538 14.7948 101.354 15.3631C101.185 15.9161 101.1 16.6227 101.1 17.4828V17.8054C101.1 18.6502 101.185 19.3491 101.354 19.9021C101.538 20.4551 101.83 20.8698 102.229 21.1463C102.644 21.4074 103.197 21.538 103.888 21.538Z" fill="#1B3A57"/>
</svg>
