<svg width="150" height="32" viewBox="0 0 150 32" fill="none" xmlns="http://www.w3.org/2000/svg">
<path d="M58.949 25.3732H41.1343V21.5529L52.311 10.5447V10.2334H41.3896V6.41309H58.7221V10.2334L47.1765 21.2416V21.5529H58.949V25.3732Z" fill="#1B3A57"/>
<path d="M65.2344 25.6562C62.1707 25.6562 60.3268 24.2412 60.3268 21.8641C60.3268 19.77 61.887 18.4683 64.9223 18.157L71.0213 17.5345V16.9968C71.0213 15.1574 70.1987 14.648 67.9293 14.648C65.7734 14.648 64.894 15.214 64.894 16.827V16.9402H60.6105V16.8553C60.6105 13.3463 63.5607 10.9126 68.2413 10.9126C72.9787 10.9126 75.2197 13.3463 75.2197 17.0534V25.3732H71.2483V22.1188H71.0213C70.3689 24.3261 68.3832 25.6562 65.2344 25.6562ZM64.6103 21.5812C64.6103 22.3452 65.206 22.6565 66.4542 22.6565C69.3477 22.6565 70.9079 21.9773 71.0213 19.9681L66.0854 20.5341C65.0642 20.619 64.6103 20.902 64.6103 21.5812Z" fill="#1B3A57"/>
<path d="M81.6316 9.75232H77.3765V6.41309H81.6316V9.75232ZM81.6316 25.3732H77.3765V11.1956H81.6316V25.3732Z" fill="#1B3A57"/>
<path d="M88.114 25.3732H83.8589V11.1956H87.802V15.4969H88.0289C88.3693 13.1199 89.7877 10.9126 93.362 10.9126C96.6526 10.9126 98.3263 12.9218 98.6383 15.5535H98.8937C99.2341 13.1482 100.681 10.9126 104.34 10.9126C108 10.9126 109.787 13.318 109.787 16.544V25.3732H105.532V17.9589C105.532 15.6101 104.709 14.7329 102.269 14.7329C99.6879 14.7329 98.9504 15.7516 98.9504 18.2136V25.3732H94.6953V17.9589C94.6953 15.6101 93.8726 14.7329 91.433 14.7329C88.8516 14.7329 88.114 15.7516 88.114 18.2136V25.3732Z" fill="#1B3A57"/>
<path d="M116.318 25.6562C113.254 25.6562 111.41 24.2412 111.41 21.8641C111.41 19.77 112.971 18.4683 116.006 18.157L122.105 17.5345V16.9968C122.105 15.1574 121.282 14.648 119.013 14.648C116.857 14.648 115.977 15.214 115.977 16.827V16.9402H111.694V16.8553C111.694 13.3463 114.644 10.9126 119.325 10.9126C124.062 10.9126 126.303 13.3463 126.303 17.0534V25.3732H122.332V22.1188H122.105C121.452 24.3261 119.467 25.6562 116.318 25.6562ZM115.694 21.5812C115.694 22.3452 116.29 22.6565 117.538 22.6565C120.431 22.6565 121.991 21.9773 122.105 19.9681L117.169 20.5341C116.148 20.619 115.694 20.902 115.694 21.5812Z" fill="#1B3A57"/>
<path d="M132.715 9.75232H128.46V6.41309H132.715V9.75232ZM132.715 25.3732H128.46V11.1956H132.715V25.3732Z" fill="#1B3A57"/>
<path d="M139.198 25.3732H134.942V6.41309H139.198V25.3732Z" fill="#1B3A57"/>
<path d="M15.6767 0C11.519 0 7.53156 1.54517 4.59161 4.29558C1.65165 7.046 0 10.7764 0 14.666C0 18.5557 1.65165 22.2861 4.59161 25.0365C7.53156 27.7869 11.519 29.3321 15.6767 29.3321V23.5404C13.5416 23.5435 11.4682 22.87 9.79455 21.6297L5.40788 23.4491L7.46392 19.1075C6.63072 17.7587 6.19183 16.2284 6.19138 14.6705C6.19094 13.1127 6.62896 11.5822 7.46139 10.233C8.29382 8.88373 9.49132 7.76333 10.9335 6.98445C12.3756 6.20557 14.0115 5.79565 15.6767 5.79593V0Z" fill="#1B3A57"/>
<path d="M15.6772 2.67009V8.46178C17.3416 8.46326 18.9763 8.87439 20.417 9.65389C21.8578 10.4334 23.054 11.5538 23.8855 12.9026C24.717 14.2514 25.1545 15.7812 25.1541 17.3382C25.1537 18.8953 24.7154 20.4249 23.8832 21.7733L25.9461 26.1171L21.5594 24.2976C19.8858 25.5379 17.8124 26.2114 15.6772 26.2084V32C19.835 32 23.8224 30.4549 26.7624 27.7045C29.7023 24.954 31.354 21.2237 31.354 17.334C31.354 13.4443 29.7023 9.71397 26.7624 6.96355C23.8224 4.21314 19.835 2.66797 15.6772 2.66797V2.67009Z" fill="#1B3A57"/>
<path d="M10.8244 17.0669C11.4428 17.0669 11.9441 16.5893 11.9441 16.0003C11.9441 15.4112 11.4428 14.9336 10.8244 14.9336C10.2059 14.9336 9.70459 15.4112 9.70459 16.0003C9.70459 16.5893 10.2059 17.0669 10.8244 17.0669Z" fill="#1B3A57"/>
<path d="M15.3034 17.0669C15.9218 17.0669 16.4231 16.5893 16.4231 16.0003C16.4231 15.4112 15.9218 14.9336 15.3034 14.9336C14.6849 14.9336 14.1836 15.4112 14.1836 16.0003C14.1836 16.5893 14.6849 17.0669 15.3034 17.0669Z" fill="#1B3A57"/>
<path d="M19.7824 17.0669C20.4008 17.0669 20.9021 16.5893 20.9021 16.0003C20.9021 15.4112 20.4008 14.9336 19.7824 14.9336C19.1639 14.9336 18.6626 15.4112 18.6626 16.0003C18.6626 16.5893 19.1639 17.0669 19.7824 17.0669Z" fill="#1B3A57"/>
</svg>
