<svg width="40" height="40" viewBox="0 0 40 40" fill="none" xmlns="http://www.w3.org/2000/svg">
<g clip-path="url(#clip0_69_581)">
<g clip-path="url(#clip1_69_581)">
<path d="M4.57499 26.4187C4.51936 26.3081 4.42225 26.2241 4.30485 26.1848C4.18745 26.1456 4.0593 26.1544 3.94836 26.2093C3.83741 26.2642 3.75269 26.3607 3.71267 26.4779C3.67265 26.595 3.68059 26.7232 3.73476 26.8345C3.81968 27.0064 3.90999 27.1783 4.00327 27.3463C4.06444 27.4534 4.16533 27.532 4.28409 27.5652C4.40285 27.5984 4.52991 27.5835 4.63773 27.5237C4.74555 27.4638 4.82546 27.3639 4.86013 27.2456C4.8948 27.1273 4.88145 27 4.82296 26.8915C4.73679 26.7362 4.65335 26.577 4.57499 26.4187Z" fill="white"/>
<path d="M9.86956 31.6464C8.2531 30.869 6.84148 29.7234 5.74807 28.3015C5.67225 28.2033 5.56054 28.1391 5.43745 28.1231C5.31436 28.107 5.18994 28.1405 5.09149 28.2161C4.99303 28.2917 4.92858 28.4032 4.91227 28.5263C4.89596 28.6493 4.92912 28.7738 5.00448 28.8725C6.18771 30.4111 7.71531 31.6508 9.46456 32.4919C9.57668 32.5456 9.70555 32.5526 9.82281 32.5113C9.94008 32.47 10.0361 32.3838 10.0898 32.2717C10.1435 32.1595 10.1505 32.0307 10.1092 31.9134C10.0679 31.7961 9.98168 31.7001 9.86956 31.6464Z" fill="white"/>
<path d="M6.51617 23.1562C6.9238 23.1562 7.32227 23.0353 7.66119 22.8088C8.00011 22.5824 8.26427 22.2605 8.42025 21.8839C8.57623 21.5073 8.61703 21.0929 8.5375 20.6931C8.45796 20.2933 8.26167 19.926 7.97342 19.6378C7.68518 19.3496 7.31795 19.1533 6.91815 19.0738C6.51835 18.9943 6.10396 19.0351 5.72736 19.1911C5.35076 19.3471 5.02888 19.6112 4.80242 19.9502C4.57595 20.2891 4.45508 20.6876 4.45508 21.0952C4.4557 21.6416 4.67305 22.1655 5.05945 22.5519C5.44585 22.9383 5.96973 23.1556 6.51617 23.1562ZM6.51617 19.9717C6.73838 19.9717 6.95559 20.0376 7.14034 20.1611C7.32509 20.2845 7.46909 20.46 7.55411 20.6653C7.63913 20.8706 7.66137 21.0965 7.61801 21.3144C7.57465 21.5324 7.46764 21.7326 7.31051 21.8897C7.15338 22.0468 6.95319 22.1538 6.73525 22.1971C6.51731 22.2405 6.29142 22.2182 6.08613 22.1332C5.88083 22.0481 5.70537 21.9041 5.58192 21.7194C5.45847 21.5346 5.39258 21.3174 5.39258 21.0952C5.39305 20.7974 5.5116 20.5119 5.72222 20.3014C5.93284 20.0908 6.21836 19.9721 6.51617 19.9717Z" fill="white"/>
<path d="M18.9993 24.3908C19.4079 24.3909 19.8073 24.2697 20.147 24.0427C20.4867 23.8157 20.7515 23.4931 20.9079 23.1156C21.0643 22.7382 21.1052 22.3228 21.0255 21.9221C20.9458 21.5213 20.749 21.1532 20.4601 20.8643C20.1712 20.5754 19.8031 20.3787 19.4024 20.299C19.0016 20.2193 18.5863 20.2602 18.2088 20.4165C17.8313 20.5729 17.5087 20.8377 17.2817 21.1774C17.0547 21.5171 16.9336 21.9166 16.9336 22.3251C16.9342 22.8728 17.152 23.3979 17.5393 23.7851C17.9266 24.1724 18.4516 24.3902 18.9993 24.3908ZM18.9993 21.1968C19.2224 21.1968 19.4406 21.2629 19.6261 21.3869C19.8117 21.5108 19.9563 21.6871 20.0417 21.8932C20.1272 22.0994 20.1495 22.3262 20.106 22.5451C20.0625 22.764 19.955 22.965 19.7972 23.1228C19.6395 23.2806 19.4384 23.3881 19.2196 23.4316C19.0007 23.4752 18.7738 23.4529 18.5677 23.3675C18.3615 23.2821 18.1853 23.1375 18.0613 22.952C17.9373 22.7664 17.8711 22.5483 17.8711 22.3251C17.8714 22.026 17.9904 21.7392 18.2019 21.5276C18.4134 21.3161 18.7002 21.1972 18.9993 21.1968Z" fill="white"/>
<path d="M38.282 33.6824L38.2754 33.6763L30.7437 26.9045C30.6665 26.8353 30.5685 26.7936 30.465 26.786C30.3616 26.7785 30.2585 26.8055 30.1721 26.8629L29.1984 25.8216C30.5205 24.1094 31.2785 22.0291 31.3677 19.8677C31.4569 17.7063 30.8729 15.5706 29.6965 13.7553C28.52 11.9399 26.809 10.5346 24.7997 9.73322C22.7904 8.93186 20.5819 8.77398 18.4791 9.28141V4.45656H18.8373C19.7171 4.45656 20.4674 3.77375 20.5006 2.89453C20.5088 2.67611 20.473 2.45827 20.3951 2.25404C20.3172 2.0498 20.199 1.86335 20.0475 1.70583C19.8959 1.54832 19.7142 1.42296 19.5131 1.33726C19.312 1.25156 19.0958 1.20727 18.8772 1.20703H7.31828C7.09971 1.20727 6.88342 1.25156 6.68235 1.33726C6.48127 1.42296 6.29954 1.54832 6.148 1.70583C5.99646 1.86335 5.87823 2.0498 5.80037 2.25404C5.72251 2.45827 5.68662 2.67611 5.69484 2.89453C5.72805 3.77375 6.47836 4.45656 7.35812 4.45656H7.71641V6.17203C7.71641 6.29635 7.76579 6.41558 7.8537 6.50349C7.94161 6.5914 8.06084 6.64078 8.18516 6.64078C8.30948 6.64078 8.4287 6.5914 8.51661 6.50349C8.60452 6.41558 8.65391 6.29635 8.65391 6.17203V4.00016C8.65501 3.93452 8.64295 3.86933 8.61844 3.80844C8.58281 3.72287 8.52266 3.64976 8.44555 3.59832C8.36845 3.54688 8.27784 3.51941 8.18516 3.51938H7.3425C7.16531 3.52174 6.99375 3.45711 6.86217 3.33842C6.73058 3.21972 6.64867 3.05572 6.63281 2.87922C6.62639 2.78524 6.63935 2.69093 6.67089 2.60217C6.70243 2.5134 6.75187 2.43206 6.81616 2.3632C6.88044 2.29434 6.95819 2.23942 7.04458 2.20186C7.13097 2.1643 7.22416 2.14489 7.31836 2.14484H18.8527C19.0299 2.14244 19.2015 2.20704 19.3331 2.32572C19.4648 2.4444 19.5467 2.60841 19.5626 2.78492C19.569 2.87891 19.556 2.97321 19.5245 3.06197C19.493 3.15074 19.4435 3.23208 19.3792 3.30094C19.315 3.3698 19.2372 3.42472 19.1508 3.46228C19.0644 3.49984 18.9712 3.51925 18.877 3.5193H18.0223C17.9567 3.51817 17.8915 3.5302 17.8306 3.55469C17.7451 3.59034 17.6719 3.65051 17.6205 3.72762C17.5691 3.80474 17.5416 3.89535 17.5416 3.98805V9.55258C15.8055 10.1472 14.2566 11.1884 13.0507 12.5716C11.8447 13.9548 11.0243 15.6311 10.6719 17.432C8.78125 17.1373 6.54484 16.9642 3.37813 17.155C4.56142 15.2027 6.30428 13.6512 8.38047 12.7019C8.4621 12.6645 8.53128 12.6045 8.57976 12.5289C8.62823 12.4534 8.65397 12.3655 8.65391 12.2757V10.0784C8.65391 9.95404 8.60452 9.83481 8.51661 9.7469C8.4287 9.659 8.30948 9.60961 8.18516 9.60961C8.06084 9.60961 7.94161 9.659 7.8537 9.7469C7.76579 9.83481 7.71641 9.95404 7.71641 10.0784V11.9784C5.63962 12.9919 3.88876 14.5676 2.66281 16.5265C1.43686 18.4854 0.784978 20.7489 0.78125 23.0598C0.78127 26.3249 2.07778 29.4564 4.38581 31.766C6.69384 34.0755 9.82448 35.3741 13.0896 35.3763C13.3184 35.3763 13.5483 35.3701 13.7793 35.3577C17.7551 35.1433 21.3872 32.9762 23.535 29.5506C24.6782 29.2583 25.7631 28.7731 26.743 28.1159L27.7176 29.1581C27.6546 29.2405 27.6207 29.3415 27.6213 29.4452C27.6219 29.5489 27.6569 29.6495 27.7209 29.7312L33.9726 37.6999L33.9782 37.707C34.2344 38.02 34.5519 38.2772 34.9112 38.4628C35.2706 38.6484 35.6641 38.7584 36.0676 38.7862C36.133 38.7906 36.1985 38.7929 36.2638 38.7928C36.8565 38.7931 37.4355 38.615 37.9256 38.2818C38.4156 37.9486 38.7941 37.4757 39.0118 36.9244C39.2295 36.3732 39.2763 35.7693 39.1462 35.1911C39.016 34.613 38.7149 34.0871 38.282 33.6824ZM13.7288 34.422C11.7532 34.5337 9.78257 34.1278 8.01189 33.2444C6.2412 32.361 4.73177 31.0307 3.63283 29.3851C2.53389 27.7395 1.88352 25.8356 1.74601 23.8615C1.60851 21.8875 1.98865 19.9118 2.84883 18.1297C6.2707 17.8823 8.56547 18.0475 10.5349 18.3577C10.5103 18.5987 10.4937 18.8414 10.4851 19.0858C10.4377 20.4867 10.6728 21.8828 11.1766 23.1908C11.6803 24.4989 12.4423 25.6921 13.417 26.6993C14.3918 27.7066 15.5594 28.5072 16.8503 29.0535C18.1411 29.5998 19.5288 29.8806 20.9305 29.8791C21.3667 29.8785 21.8024 29.8508 22.2352 29.7961C20.2129 32.5319 17.1039 34.2396 13.7288 34.422ZM20.9302 28.9424C19.6542 28.9438 18.391 28.6883 17.216 28.191C16.0409 27.6937 14.978 26.9649 14.0907 26.048C13.2033 25.1311 12.5097 24.0449 12.0512 22.8542C11.5927 21.6634 11.3787 20.3926 11.4219 19.1173C11.4286 18.916 11.4423 18.716 11.4609 18.5172C11.8426 18.588 12.2162 18.6631 12.5884 18.7402C12.577 18.878 12.5689 19.0165 12.5643 19.1556C12.5244 20.2541 12.7028 21.3496 13.0892 22.3787C13.4755 23.4078 14.0622 24.35 14.8152 25.1509C16.3416 26.7833 18.5562 27.726 20.7898 27.8009C22.918 27.8009 25.0788 27.0084 26.6413 25.5477C27.6043 24.6469 28.3408 23.5314 28.7908 22.292C29.2407 21.0525 29.3913 19.7243 29.2304 18.4156C29.0695 17.1069 28.6015 15.8547 27.8647 14.7612C27.1279 13.6677 26.143 12.7638 24.9905 12.1233C23.838 11.4827 22.5504 11.1236 21.2327 11.0753C19.915 11.0269 18.6045 11.2906 17.4081 11.845C16.2117 12.3993 15.1633 13.2286 14.3483 14.2651C13.5333 15.3017 12.9748 16.5161 12.7184 17.8095C12.352 17.7341 11.9797 17.66 11.5962 17.5896C11.9446 15.8207 12.7886 14.1873 14.0296 12.8795C15.2707 11.5718 16.8578 10.6436 18.6061 10.2031C20.3543 9.76267 22.1917 9.82803 23.9043 10.3916C25.6168 10.9552 27.134 11.9938 28.279 13.3864C29.424 14.779 30.1497 16.4683 30.3716 18.2575C30.5935 20.0467 30.3025 21.8621 29.5324 23.4922C28.7622 25.1223 27.5448 26.5001 26.0218 27.465C24.4988 28.4298 22.733 28.9425 20.9302 28.9424ZM19.0455 12.2727C19.699 12.0987 20.3722 12.0099 21.0485 12.0086C23.0319 12.0752 24.9984 12.9122 26.3538 14.3617C27.6995 15.801 28.4184 17.7159 28.3523 19.6852C28.2862 21.6544 27.4406 23.5168 26.0014 24.8627C25.736 25.1109 25.453 25.3397 25.1546 25.547C25.3178 24.772 25.4044 23.9828 25.4133 23.1909C25.4352 20.9659 24.8549 18.7764 23.7339 16.8543C22.6128 14.9322 20.9928 13.3491 19.0455 12.2727ZM23.627 18.7502C18.8177 19.0694 16.2729 18.558 13.6362 18.0021C13.934 16.4704 14.7101 15.0726 15.8528 14.0099C16.4345 13.4708 17.1007 13.0306 17.8248 12.7068C20.4562 13.9112 22.5307 16.0719 23.627 18.7502ZM20.8666 19.7841C21.7963 19.7841 22.8186 19.7483 23.956 19.667C24.3125 20.8038 24.4879 21.9896 24.4759 23.1809C24.4646 24.2001 24.3138 25.2129 24.0277 26.1912C22.8762 26.7191 21.609 26.9439 20.3463 26.8444C19.0835 26.7449 17.8671 26.3243 16.8126 25.6226C15.7581 24.9209 14.9004 23.9613 14.321 22.8349C13.7415 21.7086 13.4595 20.4528 13.5018 19.1869C13.5046 19.1023 13.5096 19.0183 13.515 18.9343C15.5426 19.3615 17.6569 19.7842 20.8666 19.7841ZM27.5024 27.5556C27.6935 27.4007 27.8804 27.238 28.063 27.0677C28.2456 26.8973 28.4204 26.7218 28.5876 26.5412L29.4823 27.498L28.3973 28.5126L27.5024 27.5556ZM37.6423 37.3119C37.4409 37.5001 37.203 37.6451 36.9434 37.7378C36.6837 37.8304 36.4078 37.8688 36.1327 37.8506C35.8576 37.8324 35.5891 37.7579 35.344 37.6318C35.0988 37.5057 34.8821 37.3306 34.7073 37.1174L28.7238 29.4907L30.4365 27.8891L37.6451 34.3704C37.8461 34.5591 38.0062 34.7871 38.1156 35.0401C38.225 35.2932 38.2814 35.5661 38.2811 35.8418C38.2808 36.1175 38.224 36.3902 38.1142 36.6431C38.0043 36.896 37.8437 37.1235 37.6423 37.3119Z" fill="white"/>
<path d="M20.7913 27.8008C20.8874 27.804 20.6956 27.8008 20.7913 27.8008Z" fill="white"/>
</g>
</g>
<defs>
<clipPath id="clip0_69_581">
<rect width="40" height="40" fill="white"/>
</clipPath>
<clipPath id="clip1_69_581">
<rect width="40" height="40" fill="white"/>
</clipPath>
</defs>
</svg>
