<svg width="150" height="44" viewBox="0 0 150 44" fill="none" xmlns="http://www.w3.org/2000/svg">
<rect width="44" height="44" rx="22" fill="#E4ECFF"/>
<path d="M27.9735 12.4878L26.7645 29.3203C26.7645 29.3203 20.9519 27.4612 14.1572 30.7954C14.1572 30.7954 20.9519 28.7006 27.9735 31.182L29.6592 13.2637L27.9735 12.4878Z" fill="#1F6BFF"/>
<path d="M30.3139 14.1167L28.7286 32.1383C28.7286 32.1383 22.6995 30.0011 15.7656 31.1822C15.7656 31.1822 23.063 30.5705 29.9376 34L31.9997 14.89L30.3139 14.1167Z" fill="#1F6BFF"/>
<path d="M12 11.4948V22.2706C14.1498 20.2738 16.0443 19.0715 16.7042 18.6769C16.7687 16.892 18.2173 15.4725 19.9778 15.5175C21.643 15.5599 23.0117 16.9344 23.0891 18.6451C23.1741 20.5307 21.7126 22.0853 19.8954 22.0853C19.0731 22.0853 18.3204 21.7648 17.7559 21.2405C17.7327 21.2484 17.7121 21.2564 17.6915 21.2669C14.258 22.6123 12 26.0127 12 29.7891V30.7928C12.6109 30.4485 13.2141 30.1413 13.8044 29.8659C20.5578 26.7198 25.9348 27.7685 25.9348 27.7685L27.1489 11.7331C18.7225 7.97786 12 11.4948 12 11.4948ZM23.0813 14.7283H20.7305V12.3131H23.0813V14.7283ZM25.5121 16.9344H23.7129V15.0859H25.5121V16.9344ZM25.7595 13.3512H24.615V12.1754H25.7595V13.3512ZM19.8979 17.0509C18.9571 17.0509 18.1941 17.8348 18.1941 18.8014C18.1941 19.768 18.9571 20.5519 19.8979 20.5519C20.8388 20.5519 21.6018 19.768 21.6018 18.8014C21.6018 17.8348 20.8388 17.0509 19.8979 17.0509Z" fill="#1F6BFF"/>
<path d="M13.8044 29.8658C13.2115 30.1412 12.6109 30.4484 12 30.7927V29.789C12 26.0125 14.258 22.6121 17.6915 21.2642C17.627 21.3092 13.3997 24.3785 13.8044 29.8658Z" fill="#1F6BFF"/>
<path d="M56.924 31V27.192L66.276 16.244V15.908H57.232V12.52H70.7V16.664L61.628 27.304V27.612H71.064V31H56.924ZM76.7007 31.392C75.8794 31.392 75.1514 31.2333 74.5167 30.916C73.8821 30.58 73.3874 30.104 73.0327 29.488C72.6781 28.872 72.5007 28.1067 72.5007 27.192C72.5007 26.3893 72.6501 25.7173 72.9487 25.176C73.2661 24.6347 73.7234 24.196 74.3207 23.86C74.9181 23.524 75.6554 23.244 76.5327 23.02C77.4101 22.796 78.4087 22.6 79.5288 22.432C80.1261 22.3387 80.6114 22.2547 80.9847 22.18C81.3767 22.0867 81.6661 21.9467 81.8528 21.76C82.0394 21.5547 82.1328 21.2653 82.1328 20.892C82.1328 20.3693 81.9461 19.9213 81.5727 19.548C81.1994 19.1747 80.6114 18.988 79.8087 18.988C79.2674 18.988 78.7634 19.0813 78.2967 19.268C77.8487 19.4547 77.4568 19.7347 77.1207 20.108C76.8034 20.4813 76.5701 20.9573 76.4207 21.536L72.8647 20.444C73.0887 19.6787 73.4061 19.016 73.8167 18.456C74.2461 17.896 74.7594 17.4293 75.3567 17.056C75.9541 16.664 76.6354 16.3747 77.4008 16.188C78.1661 16.0013 78.9968 15.908 79.8927 15.908C81.3301 15.908 82.4968 16.1413 83.3928 16.608C84.3074 17.056 84.9888 17.7653 85.4368 18.736C85.8848 19.688 86.1088 20.92 86.1088 22.432V24.952C86.1088 25.6053 86.1181 26.268 86.1368 26.94C86.1741 27.612 86.2114 28.2933 86.2488 28.984C86.3048 29.656 86.3608 30.328 86.4167 31H82.8607C82.7861 30.5333 82.7114 30.0013 82.6368 29.404C82.5808 28.788 82.5341 28.172 82.4968 27.556H81.9928C81.7314 28.2653 81.3581 28.9093 80.8728 29.488C80.3874 30.0667 79.7901 30.5333 79.0808 30.888C78.3901 31.224 77.5968 31.392 76.7007 31.392ZM78.4087 28.48C78.7634 28.48 79.1181 28.4147 79.4728 28.284C79.8461 28.1533 80.2008 27.976 80.5367 27.752C80.8914 27.5093 81.2088 27.2107 81.4887 26.856C81.7874 26.5013 82.0301 26.1 82.2167 25.652L82.1607 23.3L82.8047 23.44C82.4688 23.6827 82.0768 23.8787 81.6287 24.028C81.1808 24.1587 80.7141 24.2613 80.2288 24.336C79.7621 24.4107 79.2954 24.4947 78.8288 24.588C78.3621 24.6813 77.9421 24.8027 77.5687 24.952C77.2141 25.1013 76.9247 25.3067 76.7007 25.568C76.4954 25.8107 76.3927 26.156 76.3927 26.604C76.3927 27.1827 76.5794 27.64 76.9527 27.976C77.3261 28.312 77.8114 28.48 78.4087 28.48ZM89.0757 31V16.3H93.1077V31H89.0757ZM91.1197 14.088C90.3357 14.088 89.729 13.9293 89.2997 13.612C88.889 13.276 88.6837 12.7907 88.6837 12.156C88.6837 11.5027 88.889 11.008 89.2997 10.672C89.729 10.336 90.3357 10.168 91.1197 10.168C91.9223 10.168 92.529 10.336 92.9397 10.672C93.369 11.008 93.5837 11.5027 93.5837 12.156C93.5837 12.772 93.369 13.248 92.9397 13.584C92.529 13.92 91.9223 14.088 91.1197 14.088ZM101.741 31.336C100.099 31.336 98.8853 30.9067 98.1013 30.048C97.3359 29.1707 96.9533 27.78 96.9533 25.876V19.464H94.8253L94.8813 16.3H96.3653C96.9439 16.3 97.3733 16.216 97.6533 16.048C97.9333 15.88 98.1013 15.572 98.1573 15.124L98.5213 13.024H100.817V16.3H104.541V19.576H100.817V25.708C100.817 26.38 100.976 26.8653 101.293 27.164C101.611 27.4627 102.096 27.612 102.749 27.612C103.104 27.612 103.44 27.5747 103.757 27.5C104.093 27.4253 104.383 27.304 104.625 27.136V30.888C104.047 31.0747 103.515 31.196 103.029 31.252C102.544 31.308 102.115 31.336 101.741 31.336ZM113.405 31.392C111.93 31.392 110.633 31.1027 109.513 30.524C108.393 29.9267 107.515 29.0587 106.881 27.92C106.246 26.7627 105.929 25.3253 105.929 23.608C105.929 21.8907 106.246 20.4627 106.881 19.324C107.534 18.1853 108.421 17.336 109.541 16.776C110.679 16.1973 111.967 15.908 113.405 15.908C114.879 15.908 116.177 16.1973 117.297 16.776C118.435 17.3547 119.322 18.2227 119.957 19.38C120.61 20.5187 120.937 21.9467 120.937 23.664C120.937 25.4 120.601 26.8467 119.929 28.004C119.275 29.1427 118.379 29.992 117.241 30.552C116.121 31.112 114.842 31.392 113.405 31.392ZM113.545 28.396C114.273 28.396 114.879 28.228 115.365 27.892C115.869 27.556 116.242 27.052 116.485 26.38C116.746 25.6893 116.877 24.8587 116.877 23.888C116.877 22.8613 116.737 21.9933 116.457 21.284C116.195 20.556 115.803 20.0053 115.281 19.632C114.758 19.24 114.095 19.044 113.293 19.044C112.602 19.044 112.005 19.212 111.501 19.548C110.997 19.8653 110.614 20.3693 110.353 21.06C110.091 21.732 109.961 22.5627 109.961 23.552C109.961 25.1387 110.278 26.3427 110.913 27.164C111.547 27.9853 112.425 28.396 113.545 28.396ZM123.243 31V23.888V16.3H126.575L126.603 21.312H127.135C127.285 20.0613 127.537 19.044 127.891 18.26C128.265 17.476 128.778 16.8973 129.431 16.524C130.085 16.1507 130.897 15.964 131.867 15.964C132.035 15.964 132.213 15.9733 132.399 15.992C132.605 15.992 132.838 16.02 133.099 16.076L132.931 20.36C132.651 20.2293 132.343 20.136 132.007 20.08C131.671 20.024 131.373 19.996 131.111 19.996C130.383 19.996 129.758 20.164 129.235 20.5C128.713 20.836 128.283 21.3213 127.947 21.956C127.63 22.572 127.415 23.328 127.303 24.224V31H123.243ZM140.396 36.096C139.649 36.096 138.884 36.0213 138.1 35.872C137.335 35.7413 136.607 35.5267 135.916 35.228C135.244 34.948 134.665 34.584 134.18 34.136L135.328 30.692C135.925 31.308 136.672 31.7653 137.568 32.064C138.464 32.3813 139.351 32.54 140.228 32.54C141.217 32.54 142.039 32.3347 142.692 31.924C143.364 31.532 143.868 30.9253 144.204 30.104C144.559 29.264 144.764 28.2187 144.82 26.968L144.988 24.42H144.372C144.185 25.652 143.877 26.66 143.448 27.444C143.037 28.228 142.505 28.8067 141.852 29.18C141.217 29.5347 140.461 29.712 139.584 29.712C138.52 29.712 137.624 29.4413 136.896 28.9C136.168 28.3587 135.617 27.5467 135.244 26.464C134.889 25.3813 134.712 24.0467 134.712 22.46V16.3H138.744V21.48C138.744 23.216 138.94 24.4667 139.332 25.232C139.724 25.9973 140.321 26.38 141.124 26.38C141.553 26.38 141.945 26.268 142.3 26.044C142.655 25.8013 142.953 25.456 143.196 25.008C143.457 24.56 143.653 24.0187 143.784 23.384C143.933 22.7307 144.008 21.9933 144.008 21.172V16.3H148.04V27.108C148.04 28.284 147.937 29.3573 147.732 30.328C147.527 31.28 147.219 32.1107 146.808 32.82C146.416 33.548 145.912 34.1547 145.296 34.64C144.68 35.1253 143.961 35.4893 143.14 35.732C142.337 35.9747 141.423 36.096 140.396 36.096Z" fill="#1B3A57"/>
</svg>
